<svg width="15" height="15" viewBox="0 0 15 15" fill="none" xmlns="http://www.w3.org/2000/svg">
<path d="M15 2.34375V12.6562C15 13.9486 13.9486 15 12.6562 15H6.76758C5.4752 15 4.42383 13.9486 4.42383 12.6562V11.4844C4.42383 11.1607 4.68613 10.8984 5.00977 10.8984C5.3334 10.8984 5.5957 11.1607 5.5957 11.4844V12.6562C5.5957 13.3024 6.12144 13.8281 6.76758 13.8281H12.6562C13.3024 13.8281 13.8281 13.3024 13.8281 12.6562V2.34375C13.8281 1.69762 13.3024 1.17188 12.6562 1.17188H6.76758C6.12144 1.17188 5.5957 1.69762 5.5957 2.34375V3.51562C5.5957 3.83926 5.3334 4.10156 5.00977 4.10156C4.68613 4.10156 4.42383 3.83926 4.42383 3.51562V2.34375C4.42383 1.05137 5.4752 0 6.76758 0H12.6562C13.9486 0 15 1.05137 15 2.34375ZM6.61858 9.0176C6.38889 9.24557 6.38741 9.61658 6.61526 9.84627C6.72981 9.96174 6.88053 10.0195 7.03125 10.0195C7.18048 10.0195 7.32971 9.96288 7.44392 9.84959L8.76652 8.53741C9.04552 8.26057 9.19922 7.89219 9.19922 7.5C9.19922 7.10781 9.04552 6.73943 8.76652 6.46259L7.44392 5.15041C7.21424 4.92256 6.84322 4.92393 6.61526 5.15373C6.38741 5.38342 6.38889 5.75443 6.61858 5.98228L7.55768 6.91406H0.585938C0.262299 6.91406 0 7.17636 0 7.5C0 7.82364 0.262299 8.08594 0.585938 8.08594H7.55768L6.61858 9.0176Z" fill="#FFC149"/>
</svg>
