<svg width="27" height="20" viewBox="0 0 27 20" fill="none" xmlns="http://www.w3.org/2000/svg">
<path d="M23.0723 0H3.2137C1.441 0 0 1.441 0 3.2137V16.7863C0 18.559 1.441 20 3.2137 20H23.0669C24.8396 20 26.2806 18.559 26.2806 16.7863V3.21914C26.286 1.44644 24.845 0 23.0723 0ZM24.8178 16.7863C24.8178 17.7488 24.0348 18.5318 23.0723 18.5318H3.2137C2.25122 18.5318 1.46819 17.7488 1.46819 16.7863V3.21914C1.46819 2.25666 2.25122 1.47363 3.2137 1.47363H23.0669C24.0294 1.47363 24.8124 2.25666 24.8124 3.21914V16.7863H24.8178Z" fill="#FFC149"/>
<path d="M16.5744 9.83145L23.0018 4.06745C23.3009 3.79556 23.3281 3.33336 23.0562 3.02884C22.7843 2.72977 22.3221 2.70258 22.0176 2.97447L13.1541 10.9299L11.4249 9.38556C11.4194 9.38012 11.414 9.37468 11.414 9.36925C11.3759 9.33118 11.3379 9.29855 11.2944 9.26593L4.25794 2.96903C3.95343 2.69714 3.49122 2.72433 3.21933 3.02884C2.94745 3.33336 2.97463 3.79556 3.27915 4.06745L9.78268 9.88039L3.30634 15.9435C3.0127 16.2208 2.99639 16.683 3.27371 16.9821C3.42053 17.1343 3.61629 17.2159 3.81205 17.2159C3.99149 17.2159 4.17094 17.1506 4.31232 17.0201L10.8865 10.8701L12.6701 12.4633C12.8115 12.5884 12.9855 12.6482 13.1595 12.6482C13.3335 12.6482 13.513 12.5829 13.6489 12.4579L15.4814 10.8157L22.0176 17.0256C22.159 17.1615 22.3439 17.2268 22.5233 17.2268C22.7191 17.2268 22.9094 17.1506 23.0562 16.9984C23.3335 16.7048 23.3227 16.2371 23.029 15.9598L16.5744 9.83145Z" fill="#FFC149"/>
</svg>
