<svg width="20" height="20" viewBox="0 0 20 20" fill="none" xmlns="http://www.w3.org/2000/svg">
<mask id="path-1-inside-1" fill="white">
<path d="M15.7918 12.3893C15.3823 11.963 14.8884 11.735 14.365 11.735C13.8458 11.735 13.3477 11.9588 12.9214 12.3851L11.5875 13.7147C11.4778 13.6556 11.368 13.6008 11.2625 13.5459C11.1105 13.4699 10.967 13.3982 10.8446 13.3222C9.59513 12.5286 8.45964 11.4944 7.37059 10.1563C6.84295 9.48938 6.48837 8.92797 6.23088 8.35812C6.57702 8.04153 6.89782 7.71229 7.21019 7.3957C7.32838 7.27751 7.44657 7.1551 7.56476 7.0369C8.4512 6.15047 8.4512 5.00232 7.56476 4.11588L6.41239 2.96351C6.28154 2.83265 6.14646 2.69758 6.01983 2.5625C5.76656 2.30079 5.50063 2.03064 5.22625 1.77737C4.8168 1.37214 4.32715 1.15686 3.81217 1.15686C3.29719 1.15686 2.7991 1.37214 2.37698 1.77737C2.37276 1.78159 2.37276 1.78159 2.36854 1.78581L0.933356 3.23366C0.39305 3.77397 0.0849075 4.43246 0.0173694 5.19649C-0.0839379 6.42906 0.27908 7.57721 0.557675 8.32857C1.2415 10.1732 2.26301 11.8828 3.78684 13.7147C5.6357 15.9224 7.86024 17.6657 10.4014 18.8941C11.3722 19.3542 12.6681 19.8987 14.116 19.9916C14.2046 19.9958 14.2975 20 14.3819 20C15.357 20 16.1759 19.6497 16.8175 18.9532C16.8217 18.9447 16.8302 18.9405 16.8344 18.9321C17.0539 18.6661 17.3071 18.4255 17.5731 18.168C17.7546 17.995 17.9403 17.8135 18.1218 17.6235C18.5397 17.1887 18.7592 16.6822 18.7592 16.163C18.7592 15.6396 18.5355 15.1373 18.1092 14.7152L15.7918 12.3893ZM17.3029 16.8342C17.2987 16.8342 17.2987 16.8384 17.3029 16.8342C17.1383 17.0115 16.9695 17.1719 16.7879 17.3491C16.5136 17.6109 16.235 17.8852 15.9733 18.1934C15.5469 18.6493 15.0446 18.8645 14.3861 18.8645C14.3228 18.8645 14.2553 18.8645 14.1919 18.8603C12.9383 18.7801 11.7732 18.2905 10.8995 17.8726C8.5103 16.716 6.41239 15.0739 4.66906 12.9929C3.22965 11.258 2.26724 9.65401 1.62984 7.93179C1.23728 6.88072 1.09376 6.06182 1.15708 5.28935C1.19929 4.79548 1.38924 4.38603 1.73959 4.03568L3.179 2.59627C3.38584 2.4021 3.60534 2.29657 3.82061 2.29657C4.08655 2.29657 4.30182 2.45697 4.4369 2.59205C4.44112 2.59627 4.44534 2.60049 4.44956 2.60471C4.70705 2.84532 4.95188 3.09436 5.20937 3.36029C5.34022 3.49537 5.4753 3.63045 5.61038 3.76974L6.76275 4.92211C7.21019 5.36956 7.21019 5.78323 6.76275 6.23067C6.64033 6.35308 6.52214 6.47549 6.39973 6.59368C6.04515 6.9567 5.70746 7.29439 5.34022 7.62364C5.33178 7.63208 5.32334 7.63631 5.31912 7.64475C4.9561 8.00777 5.02364 8.36234 5.09962 8.60295C5.10384 8.61561 5.10806 8.62827 5.11228 8.64094C5.41198 9.36697 5.8341 10.0508 6.47571 10.8655L6.47993 10.8697C7.64496 12.3049 8.87331 13.4235 10.2283 14.2804C10.4014 14.3901 10.5787 14.4788 10.7475 14.5632C10.8995 14.6392 11.043 14.7109 11.1654 14.7869C11.1823 14.7954 11.1992 14.808 11.216 14.8165C11.3596 14.8882 11.4946 14.922 11.6339 14.922C11.9843 14.922 12.2038 14.7025 12.2756 14.6307L13.7192 13.1871C13.8627 13.0436 14.0906 12.8705 14.3566 12.8705C14.6183 12.8705 14.8336 13.0351 14.9644 13.1787C14.9686 13.1829 14.9686 13.1829 14.9729 13.1871L17.2987 15.5129C17.7335 15.9435 17.7335 16.3867 17.3029 16.8342Z"/>
</mask>
<path d="M15.7918 12.3893L15.0705 13.082L15.0769 13.0886L15.0834 13.0951L15.7918 12.3893ZM12.9214 12.3851L13.6274 13.0933L13.6285 13.0922L12.9214 12.3851ZM11.5875 13.7147L11.1134 14.5952L11.7674 14.9474L12.2935 14.423L11.5875 13.7147ZM11.2625 13.5459L11.7238 12.6587L11.7168 12.655L11.7097 12.6515L11.2625 13.5459ZM10.8446 13.3222L10.3084 14.1664L10.3172 14.1718L10.8446 13.3222ZM7.37059 10.1563L6.58627 10.7768L6.595 10.7876L7.37059 10.1563ZM6.23088 8.35812L5.55597 7.62022L5.02115 8.10939L5.31959 8.76989L6.23088 8.35812ZM7.21019 7.3957L6.50306 6.68858L6.49835 6.69336L7.21019 7.3957ZM7.56476 4.11588L8.27187 3.40877V3.40877L7.56476 4.11588ZM6.41239 2.96351L5.70529 3.67061L6.41239 2.96351ZM6.01983 2.5625L6.74936 1.87856L6.74394 1.87277L6.73843 1.86708L6.01983 2.5625ZM5.22625 1.77737L4.52282 2.48813L4.53519 2.50037L4.54797 2.51217L5.22625 1.77737ZM2.37698 1.77737L1.68445 1.05598L1.67709 1.06305L1.66988 1.07026L2.37698 1.77737ZM2.36854 1.78581L1.66143 1.0787L1.65834 1.08182L2.36854 1.78581ZM0.933356 3.23366L1.64047 3.94077L1.64356 3.93765L0.933356 3.23366ZM0.0173694 5.19649L-0.978765 5.10843L-0.97927 5.11457L0.0173694 5.19649ZM0.557675 8.32857L1.49532 7.98098L1.4953 7.98091L0.557675 8.32857ZM3.78684 13.7147L3.01804 14.3542L3.02019 14.3568L3.78684 13.7147ZM10.4014 18.8941L9.96614 19.7944L9.97311 19.7977L10.4014 18.8941ZM14.116 19.9916L14.052 20.9895L14.0602 20.9901L14.0684 20.9904L14.116 19.9916ZM16.8175 18.9532L17.553 19.6307L17.6487 19.5268L17.7119 19.4004L16.8175 18.9532ZM16.8344 18.9321L16.0632 18.2955L15.9908 18.3832L15.94 18.4849L16.8344 18.9321ZM17.5731 18.168L16.883 17.4443L16.8775 17.4496L17.5731 18.168ZM18.1218 17.6235L17.4009 16.9305L17.3988 16.9327L18.1218 17.6235ZM18.1092 14.7152L17.4008 15.421L17.4056 15.4258L18.1092 14.7152ZM17.3029 16.8342V17.8342H17.7284L18.0235 17.5275L17.3029 16.8342ZM17.3029 16.8342L18.0357 17.5146L16.5958 16.1271L17.3029 16.8342ZM16.7879 17.3491L17.4782 18.0728L17.4867 18.0645L16.7879 17.3491ZM15.9733 18.1934L16.7036 18.8764L16.72 18.8589L16.7355 18.8407L15.9733 18.1934ZM14.1919 18.8603L14.2585 17.8625L14.2558 17.8624L14.1919 18.8603ZM10.8995 17.8726L10.4637 18.7727L10.468 18.7747L10.8995 17.8726ZM4.66906 12.9929L3.89945 13.6315L3.9025 13.6351L4.66906 12.9929ZM1.62984 7.93179L2.56768 7.58469L2.56664 7.5819L1.62984 7.93179ZM1.15708 5.28935L0.160703 5.20419L0.160419 5.20766L1.15708 5.28935ZM1.73959 4.03568L2.4467 4.74278L1.73959 4.03568ZM3.179 2.59627L2.49457 1.8672L2.48306 1.878L2.47189 1.88916L3.179 2.59627ZM4.4369 2.59205L5.14401 1.88494L4.4369 2.59205ZM4.44956 2.60471L3.74246 3.31182L3.75444 3.3238L3.76682 3.33537L4.44956 2.60471ZM5.20937 3.36029L4.49095 4.05591L4.49113 4.05609L5.20937 3.36029ZM5.61038 3.76974L4.89248 4.46589L4.89783 4.47141L4.90327 4.47685L5.61038 3.76974ZM6.39973 6.59368L5.70513 5.87428L5.69459 5.88446L5.68435 5.89495L6.39973 6.59368ZM5.34022 7.62364L4.67268 6.87907L4.65239 6.89727L4.63312 6.91654L5.34022 7.62364ZM5.31912 7.64475L6.02622 8.35185L6.14097 8.23711L6.21354 8.09196L5.31912 7.64475ZM5.09962 8.60295L4.14604 8.90408L4.14843 8.91164L4.15093 8.91917L5.09962 8.60295ZM5.11228 8.64094L4.1636 8.95716L4.17463 8.99025L4.18794 9.0225L5.11228 8.64094ZM6.47571 10.8655L5.6901 11.4842L5.72673 11.5307L5.7686 11.5726L6.47571 10.8655ZM6.47993 10.8697L7.25632 10.2394L7.22367 10.1992L7.18704 10.1626L6.47993 10.8697ZM10.2283 14.2804L10.7638 13.4359L10.7628 13.4352L10.2283 14.2804ZM10.7475 14.5632L11.1947 13.6688L10.7475 14.5632ZM11.1654 14.7869L10.638 15.6366L10.6771 15.6608L10.7182 15.6813L11.1654 14.7869ZM11.216 14.8165L10.7688 15.7109L11.216 14.8165ZM12.2756 14.6307L12.9827 15.3378L12.2756 14.6307ZM14.9644 13.1787L14.2255 13.8524L14.241 13.8695L14.2573 13.8858L14.9644 13.1787ZM14.9729 13.1871L15.68 12.48L14.9729 13.1871ZM17.2987 15.5129L16.5916 16.2201L16.5951 16.2235L17.2987 15.5129ZM16.513 11.6966C15.9438 11.104 15.1996 10.735 14.365 10.735V12.735C14.5772 12.735 14.8208 12.822 15.0705 13.082L16.513 11.6966ZM14.365 10.735C13.5387 10.735 12.7963 11.096 12.2143 11.678L13.6285 13.0922C13.8992 12.8215 14.153 12.735 14.365 12.735V10.735ZM12.2154 11.6769L10.8815 13.0065L12.2935 14.423L13.6274 13.0933L12.2154 11.6769ZM12.0616 12.8343C11.9449 12.7714 11.8092 12.7031 11.7238 12.6587L10.8011 14.4331C10.9268 14.4985 11.0106 14.5399 11.1134 14.5952L12.0616 12.8343ZM11.7097 12.6515C11.547 12.5701 11.4477 12.5195 11.3719 12.4725L10.3172 14.1718C10.4863 14.2768 10.674 14.3697 10.8153 14.4403L11.7097 12.6515ZM11.3807 12.478C10.2354 11.7506 9.17817 10.7931 8.14618 9.52509L6.595 10.7876C7.74111 12.1958 8.95486 13.3066 10.3084 14.1663L11.3807 12.478ZM8.15484 9.53588C7.66212 8.91309 7.35693 8.42163 7.14217 7.94635L5.31959 8.76989C5.61982 9.43431 6.02377 10.0657 6.58634 10.7768L8.15484 9.53588ZM6.90579 9.09602C7.27524 8.75811 7.61681 8.40738 7.92202 8.09805L6.49835 6.69336C6.17883 7.01719 5.87879 7.32496 5.55597 7.62022L6.90579 9.09602ZM7.91729 8.10281C7.98005 8.04005 8.04225 7.97673 8.10081 7.91712C8.16045 7.85643 8.21643 7.79945 8.27187 7.74401L6.85766 6.3298C6.7949 6.39255 6.7327 6.45588 6.67414 6.51548C6.6145 6.57618 6.55852 6.63316 6.50308 6.68859L7.91729 8.10281ZM8.27187 7.74401C8.87059 7.14529 9.22959 6.39236 9.22959 5.57639C9.22959 4.76042 8.87059 4.00749 8.27187 3.40877L6.85766 4.82298C7.14537 5.1107 7.22959 5.37507 7.22959 5.57639C7.22959 5.77771 7.14537 6.04208 6.85766 6.3298L8.27187 7.74401ZM8.27187 3.40877L7.1195 2.2564L5.70529 3.67061L6.85766 4.82298L8.27187 3.40877ZM7.1195 2.2564C6.98656 2.12347 6.86307 1.99985 6.74936 1.87856L5.29029 3.24644C5.42985 3.3953 5.57651 3.54184 5.70529 3.67061L7.1195 2.2564ZM6.73843 1.86708C6.48276 1.60289 6.20065 1.3159 5.90453 1.04256L4.54797 2.51217C4.8006 2.74537 5.05036 2.99869 5.30122 3.25792L6.73843 1.86708ZM5.92969 1.06661C5.35786 0.500674 4.62359 0.15686 3.81217 0.15686V2.15686C4.03071 2.15686 4.27574 2.2436 4.52282 2.48813L5.92969 1.06661ZM3.81217 0.15686C3.00349 0.15686 2.26546 0.49821 1.68445 1.05598L3.06952 2.49875C3.33273 2.24607 3.5909 2.15686 3.81217 2.15686V0.15686ZM1.66988 1.07026C1.66776 1.07238 1.6667 1.07344 1.66564 1.0745C1.66459 1.07555 1.66354 1.0766 1.66144 1.0787L3.07565 2.49292C3.07777 2.4908 3.07883 2.48974 3.07988 2.48868C3.08094 2.48763 3.08199 2.48658 3.08409 2.48447L1.66988 1.07026ZM1.65834 1.08182L0.22315 2.52967L1.64356 3.93765L3.07875 2.4898L1.65834 1.08182ZM0.226249 2.52655C-0.479971 3.23277 -0.89052 4.11038 -0.978746 5.10843L1.01349 5.28454C1.06034 4.75455 1.26607 4.31516 1.64046 3.94077L0.226249 2.52655ZM-0.97927 5.11457C-1.09926 6.57448 -0.670035 7.89387 -0.379947 8.67623L1.4953 7.98091C1.22819 7.26055 0.931386 6.28364 1.01401 5.2784L-0.97927 5.11457ZM-0.37997 8.67617C0.350079 10.6455 1.43564 12.4518 3.01804 14.3542L4.55565 13.0753C3.09039 11.3137 2.13292 9.70092 1.49532 7.98098L-0.37997 8.67617ZM3.02019 14.3568C4.95782 16.6705 7.2945 18.503 9.96616 19.7944L10.8366 17.9937C8.42598 16.8285 6.31358 15.1743 4.5535 13.0727L3.02019 14.3568ZM9.97311 19.7977C10.9678 20.2691 12.4062 20.884 14.052 20.9895L14.18 18.9936C12.93 18.9135 11.7767 18.4392 10.8296 17.9904L9.97311 19.7977ZM14.0684 20.9904C14.1539 20.9945 14.27 21 14.3819 21V19C14.325 19 14.2553 18.9971 14.1635 18.9927L14.0684 20.9904ZM14.3819 21C15.6252 21 16.7145 20.5409 17.553 19.6307L16.082 18.2756C15.6372 18.7584 15.0888 19 14.3819 19V21ZM17.7119 19.4004C17.6678 19.4886 17.6188 19.5531 17.5847 19.5934C17.568 19.6132 17.5537 19.6284 17.5453 19.6372C17.5409 19.6417 17.5375 19.6453 17.5355 19.6472C17.5338 19.649 17.5323 19.6504 17.5331 19.6497C17.5331 19.6496 17.5354 19.6474 17.5379 19.6448C17.5406 19.6421 17.5449 19.6378 17.55 19.6325C17.56 19.622 17.5757 19.6052 17.5939 19.5837C17.6309 19.54 17.6826 19.4717 17.7288 19.3793L15.94 18.4849C15.984 18.3967 16.0331 18.3321 16.0672 18.2918C16.0839 18.272 16.0981 18.2568 16.1066 18.248C16.1109 18.2435 16.1144 18.24 16.1163 18.238C16.1181 18.2363 16.1195 18.2348 16.1188 18.2355C16.1187 18.2356 16.1165 18.2378 16.114 18.2404C16.1112 18.2432 16.107 18.2475 16.1019 18.2528C16.0919 18.2632 16.0761 18.28 16.0579 18.3016C16.0209 18.3453 15.9693 18.4136 15.9231 18.506L17.7119 19.4004ZM17.6056 19.5686C17.7816 19.3554 17.988 19.1582 18.2687 18.8865L16.8775 17.4496C16.6263 17.6929 16.3262 17.9769 16.0632 18.2955L17.6056 19.5686ZM18.2632 18.8918C18.4503 18.7134 18.6483 18.52 18.8448 18.3144L17.3988 16.9327C17.2323 17.1069 17.0589 17.2766 16.883 17.4443L18.2632 18.8918ZM18.8428 18.3165C19.4108 17.7255 19.7592 16.9795 19.7592 16.163H17.7592C17.7592 16.385 17.6686 16.652 17.4009 16.9305L18.8428 18.3165ZM19.7592 16.163C19.7592 15.3362 19.4012 14.5872 18.8127 14.0045L17.4056 15.4258C17.6698 15.6874 17.7592 15.943 17.7592 16.163H19.7592ZM18.8176 14.0093L16.5001 11.6835L15.0834 13.0951L17.4008 15.421L18.8176 14.0093ZM17.3029 15.8342C17.1355 15.8342 16.947 15.8765 16.7706 15.9868C16.6852 16.0401 16.5892 16.1181 16.5045 16.2292C16.4358 16.3194 16.2998 16.5303 16.2998 16.8357C16.2998 17.0038 16.3433 17.2164 16.4849 17.4154C16.6288 17.6179 16.8235 17.7348 17.0017 17.7905C17.3155 17.8886 17.5708 17.8026 17.6517 17.7723C17.8499 17.6979 17.9714 17.5799 18.01 17.5413L16.5958 16.1271C16.6324 16.0905 16.7522 15.9736 16.9494 15.8996C17.0298 15.8695 17.2847 15.7835 17.5982 15.8815C17.7763 15.9372 17.9708 16.054 18.1148 16.2564C18.2562 16.4553 18.2998 16.6678 18.2998 16.8357C18.2998 17.1409 18.1638 17.3515 18.0954 17.4413C18.011 17.5521 17.9154 17.6297 17.8305 17.6828C17.6552 17.7924 17.4682 17.8342 17.3029 17.8342V15.8342ZM16.5701 16.1537C16.4271 16.3078 16.284 16.4435 16.0892 16.6338L17.4867 18.0645C17.6549 17.9002 17.8495 17.7151 18.0357 17.5146L16.5701 16.1537ZM16.0977 16.6255C15.8176 16.8927 15.508 17.1965 15.2111 17.546L16.7355 18.8407C16.962 18.574 17.2095 18.329 17.4782 18.0728L16.0977 16.6255ZM15.2429 17.5103C15.0137 17.7554 14.7798 17.8645 14.3861 17.8645V19.8645C15.3094 19.8645 16.0801 19.5431 16.7036 18.8764L15.2429 17.5103ZM14.3861 17.8645C14.3162 17.8645 14.2827 17.8641 14.2585 17.8625L14.1254 19.8581C14.2278 19.8649 14.3294 19.8645 14.3861 19.8645V17.8645ZM14.2558 17.8624C13.2029 17.795 12.1824 17.3777 11.3309 16.9704L10.468 18.7747C11.364 19.2032 12.6736 19.7652 14.1281 19.8583L14.2558 17.8624ZM11.3352 16.9725C9.07595 15.8788 7.09006 14.3257 5.43562 12.3508L3.9025 13.6351C5.73472 15.8222 7.94464 17.5532 10.4637 18.7726L11.3352 16.9725ZM5.43866 12.3544C4.05581 10.6877 3.1582 9.18028 2.56768 7.5847L0.692012 8.27888C1.37627 10.1277 2.4035 11.8284 3.89946 13.6315L5.43866 12.3544ZM2.56664 7.5819C2.20559 6.61523 2.10634 5.94926 2.15373 5.37105L0.160419 5.20766C0.0811794 6.17438 0.268964 7.14621 0.693052 8.28167L2.56664 7.5819ZM2.15344 5.37451C2.17564 5.11485 2.26359 4.92589 2.4467 4.74278L1.03249 3.32857C0.51489 3.84617 0.222938 4.47611 0.160709 5.20419L2.15344 5.37451ZM2.4467 4.74278L3.88611 3.30337L2.47189 1.88916L1.03249 3.32857L2.4467 4.74278ZM3.86344 3.32534C3.90574 3.28563 3.92703 3.27626 3.92244 3.27842C3.91946 3.27982 3.90893 3.28443 3.8911 3.28869C3.87298 3.29302 3.84905 3.29657 3.82061 3.29657V1.29657C3.26803 1.29657 2.81583 1.5656 2.49457 1.8672L3.86344 3.32534ZM3.82061 3.29657C3.74787 3.29657 3.70351 3.27404 3.69711 3.27053C3.69376 3.26869 3.69606 3.26961 3.70335 3.27534C3.71052 3.28097 3.71956 3.28892 3.72979 3.29915L5.14401 1.88494C4.94674 1.68768 4.48785 1.29657 3.82061 1.29657V3.29657ZM3.72979 3.29915C3.7319 3.30126 3.734 3.30336 3.73611 3.30547C3.73822 3.30758 3.74034 3.3097 3.74246 3.31182L5.15667 1.8976C5.15457 1.8955 5.15246 1.8934 5.15035 1.89129C5.14824 1.88918 5.14612 1.88706 5.14401 1.88494L3.72979 3.29915ZM3.76682 3.33537C4.00501 3.55794 4.23536 3.79193 4.49095 4.05591L5.92779 2.66468C5.6684 2.39679 5.4091 2.13269 5.13231 1.87405L3.76682 3.33537ZM4.49113 4.05609C4.55982 4.127 4.62912 4.19739 4.69568 4.265C4.76315 4.33354 4.82802 4.39942 4.89248 4.46589L6.32828 3.0736C6.25766 3.00077 6.18744 2.92947 6.1209 2.86188C6.05344 2.79335 5.98977 2.72867 5.92761 2.6645L4.49113 4.05609ZM4.90327 4.47685L6.05564 5.62922L7.46985 4.21501L6.31748 3.06264L4.90327 4.47685ZM6.05564 5.62922C6.11584 5.68942 6.12891 5.71709 6.12524 5.70996C6.12272 5.70506 6.11566 5.69008 6.10933 5.66568C6.10287 5.64072 6.09833 5.61029 6.09833 5.57639C6.09833 5.5425 6.10287 5.51206 6.10933 5.4871C6.11566 5.4627 6.12272 5.44772 6.12524 5.44282C6.12891 5.43569 6.11584 5.46336 6.05564 5.52356L7.46985 6.93777C7.7886 6.61903 8.09833 6.164 8.09833 5.57639C8.09833 4.98878 7.7886 4.53375 7.46985 4.21501L6.05564 5.62922ZM6.05564 5.52356C5.9157 5.6635 5.82017 5.76321 5.70513 5.87428L7.09432 7.31309C7.22411 7.18778 7.36496 7.04266 7.46985 6.93777L6.05564 5.52356ZM5.68435 5.89495C5.33365 6.25399 5.01457 6.57255 4.67268 6.87907L6.00777 8.36821C6.40035 8.01624 6.75665 7.65941 7.1151 7.29242L5.68435 5.89495ZM4.63312 6.91654C4.66009 6.88956 4.68261 6.87045 4.69135 6.86312C4.69476 6.86026 4.69863 6.85709 4.69524 6.85987C4.69389 6.86099 4.68633 6.8672 4.6773 6.87494C4.64534 6.90233 4.51803 7.01085 4.42469 7.19753L6.21354 8.09196C6.12442 8.2702 6.00345 8.37239 5.97888 8.39345C5.97495 8.39682 5.97179 8.39947 5.96984 8.40109C5.96885 8.40192 5.96805 8.40259 5.96753 8.40301C5.96703 8.40343 5.96669 8.40371 5.96666 8.40373C5.96523 8.40491 5.97111 8.40008 5.97657 8.39551C5.98939 8.38475 6.01613 8.36195 6.04733 8.33075L4.63312 6.91654ZM4.61201 6.93764C4.27997 7.26968 4.09772 7.65445 4.05138 8.05476C4.00817 8.42802 4.09337 8.73729 4.14604 8.90408L6.0532 8.30182C6.0422 8.26697 6.03947 8.25257 6.03887 8.2487C6.03851 8.24641 6.04094 8.26034 6.03811 8.28474C6.0367 8.29689 6.03417 8.31003 6.03029 8.32338C6.02639 8.3368 6.02178 8.34815 6.01742 8.35696C6.00809 8.37583 6.00492 8.37316 6.02622 8.35185L4.61201 6.93764ZM4.15093 8.91917C4.15305 8.92551 4.15516 8.93185 4.15727 8.93818C4.15938 8.94451 4.16149 8.95084 4.1636 8.95716L6.06097 8.32471C6.05885 8.31837 6.05674 8.31204 6.05463 8.30571C6.05252 8.29937 6.05041 8.29305 6.0483 8.28672L4.15093 8.91917ZM4.18794 9.0225C4.53285 9.85806 5.01065 10.6215 5.6901 11.4842L7.26132 10.2468C6.65754 9.48011 6.29111 8.87588 6.03663 8.25938L4.18794 9.0225ZM5.7686 11.5726L5.77282 11.5768L7.18704 10.1626L7.18282 10.1584L5.7686 11.5726ZM5.70354 11.4999C6.92646 13.0064 8.23391 14.2023 9.69381 15.1256L10.7628 13.4352C9.51272 12.6447 8.36347 11.6033 7.25632 10.2394L5.70354 11.4999ZM9.69276 15.1249C9.91533 15.266 10.1374 15.3762 10.3003 15.4576L11.1947 13.6688C11.0199 13.5814 10.8874 13.5142 10.7638 13.4359L9.69276 15.1249ZM10.3003 15.4576C10.463 15.539 10.5623 15.5896 10.638 15.6366L11.6928 13.9373C11.5236 13.8323 11.3359 13.7394 11.1947 13.6688L10.3003 15.4576ZM10.7182 15.6813C10.6936 15.6691 10.6756 15.6585 10.6675 15.6538C10.6603 15.6495 10.6548 15.646 10.6607 15.6497C10.6632 15.6513 10.6772 15.66 10.6928 15.6693C10.7093 15.6791 10.7358 15.6944 10.7688 15.7109L11.6633 13.922C11.6878 13.9343 11.7059 13.9448 11.7139 13.9496C11.7212 13.9539 11.7267 13.9574 11.7207 13.9537C11.7182 13.9521 11.7043 13.9434 11.6886 13.9341C11.6721 13.9243 11.6456 13.909 11.6126 13.8925L10.7182 15.6813ZM10.7688 15.7109C11.0323 15.8426 11.3196 15.922 11.6339 15.922V13.922C11.6397 13.922 11.6464 13.9224 11.6534 13.9232C11.6604 13.9241 11.6663 13.9253 11.6709 13.9264C11.6803 13.9288 11.6785 13.9297 11.6633 13.922L10.7688 15.7109ZM11.6339 15.922C12.4193 15.922 12.8935 15.427 12.9827 15.3378L11.5684 13.9236C11.553 13.939 11.5502 13.9416 11.5473 13.944C11.5445 13.9464 11.545 13.9456 11.5491 13.9432C11.5534 13.9406 11.5636 13.9351 11.5795 13.9303C11.5964 13.9251 11.6155 13.922 11.6339 13.922V15.922ZM12.9827 15.3378L14.4263 13.8942L13.0121 12.48L11.5684 13.9236L12.9827 15.3378ZM14.4263 13.8942C14.4401 13.8804 14.4533 13.8686 14.465 13.8593C14.4769 13.8498 14.4836 13.8458 14.4844 13.8453C14.4892 13.8426 14.443 13.8705 14.3566 13.8705V11.8705C13.6755 11.8705 13.2003 12.2917 13.0121 12.48L14.4263 13.8942ZM14.3566 13.8705C14.2733 13.8705 14.2219 13.8439 14.2115 13.8379C14.2058 13.8347 14.2058 13.834 14.2103 13.8377C14.2146 13.8414 14.2201 13.8465 14.2255 13.8524L15.7034 12.5049C15.4989 12.2807 15.0347 11.8705 14.3566 11.8705V13.8705ZM14.2573 13.8858C14.2663 13.8948 14.2535 13.882 14.2615 13.89C14.2695 13.898 14.2567 13.8852 14.2658 13.8942L15.68 12.48C15.6709 12.471 15.6837 12.4838 15.6757 12.4758C15.6678 12.4678 15.6806 12.4806 15.6715 12.4716L14.2573 13.8858ZM14.2658 13.8942L16.5916 16.2201L18.0058 14.8058L15.68 12.48L14.2658 13.8942ZM16.5951 16.2235C16.6447 16.2726 16.6534 16.2943 16.6485 16.2845C16.6456 16.2787 16.6395 16.265 16.6343 16.2439C16.6289 16.2224 16.6254 16.1971 16.6253 16.1696C16.6253 16.1422 16.6287 16.1178 16.6334 16.0982C16.6381 16.0789 16.6432 16.0674 16.6447 16.0643C16.6469 16.0598 16.6347 16.0864 16.5824 16.1408L18.0235 17.5275C18.3447 17.1937 18.6267 16.7347 18.6253 16.1648C18.6239 15.5901 18.3354 15.1322 18.0024 14.8024L16.5951 16.2235Z" fill="#FFC149" mask="url(#path-1-inside-1)"/>
<path d="M10.9923 3.63464L10.9083 4.12754C12.1433 4.33792 13.2693 4.92186 14.1634 5.81595C15.0568 6.70937 15.6405 7.83433 15.8513 9.06823C15.8581 9.11327 15.8304 9.144 15.8004 9.15113L15.7905 9.15237L15.7778 9.15382C15.7732 9.15429 15.7747 9.15398 15.7791 9.15398C15.7411 9.15398 15.7158 9.12869 15.7108 9.09901L15.7108 9.09901L15.7104 9.09657C15.5029 7.88845 14.9349 6.78996 14.06 5.91508C13.186 5.04109 12.0874 4.46769 10.8767 4.26437L10.8767 4.26436L10.8739 4.26391C10.8588 4.26146 10.8469 4.2541 10.8374 4.24036C10.8272 4.22567 10.8224 4.20683 10.826 4.18663C10.8328 4.14896 10.8679 4.12101 10.9122 4.1282L10.9923 3.63464ZM10.9923 3.63464C12.3304 3.86258 13.5503 4.49575 14.5169 5.46239C15.4836 6.42903 16.1167 7.64894 16.3447 8.98704M10.9923 3.63464C10.6799 3.58399 10.3887 3.79083 10.3338 4.09897C10.2789 4.40711 10.4815 4.70681 10.7939 4.75746L16.3447 8.98704M16.3447 8.98704C16.3953 9.29941 16.1885 9.59488 15.8761 9.64554C15.8727 9.64596 15.8694 9.64639 15.866 9.64681C15.8364 9.65057 15.8094 9.65398 15.7791 9.65398C15.5047 9.65398 15.2641 9.45981 15.2176 9.18121L16.3447 8.98704Z" stroke="#FFC149"/>
<path d="M19.4693 8.90646L19.4693 8.90646L19.47 8.91008C19.4727 8.92531 19.4694 8.94085 19.4593 8.95497C19.45 8.96806 19.4383 8.97505 19.4262 8.97756L19.4227 8.978L19.4122 8.97931L19.3996 8.98076C19.3991 8.98081 19.3987 8.98085 19.3983 8.98088C19.3617 8.97981 19.3374 8.95499 19.3326 8.92595L19.3324 8.92458C18.9814 6.8543 18.0035 4.96623 16.5041 3.46682L16.5036 3.4663C15.0053 1.97251 13.1185 0.990286 11.0484 0.638904C11.0072 0.631279 10.9825 0.597179 10.9872 0.556852C10.997 0.51308 11.0355 0.496434 11.0608 0.500943L11.0644 0.501575C13.165 0.859718 15.0761 1.84901 16.599 3.37191C18.1219 4.89481 19.1112 6.80589 19.4693 8.90646Z" stroke="#FFC149"/>
</svg>
