<svg width="22" height="20" viewBox="0 0 22 20" fill="none" xmlns="http://www.w3.org/2000/svg">
<path d="M20.7416 0.687291C20.3974 0.250414 19.8637 0 19.2769 0C18.8979 0 18.5054 0.102477 18.1097 0.30435L1.26312 8.88701C0.065739 9.49802 -0.0175224 10.418 0.00230176 10.7848C0.021333 11.1538 0.204508 12.0592 1.46057 12.5438L3.61347 13.3713C4.02185 13.5285 4.4786 13.6094 4.97024 13.6094C5.04795 13.6094 5.12249 13.5994 5.19941 13.5956C5.17007 13.6325 5.13438 13.6611 5.10742 13.6996C4.70618 14.2829 4.68636 15.0734 5.04953 15.9248C5.05509 15.9394 5.06064 15.9518 5.06619 15.9641C5.70294 17.3348 6.41106 18.882 6.4967 19.097C6.70763 19.6317 7.24526 20 7.83523 20C8.74397 20 9.01357 19.5747 10.5004 17.2231C10.6162 17.0505 10.8739 16.6498 10.9175 16.1398C11.0911 16.2083 11.2545 16.2715 11.3941 16.3262L13.7793 17.2709C14.2575 17.4604 14.6761 17.6276 14.8966 17.7162C14.9648 17.7571 15.0369 17.7917 15.1123 17.8218C15.2804 17.8865 15.4596 17.9196 15.6396 17.9196C16.7244 17.9196 16.9845 17.0066 17.124 16.5173C17.193 16.2754 17.2882 15.9402 17.3905 15.5704L21.0286 2.58119C21.303 1.60034 20.966 0.973919 20.7416 0.687291ZM9.29904 16.4834C9.29904 16.4834 7.94941 18.6185 7.83443 18.6185C7.83126 18.6185 7.82968 18.6169 7.82809 18.6139C7.69566 18.2679 6.36189 15.3962 6.36189 15.3962C6.11607 14.8207 6.16048 14.3275 6.58313 14.3275C6.67591 14.3275 6.78692 14.3514 6.91697 14.4038L7.95258 14.927C8.12545 15.0418 8.31418 15.1412 8.52194 15.2206L8.57427 15.2398L8.67181 15.2876C9.47191 15.699 9.72645 15.8477 9.29904 16.4834ZM19.6568 2.21751L16.0202 15.2067C15.8148 15.9387 15.6436 16.5374 15.6404 16.5374C15.6372 16.5358 15.6333 16.5219 15.6333 16.5196C15.6333 16.515 15.0401 16.2792 14.3153 15.9911L11.9285 15.0464C11.2037 14.7613 10.0151 14.2998 9.28636 14.027L9.16582 13.98L8.72018 13.7551C8.27849 13.4261 8.23964 12.8836 8.6837 12.4236L16.0678 4.74092C16.3644 4.43349 16.4762 4.27476 16.412 4.27476C16.3612 4.27476 16.1971 4.37724 15.9227 4.58605L6.57996 11.7471C6.17238 12.0561 5.55307 12.2287 4.97103 12.2287C4.67288 12.2287 4.38344 12.1825 4.13683 12.0877L1.98551 11.2609C1.25836 10.9812 1.23061 10.465 1.92287 10.1106L18.771 1.52637C18.9653 1.42775 19.1358 1.38152 19.2769 1.38152C19.6393 1.38152 19.8043 1.68972 19.6568 2.21751Z" fill="#FFC149"/>
</svg>
