<svg width="68" height="36" viewBox="0 0 68 36" fill="none" xmlns="http://www.w3.org/2000/svg">
<path d="M2.38189 3.81067C2.94394 4.36962 3.65037 4.97378 4.51571 5.5477C6.96157 7.1694 11.2135 8.8687 17.5846 7.75297C22.2686 6.93298 26.3855 7.30071 29.4893 8.81687C31.8075 9.94945 32.7721 11.3411 32.7771 11.3484C33.1997 11.9899 34.1802 12.0002 34.6054 11.355C34.7242 11.1805 37.6081 7.08502 45.8261 7.33196C46.4313 7.35269 46.9342 6.88071 46.9526 6.28346C46.9711 5.68607 46.4965 5.18716 45.8928 5.16902C38.9734 4.95751 35.2644 7.57659 33.695 9.10743C31.8298 7.28228 26.9308 3.91866 17.2033 5.62214C12.714 6.40815 8.88655 5.79939 5.82858 3.8124C3.54456 2.32835 2.55362 0.580665 2.54619 0.567418C2.31887 0.150583 1.82856 -0.0744651 1.36023 0.0222926C0.9213 0.113003 0.574783 0.472388 0.503907 0.910533C0.473782 1.09656 -0.228859 5.53186 0.0769089 11.2485C0.492119 19.0062 2.49817 25.0936 6.03917 29.3413C6.44434 29.8274 7.20461 29.8622 7.65577 29.4183C8.05031 29.0301 8.08029 28.3888 7.72664 27.9647C1.76758 20.8157 1.96013 8.98764 2.38189 3.81067Z" fill="white"/>
<path d="M62.8885 5.54769C63.7539 4.97377 64.4603 4.36961 65.0224 3.81066C65.408 8.54426 65.602 18.8385 61.077 26.0321L61.0651 26.0249C58.8887 29.4846 55.8523 31.8292 52.0402 32.9939C47.063 34.5145 42.6378 34.0014 38.8881 31.4691C36.0507 29.5529 34.6631 27.133 34.6507 27.111C34.2429 26.3808 33.148 26.3823 32.7375 27.1087C32.7238 27.1329 31.3361 29.5528 28.4988 31.4691C24.7488 34.0015 20.3238 34.5144 15.3468 32.9939C13.6444 32.4738 12.0837 31.7143 10.7078 30.7366C10.2172 30.3881 9.53375 30.4986 9.18155 30.9843C8.82921 31.4697 8.94128 32.1458 9.43187 32.4943C10.9999 33.6084 12.7728 34.4722 14.7012 35.0615C21.783 37.2249 26.8299 35.2424 29.817 33.1983C31.6275 31.9594 32.9072 30.5613 33.6934 29.5517C34.4795 30.5613 35.7592 31.9594 37.5697 33.1983C39.6383 34.6142 42.6942 36.0003 46.7308 36C48.5226 36 50.5083 35.7267 52.6855 35.0615C55.6318 34.1615 58.1666 32.6424 60.2624 30.5313L60.837 29.9483C60.9657 29.8841 61.2681 29.4577 61.3651 29.3413C64.9061 25.0936 66.9121 19.0062 67.3274 11.2485C67.6331 5.53185 66.9305 1.09655 66.9004 0.910523C66.8295 0.472378 66.483 0.112993 66.044 0.0222824C65.5757 -0.0744753 65.0854 0.150573 64.8581 0.567408C64.8506 0.580655 63.8597 2.32834 61.5757 3.81239C58.5177 5.79938 54.6903 6.40814 50.201 5.62213C40.4735 3.91865 35.5745 7.28227 33.7093 9.10742C32.1399 7.57658 28.4309 4.9575 21.5115 5.16901C20.9078 5.18715 20.4332 5.68606 20.4517 6.28345C20.47 6.8807 20.973 7.35268 21.5781 7.33195C29.7962 7.08501 32.6801 11.1805 32.7988 11.355C33.2241 12.0002 34.2046 11.9898 34.6272 11.3484C34.6321 11.3411 35.5967 9.94944 37.915 8.81686C41.0188 7.3007 45.1357 6.93297 49.8197 7.75296C56.1908 8.86869 60.4427 7.16939 62.8885 5.54769Z" fill="white"/>
<path d="M18.176 13.2407C14.3627 12.8075 11.2091 13.5799 11.0767 13.613C10.5534 13.7439 10.2048 14.233 10.256 14.7647C10.2867 15.085 11.0849 22.6355 17.4454 24.9621C18.5819 25.3778 19.6814 25.5489 20.7233 25.5489C25.4843 25.5489 29.0264 21.9707 29.2059 21.7858C29.5292 21.453 29.6034 20.9538 29.3906 20.5428C27.221 16.3527 23.3431 13.8278 18.176 13.2407ZM18.204 22.9324C16.1115 22.167 14.5094 20.5538 13.4425 18.1379C12.9999 17.136 12.7432 16.1915 12.5994 15.5244C13.7439 15.3447 15.7602 15.1361 17.9896 15.3977C22.1183 15.8822 25.1594 17.7024 27.0424 20.8127C25.6836 21.9398 22.1354 24.3699 18.204 22.9324Z" fill="white"/>
<path d="M37.9964 20.5428C37.7836 20.9538 37.8578 21.453 38.1811 21.7858C38.3606 21.9707 41.9019 25.5489 46.6637 25.5489C47.7054 25.5489 48.8055 25.3775 49.9416 24.962C56.3023 22.6355 57.1003 15.085 57.131 14.7647C57.1822 14.233 56.8336 13.7439 56.3103 13.613C56.1779 13.5797 53.0234 12.8074 49.211 13.2407C44.0439 13.8278 40.166 16.3527 37.9964 20.5428ZM49.3974 15.3977C51.6274 15.1359 53.644 15.3446 54.7884 15.5245C54.3831 17.4076 53.0711 21.5103 49.183 22.9324C47.1253 23.6847 44.9362 23.4875 42.6765 22.3457C41.6614 21.8325 40.8516 21.2317 40.3449 20.8119C42.2282 17.7024 45.2693 15.8822 49.3974 15.3977Z" fill="white"/>
</svg>
