<svg width="18" height="10" viewBox="0 0 18 10" fill="none" xmlns="http://www.w3.org/2000/svg">
<path d="M0.621361 0.994088C0.767984 1.1399 0.952269 1.29751 1.17801 1.44723C1.81606 1.87028 2.92526 2.31357 4.58728 2.02251C5.8092 1.8086 6.88317 1.90453 7.69286 2.30005C8.29761 2.59551 8.54925 2.95854 8.55054 2.96045C8.66079 3.12779 8.91657 3.13049 9.0275 2.96218C9.05848 2.91666 9.81081 1.84827 11.9546 1.91268C12.1125 1.91809 12.2437 1.79497 12.2485 1.63916C12.2533 1.48332 12.1295 1.35317 11.972 1.34844C10.167 1.29326 9.19941 1.9765 8.78999 2.37585C8.30342 1.89973 7.02543 1.02226 4.48781 1.46665C3.31669 1.67169 2.31823 1.51288 1.5205 0.994539C0.924668 0.607395 0.666161 0.151478 0.664225 0.148022C0.604922 0.0392825 0.477016 -0.0194257 0.354843 0.00581545C0.240339 0.029479 0.149943 0.123232 0.131454 0.23753C0.123595 0.286059 -0.0597024 1.44309 0.0200632 2.93439C0.128379 4.95815 0.651696 6.54616 1.57544 7.65425C1.68113 7.78106 1.87946 7.79015 1.99716 7.67435C2.10008 7.57308 2.1079 7.40578 2.01565 7.29513C0.461109 5.43018 0.511337 2.3446 0.621361 0.994088Z" fill="white"/>
<path d="M16.4057 1.44722C16.6315 1.2975 16.8157 1.1399 16.9624 0.994085C17.063 2.22894 17.1136 4.91439 15.9331 6.79097L15.93 6.7891C15.3623 7.69162 14.5702 8.30327 13.5757 8.6071C12.2773 9.00379 11.1229 8.86992 10.1447 8.20933C9.40454 7.70946 9.04254 7.07817 9.03931 7.07243C8.93293 6.88195 8.64732 6.88233 8.54021 7.07183C8.53665 7.07814 8.17464 7.70943 7.43447 8.20933C6.45621 8.86995 5.30187 9.00375 4.00352 8.6071C3.5594 8.47143 3.15226 8.2733 2.79333 8.01826C2.66535 7.92732 2.48706 7.95617 2.39519 8.08286C2.30327 8.20948 2.33251 8.38587 2.46049 8.47676C2.86953 8.76741 3.33203 8.99274 3.83511 9.14648C5.68251 9.71084 6.99912 9.19366 7.77836 8.66044C8.25065 8.33722 8.58448 7.9725 8.78957 7.70913C8.99466 7.9725 9.32849 8.33722 9.80078 8.66044C10.3404 9.02978 11.1376 9.39138 12.1906 9.3913C12.6581 9.3913 13.1761 9.32001 13.744 9.14648C14.5126 8.91168 15.1739 8.51541 15.7206 7.96469L15.8705 7.81261C15.9041 7.79584 15.983 7.68462 16.0083 7.65425C16.932 6.54615 17.4553 4.95814 17.5637 2.93438C17.6434 1.44309 17.4601 0.286057 17.4523 0.237528C17.4338 0.123229 17.3434 0.0294763 17.2289 0.00581279C17.1067 -0.0194283 16.9788 0.0392798 16.9195 0.148019C16.9176 0.151475 16.6591 0.607393 16.0632 0.994536C15.2655 1.51288 14.267 1.67169 13.0959 1.46664C10.5583 1.02226 9.2803 1.89972 8.79373 2.37585C8.38431 1.9765 7.41676 1.29326 5.61169 1.34844C5.45421 1.35317 5.3304 1.48332 5.33522 1.63916C5.34001 1.79496 5.47122 1.91809 5.62908 1.91268C7.77291 1.84826 8.52524 2.91665 8.55622 2.96218C8.66715 3.13049 8.92293 3.12779 9.03318 2.96045C9.03447 2.95854 9.28611 2.59551 9.89086 2.30005C10.7006 1.90453 11.7745 1.8086 12.9964 2.02251C14.6585 2.31357 15.7677 1.87028 16.4057 1.44722Z" fill="white"/>
<path d="M4.74157 3.45408C3.7468 3.3411 2.92412 3.54258 2.88957 3.55122C2.75305 3.58536 2.66212 3.71295 2.67549 3.85167C2.6835 3.9352 2.8917 5.90491 4.55098 6.51186C4.84746 6.6203 5.13429 6.66493 5.40608 6.66493C6.64809 6.66493 7.57209 5.73149 7.61894 5.68326C7.70326 5.59642 7.72263 5.4662 7.66712 5.359C7.10113 4.26593 6.0895 3.60726 4.74157 3.45408ZM4.74886 5.98236C4.20299 5.78269 3.78507 5.36185 3.50674 4.73161C3.39129 4.47026 3.32432 4.22386 3.28681 4.04984C3.58537 4.00296 4.11134 3.94854 4.69294 4.01679C5.76998 4.14318 6.56331 4.61803 7.05455 5.42939C6.70006 5.72342 5.77446 6.35737 4.74886 5.98236Z" fill="white"/>
<path d="M9.9121 5.359C9.85659 5.4662 9.87595 5.59642 9.96028 5.68326C10.0071 5.73149 10.9309 6.66493 12.1731 6.66493C12.4449 6.66493 12.7319 6.62023 13.0282 6.51183C14.6876 5.90491 14.8957 3.9352 14.9037 3.85167C14.9171 3.71295 14.8262 3.58536 14.6896 3.55122C14.6551 3.54254 13.8322 3.34106 12.8376 3.45408C11.4897 3.60726 10.4781 4.26593 9.9121 5.359ZM12.8863 4.01679C13.468 3.9485 13.9941 4.00293 14.2926 4.04988C14.1869 4.5411 13.8446 5.61137 12.8304 5.98236C12.2936 6.17862 11.7225 6.12716 11.133 5.8293C10.8682 5.69543 10.6569 5.53869 10.5247 5.4292C11.0161 4.61803 11.8094 4.14318 12.8863 4.01679Z" fill="white"/>
</svg>
