<svg width="10" height="13" viewBox="0 0 10 13" fill="none" xmlns="http://www.w3.org/2000/svg">
<path d="M4.92213 1.71313C4.79233 1.71313 4.68799 1.81767 4.68799 1.94728C4.68799 2.06791 4.77874 2.16829 4.89869 2.1802C5.03756 2.19398 5.15627 2.08581 5.15627 1.94728C5.15627 1.81748 5.05174 1.71313 4.92213 1.71313Z" fill="white"/>
<path d="M9.60938 2.18164C8.9632 2.18164 8.4375 1.65594 8.4375 1.00977C8.4375 0.880344 8.33255 0.775391 8.20312 0.775391H1.64062C1.5112 0.775391 1.40625 0.880344 1.40625 1.00977C1.40625 1.65594 0.880547 2.18164 0.234375 2.18164C0.104953 2.18164 0 2.28659 0 2.41602V6.24078C0 9.22149 1.94285 11.8924 4.85456 12.7655C4.87652 12.7721 4.89919 12.7754 4.92188 12.7754C4.94456 12.7754 4.96727 12.7721 4.98921 12.7655C7.83785 11.911 9.84375 9.28669 9.84375 6.24078V2.41602C9.84375 2.28659 9.7388 2.18164 9.60938 2.18164ZM9.375 6.24078C9.375 9.04034 7.58857 11.4648 4.92188 12.2959C2.27644 11.4714 0.46875 9.02501 0.46875 6.24078V2.6337C1.1862 2.53062 1.75523 1.96159 1.85831 1.24414H7.98544C8.08852 1.96159 8.65755 2.53062 9.375 2.6337V6.24078Z" fill="white"/>
<path d="M8.76591 2.94313C8.27714 2.72907 7.89007 2.342 7.67602 1.85323C7.63866 1.76797 7.55442 1.71289 7.46133 1.71289H5.85891C5.72948 1.71289 5.62453 1.81784 5.62453 1.94727C5.62453 2.07669 5.72948 2.18164 5.85891 2.18164H7.31313C7.56075 2.66635 7.95279 3.05837 8.4375 3.30601V6.24078C8.4375 8.53445 7.06057 10.5135 4.92188 11.3057C2.78318 10.5135 1.40625 8.53445 1.40625 6.24078V3.30601C1.89096 3.05837 2.28298 2.66635 2.53062 2.18164H3.98484C4.11427 2.18164 4.21922 2.07669 4.21922 1.94727C4.21922 1.81784 4.11427 1.71289 3.98484 1.71289H2.38242C2.28933 1.71289 2.20509 1.76799 2.16773 1.85323C1.95368 2.342 1.56661 2.72907 1.07784 2.94313C0.992602 2.98048 0.9375 3.06474 0.9375 3.15781V6.24078C0.9375 8.75359 2.49166 10.9436 4.84369 11.7759C4.86898 11.7849 4.89541 11.7894 4.92188 11.7894C4.94834 11.7894 4.97477 11.7849 5.00006 11.7759C7.35012 10.9443 8.90625 8.75563 8.90625 6.24078V3.15781C8.90625 3.06472 8.85115 2.98048 8.76591 2.94313Z" fill="white"/>
<path d="M4.92212 4.19727C3.75901 4.19727 2.81274 5.14353 2.81274 6.30664C2.81274 7.46975 3.75901 8.41602 4.92212 8.41602C6.08523 8.41602 7.03149 7.46975 7.03149 6.30664C7.03149 5.14353 6.08523 4.19727 4.92212 4.19727ZM4.92212 7.94727C4.01748 7.94727 3.28149 7.21128 3.28149 6.30664C3.28149 5.402 4.01748 4.66602 4.92212 4.66602C5.82676 4.66602 6.56274 5.402 6.56274 6.30664C6.56274 7.21128 5.82676 7.94727 4.92212 7.94727Z" fill="white"/>
<path d="M6.02536 5.67214C5.93382 5.58064 5.78546 5.58064 5.69389 5.67214L4.68776 6.67829L4.38474 6.37529C4.29319 6.28379 4.14483 6.28379 4.05326 6.37529C3.96174 6.46681 3.96174 6.61522 4.05326 6.70677L4.52201 7.17552C4.56781 7.22124 4.62776 7.24414 4.68776 7.24414C4.74776 7.24414 4.80771 7.22124 4.85349 7.17549L6.02536 6.00362C6.11689 5.91209 6.11689 5.76369 6.02536 5.67214Z" fill="white"/>
</svg>
