<svg width="38" height="46" viewBox="0 0 38 46" fill="none" xmlns="http://www.w3.org/2000/svg">
<path d="M18.8673 3.59467C18.3697 3.59467 17.9697 3.99537 17.9697 4.4922C17.9697 4.95463 18.3176 5.33943 18.7774 5.38507C19.3097 5.4379 19.7648 5.02327 19.7648 4.4922C19.7648 3.99465 19.3641 3.59467 18.8673 3.59467Z" fill="white"/>
<path d="M36.8359 5.39062C34.3589 5.39062 32.3438 3.37543 32.3438 0.898438C32.3438 0.40232 31.9414 0 31.4453 0H6.28906C5.79295 0 5.39062 0.40232 5.39062 0.898438C5.39062 3.37543 3.37543 5.39062 0.898438 5.39062C0.40232 5.39062 0 5.79295 0 6.28906V20.9507C0 32.3767 7.4476 42.6151 18.6092 45.9622C18.6933 45.9873 18.7802 46 18.8672 46C18.9542 46 19.0412 45.9873 19.1253 45.9621C30.0451 42.6865 37.7344 32.6267 37.7344 20.9507V6.28906C37.7344 5.79295 37.3321 5.39062 36.8359 5.39062ZM35.9375 20.9507C35.9375 31.6823 29.0895 40.9761 18.8672 44.1621C8.72634 41.0015 1.79688 31.6236 1.79688 20.9507V7.12353C4.54708 6.7284 6.7284 4.54708 7.12353 1.79688H30.6108C31.006 4.54708 33.1873 6.7284 35.9375 7.12353V20.9507Z" fill="white"/>
<path d="M33.6026 8.30965C31.729 7.48911 30.2453 6.00534 29.4247 4.13173C29.2815 3.80488 28.9586 3.59375 28.6018 3.59375H22.4591C21.963 3.59375 21.5607 3.99607 21.5607 4.49219C21.5607 4.9883 21.963 5.39063 22.4591 5.39063H28.0337C28.9829 7.24868 30.4857 8.75141 32.3438 9.7007V20.9507C32.3438 29.743 27.0655 37.3295 18.8672 40.3663C10.6689 37.3294 5.39062 29.743 5.39062 20.9507V9.7007C7.24868 8.75141 8.75141 7.24868 9.7007 5.39063H15.2752C15.7714 5.39063 16.1737 4.9883 16.1737 4.49219C16.1737 3.99607 15.7714 3.59375 15.2752 3.59375H9.13262C8.77576 3.59375 8.45286 3.80497 8.30965 4.13173C7.48911 6.00534 6.00534 7.48911 4.13173 8.30965C3.80497 8.45286 3.59375 8.77585 3.59375 9.13262V20.9507C3.59375 30.5831 9.55138 38.9781 18.5675 42.1687C18.6644 42.203 18.7658 42.2202 18.8672 42.2202C18.9686 42.2202 19.07 42.203 19.1669 42.1687C28.1754 38.9808 34.1406 30.5909 34.1406 20.9507V9.13262C34.1406 8.77576 33.9294 8.45286 33.6026 8.30965Z" fill="white"/>
<path d="M18.8672 13.1172C14.4086 13.1172 10.7812 16.7445 10.7812 21.2031C10.7812 25.6617 14.4086 29.2891 18.8672 29.2891C23.3258 29.2891 26.9531 25.6617 26.9531 21.2031C26.9531 16.7445 23.3258 13.1172 18.8672 13.1172ZM18.8672 27.4922C15.3994 27.4922 12.5781 24.6709 12.5781 21.2031C12.5781 17.7353 15.3994 14.9141 18.8672 14.9141C22.335 14.9141 25.1562 17.7353 25.1562 21.2031C25.1562 24.6709 22.335 27.4922 18.8672 27.4922Z" fill="white"/>
<path d="M23.0963 18.7709C22.7454 18.4201 22.1767 18.4201 21.8256 18.7709L17.9688 22.6278L16.8072 21.4663C16.4563 21.1155 15.8876 21.1155 15.5366 21.4663C15.1857 21.8171 15.1857 22.386 15.5366 22.7369L17.3334 24.5338C17.509 24.7091 17.7388 24.7969 17.9688 24.7969C18.1988 24.7969 18.4286 24.7091 18.6041 24.5337L23.0963 20.0415C23.4471 19.6907 23.4471 19.1218 23.0963 18.7709Z" fill="white"/>
</svg>
