<svg width="48" height="46" viewBox="0 0 48 46" fill="none" xmlns="http://www.w3.org/2000/svg">
<path d="M47.8284 25.2135C47.3982 20.8857 45.4647 16.8058 42.3841 13.725C39.7514 11.0924 36.529 9.40067 33.1384 8.64843V6.27033C34.5233 5.9258 35.5526 4.67226 35.5526 3.18229C35.5526 1.42754 34.1251 0 32.3703 0H25.6314C23.8766 0 22.4491 1.42754 22.4491 3.18229C22.4491 4.67216 23.4785 5.9257 24.8632 6.27033V8.65508C21.483 9.4105 18.2713 11.0999 15.6461 13.7251C15.0716 14.2996 14.5418 14.9023 14.0569 15.5286C14.0334 15.5269 14.0099 15.5251 13.986 15.5251H7.31618C6.79934 15.5251 6.38021 15.9441 6.38021 16.4611C6.38021 16.978 6.79934 17.397 7.31618 17.397H12.7834C12.0971 18.5459 11.5438 19.7525 11.1226 20.9945H0.935968C0.419126 20.9945 0 21.4135 0 21.9305C0 22.4474 0.419126 22.8664 0.935968 22.8664H10.5937C10.3239 24.0505 10.1691 25.2556 10.1291 26.464H5.99019C5.47335 26.464 5.05423 26.883 5.05423 27.4C5.05423 27.9169 5.47335 28.336 5.99019 28.336H10.159C10.238 29.5475 10.4328 30.7526 10.7434 31.9335H4.67984C4.163 31.9335 3.74387 32.3526 3.74387 32.8695C3.74387 33.3864 4.163 33.8055 4.67984 33.8055H11.3407C12.2589 36.2344 13.6939 38.5109 15.6461 40.4632C18.7297 43.5468 22.8139 45.4807 27.1461 45.9087C27.7645 45.9698 28.3832 46 29.0011 46C32.6535 46 36.2594 44.943 39.3191 42.9505C39.7522 42.6684 39.8747 42.0886 39.5926 41.6554C39.3105 41.2223 38.7307 41.0997 38.2976 41.3818C31.6 45.7432 22.6304 44.8002 16.9697 39.1395C10.3279 32.4977 10.3279 21.6908 16.9697 15.0489C23.6115 8.40714 34.4184 8.40714 41.0603 15.0489C46.7135 20.7021 47.6616 29.6641 43.3147 36.3583C43.0332 36.7919 43.1564 37.3716 43.5899 37.653C44.0236 37.9346 44.6032 37.8113 44.8846 37.3778C47.2071 33.801 48.2526 29.481 47.8284 25.2135ZM24.321 3.18238C24.321 2.45982 24.9088 1.87203 25.6314 1.87203H32.3703C33.0929 1.87203 33.6807 2.45982 33.6807 3.18238C33.6807 3.90495 33.0929 4.49274 32.3703 4.49274H32.2024H25.7992H25.6314C24.9088 4.49274 24.321 3.90486 24.321 3.18238ZM26.7352 8.33329V6.36467H31.2665V8.32992C29.7618 8.15097 28.2395 8.15209 26.7352 8.33329Z" fill="white"/>
<path d="M41.7226 38.8649C41.4755 38.8649 41.2349 38.9651 41.0609 39.1392C40.8859 39.3133 40.7866 39.5547 40.7866 39.8009C40.7866 40.047 40.8859 40.2885 41.0609 40.4626C41.2349 40.6376 41.4756 40.7368 41.7226 40.7368C41.9687 40.7368 42.2093 40.6376 42.3843 40.4626C42.5584 40.2885 42.6585 40.047 42.6585 39.8009C42.6585 39.5547 42.5585 39.3133 42.3843 39.1392C42.2093 38.9651 41.9686 38.8649 41.7226 38.8649Z" fill="white"/>
<path d="M29.0152 12.5743C21.0091 12.5743 14.4956 19.0877 14.4956 27.0939C14.4956 35.1001 21.0091 41.6135 29.0152 41.6135C37.0213 41.6135 43.5347 35.1001 43.5347 27.0939C43.5347 19.0877 37.0213 12.5743 29.0152 12.5743ZM29.0152 39.7416C22.0412 39.7416 16.3675 34.0678 16.3675 27.0939C16.3675 20.12 22.0412 14.4463 29.0152 14.4463C35.9892 14.4463 41.6628 20.12 41.6628 27.0939C41.6628 34.0678 35.9892 39.7416 29.0152 39.7416Z" fill="white"/>
<path d="M34.9357 19.85L30.2999 24.4858C29.9122 24.2941 29.4761 24.1858 29.0152 24.1858C28.5541 24.1858 28.1182 24.2941 27.7305 24.4858L25.6557 22.411C25.2901 22.0456 24.6977 22.0456 24.332 22.411C23.9665 22.7765 23.9665 23.3692 24.332 23.7347L26.4067 25.8095C26.215 26.1971 26.1068 26.6332 26.1068 27.0942C26.1068 28.6979 27.4114 30.0026 29.0152 30.0026C30.619 30.0026 31.9236 28.6979 31.9236 27.0942C31.9236 26.6332 31.8153 26.1971 31.6236 25.8095L36.1234 21.3097L36.2594 21.1737C36.6249 20.8082 36.6249 20.2155 36.2594 19.85C35.8939 19.4846 35.3014 19.4846 34.9357 19.85ZM29.0152 28.1307C28.4437 28.1307 27.9787 27.6658 27.9787 27.0943C27.9787 26.5228 28.4437 26.0578 29.0152 26.0578C29.5867 26.0578 30.0517 26.5228 30.0517 27.0943C30.0517 27.6658 29.5867 28.1307 29.0152 28.1307Z" fill="white"/>
<path d="M39.0224 26.1696H38.1552C37.6384 26.1696 37.2192 26.5886 37.2192 27.1055C37.2192 27.6224 37.6384 28.0415 38.1552 28.0415H39.0224C39.5392 28.0415 39.9583 27.6224 39.9583 27.1055C39.9583 26.5886 39.5392 26.1696 39.0224 26.1696Z" fill="white"/>
<path d="M19.875 26.1464H19.008C18.4911 26.1464 18.072 26.5654 18.072 27.0824C18.072 27.5993 18.4911 28.0183 19.008 28.0183H19.875C20.3919 28.0183 20.811 27.5993 20.811 27.0824C20.811 26.5654 20.3919 26.1464 19.875 26.1464Z" fill="white"/>
<path d="M29.0265 18.8897C29.5434 18.8897 29.9625 18.4707 29.9625 17.9538V17.0867C29.9625 16.5698 29.5434 16.1508 29.0265 16.1508C28.5097 16.1508 28.0906 16.5698 28.0906 17.0867V17.9538C28.0906 18.4707 28.5097 18.8897 29.0265 18.8897Z" fill="white"/>
<path d="M29.0038 35.2984C28.487 35.2984 28.0679 35.7174 28.0679 36.2344V37.1014C28.0679 37.6183 28.487 38.0374 29.0038 38.0374C29.5207 38.0374 29.9398 37.6183 29.9398 37.1014V36.2344C29.9398 35.7174 29.5207 35.2984 29.0038 35.2984Z" fill="white"/>
<path d="M0.935953 31.933C0.689797 31.933 0.448322 32.0332 0.274234 32.2073C0.100147 32.3814 0 32.6228 0 32.869C0 33.1161 0.100053 33.3566 0.274234 33.5307C0.448415 33.7048 0.689797 33.805 0.935953 33.805C1.18211 33.805 1.42358 33.7048 1.59758 33.5307C1.77167 33.3566 1.87191 33.1152 1.87191 32.869C1.87191 32.6228 1.77176 32.3814 1.59758 32.2073C1.42358 32.0332 1.18211 31.933 0.935953 31.933Z" fill="white"/>
</svg>
