<svg width="13" height="12" viewBox="0 0 13 12" fill="none" xmlns="http://www.w3.org/2000/svg">
<path d="M12.477 6.57743C12.3647 5.44845 11.8604 4.38411 11.0567 3.58044C10.3699 2.89368 9.52931 2.45235 8.6448 2.25611V1.63574C9.00607 1.54586 9.2746 1.21885 9.2746 0.830162C9.2746 0.372401 8.9022 0 8.44444 0H6.68645C6.22869 0 5.85628 0.372401 5.85628 0.830162C5.85628 1.21882 6.12482 1.54584 6.48606 1.63574V2.25785C5.60426 2.45491 4.76643 2.89563 4.08159 3.58047C3.93172 3.73034 3.79353 3.88755 3.66702 4.05095C3.66089 4.05049 3.65477 4.05002 3.64852 4.05002H1.90857C1.77374 4.05002 1.6644 4.15933 1.6644 4.29419C1.6644 4.42904 1.77374 4.53835 1.90857 4.53835H3.33479C3.15577 4.83807 3.01141 5.15282 2.90154 5.47683H0.244165C0.109337 5.47683 0 5.58614 0 5.72099C0 5.85584 0.109337 5.96516 0.244165 5.96516H2.76356C2.69319 6.27405 2.65281 6.58841 2.64238 6.90366H1.56266C1.42783 6.90366 1.31849 7.01297 1.31849 7.14782C1.31849 7.28267 1.42783 7.39199 1.56266 7.39199H2.65017C2.67078 7.70803 2.72159 8.02242 2.80263 8.33049H1.22083C1.086 8.33049 0.976662 8.4398 0.976662 8.57465C0.976662 8.7095 1.086 8.81882 1.22083 8.81882H2.95846C3.19798 9.45245 3.57231 10.0463 4.08159 10.5556C4.88602 11.36 5.95146 11.8645 7.0816 11.9762C7.2429 11.9921 7.40432 12 7.56552 12C8.5183 12 9.45897 11.7243 10.2571 11.2045C10.3701 11.1309 10.4021 10.9796 10.3285 10.8666C10.2549 10.7536 10.1037 10.7217 9.99066 10.7953C8.24349 11.933 5.90358 11.687 4.42689 10.2103C2.69424 8.47767 2.69424 5.65846 4.42689 3.92579C6.15951 2.19317 8.97872 2.19317 10.7114 3.92579C12.1861 5.40055 12.4335 7.73846 11.2995 9.48478C11.226 9.59787 11.2582 9.74911 11.3713 9.82253C11.4844 9.89598 11.6356 9.86382 11.709 9.75072C12.3149 8.81764 12.5876 7.6907 12.477 6.57743ZM6.34461 0.830187C6.34461 0.641691 6.49795 0.488355 6.68645 0.488355H8.44444C8.63293 0.488355 8.78627 0.641691 8.78627 0.830187C8.78627 1.01868 8.63293 1.17202 8.44444 1.17202H8.40063H6.73023H6.68645C6.49795 1.17202 6.34461 1.01866 6.34461 0.830187ZM6.97439 2.1739V1.66035H8.15647V2.17302C7.76395 2.12634 7.36684 2.12663 6.97439 2.1739Z" fill="white"/>
<path d="M10.8841 10.1387C10.8196 10.1387 10.7568 10.1648 10.7115 10.2102C10.6658 10.2556 10.6399 10.3186 10.6399 10.3828C10.6399 10.447 10.6658 10.51 10.7115 10.5555C10.7568 10.6011 10.8196 10.627 10.8841 10.627C10.9483 10.627 11.011 10.6011 11.0567 10.5555C11.1021 10.51 11.1282 10.447 11.1282 10.3828C11.1282 10.3186 11.1021 10.2556 11.0567 10.2102C11.011 10.1648 10.9482 10.1387 10.8841 10.1387Z" fill="white"/>
<path d="M7.56921 3.28027C5.48067 3.28027 3.78149 4.97942 3.78149 7.06799C3.78149 9.15656 5.48067 10.8557 7.56921 10.8557C9.65775 10.8557 11.3569 9.15656 11.3569 7.06799C11.3569 4.97942 9.65775 3.28027 7.56921 3.28027ZM7.56921 10.3674C5.74991 10.3674 4.26983 8.88727 4.26983 7.06799C4.26983 5.24871 5.74991 3.7686 7.56921 3.7686C9.38851 3.7686 10.8686 5.24871 10.8686 7.06799C10.8686 8.88727 9.38851 10.3674 7.56921 10.3674Z" fill="white"/>
<path d="M9.11358 5.17826L7.90423 6.38759C7.8031 6.33758 7.68935 6.30933 7.56909 6.30933C7.44882 6.30933 7.33509 6.33758 7.23395 6.38759L6.69271 5.84635C6.59734 5.751 6.44278 5.751 6.34739 5.84635C6.25204 5.94169 6.25204 6.0963 6.34739 6.19165L6.88863 6.73289C6.8386 6.83402 6.81037 6.94778 6.81037 7.06803C6.81037 7.48638 7.15072 7.82675 7.56909 7.82675C7.98747 7.82675 8.32781 7.48638 8.32781 7.06803C8.32781 6.94778 8.29956 6.83402 8.24956 6.73289L9.42341 5.55904L9.45888 5.52356C9.55423 5.42821 9.55423 5.27361 9.45888 5.17826C9.36354 5.08291 9.20898 5.08291 9.11358 5.17826ZM7.56909 7.33844C7.42001 7.33844 7.29871 7.21714 7.29871 7.06805C7.29871 6.91897 7.42001 6.79766 7.56909 6.79766C7.71818 6.79766 7.83948 6.91897 7.83948 7.06805C7.83948 7.21714 7.71818 7.33844 7.56909 7.33844Z" fill="white"/>
<path d="M10.1799 6.82684H9.95363C9.81881 6.82684 9.70947 6.93615 9.70947 7.071C9.70947 7.20586 9.81881 7.31517 9.95363 7.31517H10.1799C10.3147 7.31517 10.424 7.20586 10.424 7.071C10.424 6.93615 10.3147 6.82684 10.1799 6.82684Z" fill="white"/>
<path d="M5.18495 6.8208H4.95876C4.82394 6.8208 4.7146 6.93011 4.7146 7.06496C4.7146 7.19981 4.82394 7.30912 4.95876 7.30912H5.18495C5.31978 7.30912 5.42911 7.19981 5.42911 7.06496C5.42911 6.93011 5.31978 6.8208 5.18495 6.8208Z" fill="white"/>
<path d="M7.57204 4.92777C7.70687 4.92777 7.8162 4.81846 7.8162 4.68361V4.45742C7.8162 4.32257 7.70687 4.21326 7.57204 4.21326C7.43722 4.21326 7.32788 4.32257 7.32788 4.45742V4.68361C7.32788 4.81846 7.43722 4.92777 7.57204 4.92777Z" fill="white"/>
<path d="M7.56618 9.20831C7.43136 9.20831 7.32202 9.31762 7.32202 9.45247V9.67867C7.32202 9.81352 7.43136 9.92283 7.56618 9.92283C7.70101 9.92283 7.81034 9.81352 7.81034 9.67867V9.45247C7.81034 9.31762 7.70101 9.20831 7.56618 9.20831Z" fill="white"/>
<path d="M0.244162 8.33038C0.179947 8.33038 0.116953 8.35651 0.0715394 8.40192C0.0261253 8.44734 0 8.51033 0 8.57454C0 8.639 0.0261009 8.70175 0.0715394 8.74717C0.116978 8.79258 0.179947 8.81871 0.244162 8.81871C0.308376 8.81871 0.37137 8.79258 0.416759 8.74717C0.462174 8.70175 0.488323 8.63876 0.488323 8.57454C0.488323 8.51033 0.462198 8.44734 0.416759 8.40192C0.37137 8.35651 0.308376 8.33038 0.244162 8.33038Z" fill="white"/>
</svg>
