<svg width="28" height="26" viewBox="0 0 28 26" fill="none" xmlns="http://www.w3.org/2000/svg">
<path d="M23.4649 8.27277H12.35C10.2505 8.27277 8.64497 9.80913 8.64497 11.8182V22.4546C8.64497 24.4636 10.2505 26 12.35 26H23.4649C25.5644 26 27.1699 24.4636 27.1699 22.4546V11.8182C27.1699 9.80913 25.5644 8.27277 23.4649 8.27277ZM24.6999 22.4546C24.6999 23.1636 24.2059 23.6364 23.4649 23.6364H12.35C11.609 23.6364 11.115 23.1636 11.115 22.4546V11.8182C11.115 11.1091 11.609 10.6364 12.35 10.6364H23.4649C24.2059 10.6364 24.6999 11.1091 24.6999 11.8182V22.4546Z" fill="#FFC149"/>
<path d="M4.93999 15.3636H3.70499C2.96399 15.3636 2.46999 14.8909 2.46999 14.1818V3.54545C2.46999 2.83636 2.96399 2.36363 3.70499 2.36363H14.82C15.561 2.36363 16.055 2.83636 16.055 3.54545V4.72726C16.055 5.43635 16.549 5.90908 17.29 5.90908C18.031 5.90908 18.525 5.43635 18.525 4.72726V3.54545C18.525 1.53636 16.9195 0 14.82 0H3.70499C1.6055 0 0 1.53636 0 3.54545V14.1818C0 16.1909 1.6055 17.7272 3.70499 17.7272H4.93999C5.68099 17.7272 6.17499 17.2545 6.17499 16.5454C6.17499 15.8363 5.68099 15.3636 4.93999 15.3636Z" fill="#FFC149"/>
</svg>
