<svg width="30" height="30" viewBox="0 0 30 30" fill="none" xmlns="http://www.w3.org/2000/svg">
<path d="M15 30C23.2843 30 30 23.2843 30 15C30 6.71573 23.2843 0 15 0C6.71573 0 0 6.71573 0 15C0 23.2843 6.71573 30 15 30Z" fill="url(#paint0_linear)"/>
<path d="M20.3077 14.0451C20.3073 14.0416 20.307 14.0381 20.3065 14.0346C20.304 14.0175 20.3008 14.0005 20.2962 13.9836C20.2961 13.9835 20.296 13.9833 20.296 13.9831C20.2917 13.9673 20.2862 13.9518 20.2799 13.9364C20.2782 13.932 20.2762 13.9278 20.2743 13.9235C20.2694 13.9124 20.2639 13.9014 20.258 13.8907C20.2554 13.886 20.2529 13.8813 20.2501 13.8767C20.2487 13.8742 20.2475 13.8716 20.2459 13.8691C20.2396 13.8591 20.2328 13.8498 20.2258 13.8405C20.2245 13.8388 20.2235 13.8369 20.2221 13.8353C20.2116 13.8215 20.2001 13.8088 20.1881 13.7967C20.1859 13.7944 20.1834 13.7923 20.1811 13.7901C20.1707 13.7801 20.1599 13.7707 20.1486 13.7618C20.1458 13.7596 20.143 13.7573 20.14 13.7552C20.1249 13.744 20.1094 13.7336 20.0932 13.7246L13.8549 10.1786L17.4467 7.91684L23.4683 11.3396L20.9322 12.9365C20.7343 13.061 20.6749 13.3225 20.7995 13.5204C20.9241 13.7183 21.1855 13.7777 21.3835 13.6531L24.518 11.6793C24.644 11.6 24.7191 11.4603 24.7157 11.3114C24.7123 11.1626 24.6311 11.0265 24.5016 10.9529L17.6448 7.05532C17.5091 6.97817 17.342 6.98198 17.2099 7.0651L12.808 9.83696C12.8071 9.83751 12.8062 9.8381 12.8053 9.83865L10.6057 11.2238C10.6047 11.2244 10.6037 11.225 10.6027 11.2257L6.19781 13.9994C6.0718 14.0787 5.99672 14.2184 6.00011 14.3673C6.00346 14.5162 6.08471 14.6523 6.2142 14.7259L13.0711 18.6234C13.136 18.6604 13.2082 18.6788 13.2803 18.6788C13.3588 18.6788 13.4371 18.657 13.5059 18.6136L16.6404 16.6398C16.8383 16.5153 16.8977 16.2538 16.7731 16.0559C16.6486 15.858 16.3871 15.7986 16.1892 15.9232L13.2692 17.7619L7.2476 14.3391L10.8394 12.0774L17.2617 15.7279V20.5628C17.2617 20.717 17.3455 20.859 17.4805 20.9335C17.5443 20.9687 17.6148 20.9862 17.6851 20.9862C17.7636 20.9862 17.842 20.9644 17.9107 20.9211L20.1132 19.5342C20.2363 19.4567 20.311 19.3214 20.311 19.1759V14.0946C20.311 14.0922 20.3106 14.0898 20.3105 14.0873C20.3103 14.0732 20.3093 14.0592 20.3077 14.0451ZM18.1086 19.7958V15.4816C18.1086 15.3293 18.0268 15.1887 17.8943 15.1135L11.6524 11.5655L13.0419 10.6905L19.0634 14.1133L18.5361 14.4453C18.3382 14.5698 18.2788 14.8313 18.4034 15.0292C18.4839 15.1571 18.6215 15.227 18.7622 15.227C18.8392 15.227 18.9173 15.206 18.9874 15.1619L19.4641 14.8617V18.9422L18.1086 19.7958Z" fill="white"/>
<path d="M24.067 12.6564L20.9325 14.6301C20.7346 14.7547 20.6752 15.0162 20.7998 15.2141C20.8803 15.3419 21.0178 15.4119 21.1585 15.4119C21.2356 15.4119 21.3137 15.3909 21.3837 15.3468L24.5182 13.373C24.7162 13.2484 24.7756 12.987 24.6509 12.7891C24.5264 12.5912 24.2649 12.5317 24.067 12.6564Z" fill="white"/>
<path d="M16.1893 17.6169L13.2692 19.4556L6.63275 15.6833C6.42958 15.5678 6.17095 15.6388 6.05539 15.8422C5.93983 16.0455 6.01093 16.304 6.21426 16.4195L13.0711 20.3171C13.1361 20.3541 13.2082 20.3725 13.2804 20.3725C13.3588 20.3725 13.4372 20.3506 13.506 20.3073L16.6405 18.3335C16.8384 18.2089 16.8978 17.9475 16.7732 17.7496C16.6487 17.5516 16.3871 17.4922 16.1893 17.6169Z" fill="white"/>
<path d="M24.067 14.3501L20.9325 16.3239C20.7346 16.4485 20.6752 16.7099 20.7998 16.9078C20.8803 17.0357 21.0178 17.1057 21.1585 17.1057C21.2356 17.1057 21.3137 17.0846 21.3837 17.0405L24.5182 15.0667C24.7162 14.9422 24.7756 14.6807 24.6509 14.4828C24.5264 14.2849 24.2649 14.2255 24.067 14.3501Z" fill="white"/>
<path d="M16.1893 19.3107L13.2692 21.1494L6.63275 17.3772C6.42958 17.2617 6.17095 17.3326 6.05539 17.536C5.93983 17.7393 6.01093 17.9978 6.21426 18.1134L13.0711 22.011C13.1361 22.0479 13.2082 22.0663 13.2804 22.0663C13.3588 22.0663 13.4372 22.0445 13.506 22.0012L16.6405 20.0274C16.8384 19.9028 16.8978 19.6413 16.7732 19.4435C16.6487 19.2455 16.3871 19.186 16.1893 19.3107Z" fill="white"/>
<path d="M24.067 16.0439L20.9325 18.0177C20.7346 18.1423 20.6752 18.4037 20.7998 18.6016C20.8803 18.7295 21.0178 18.7995 21.1585 18.7995C21.2356 18.7995 21.3137 18.7784 21.3837 18.7343L24.5182 16.7606C24.7162 16.636 24.7756 16.3745 24.6509 16.1766C24.5264 15.9787 24.2649 15.9193 24.067 16.0439Z" fill="white"/>
<path d="M16.1893 21.0044L13.2692 22.8432L6.63275 19.0709C6.42958 18.9554 6.17095 19.0263 6.05539 19.2298C5.93983 19.4331 6.01093 19.6916 6.21426 19.8071L13.0711 23.7047C13.1361 23.7416 13.2082 23.76 13.2804 23.76C13.3588 23.76 13.4372 23.7382 13.506 23.6949L16.6405 21.7211C16.8384 21.5965 16.8978 21.335 16.7732 21.1372C16.6487 20.9392 16.3871 20.8798 16.1893 21.0044Z" fill="white"/>
<defs>
<linearGradient id="paint0_linear" x1="0" y1="0" x2="30" y2="30" gradientUnits="userSpaceOnUse">
<stop stop-color="#5CA126"/>
<stop offset="1" stop-color="#578100"/>
</linearGradient>
</defs>
</svg>
