<svg width="25" height="20" viewBox="0 0 25 20" fill="none" xmlns="http://www.w3.org/2000/svg">
<path d="M11.4361 13.8775H4.90549C4.66059 13.8775 4.49734 13.7142 4.49734 13.4693V9.79584C4.49734 9.55094 4.66059 9.3877 4.90549 9.3877H11.4361C11.681 9.3877 11.8442 9.55094 11.8442 9.79584V13.4693C11.8443 13.7142 11.681 13.8775 11.4361 13.8775ZM11.0279 10.204H5.31364V13.0611H11.0279V10.204Z" fill="url(#paint0_linear)"/>
<path d="M22.4566 8.57142H19.1913C18.9464 8.57142 18.7831 8.40817 18.7831 8.16327C18.7831 7.91838 18.9464 7.75513 19.1913 7.75513H22.4566C22.7015 7.75513 22.8647 7.91838 22.8647 8.16327C22.8647 8.40817 22.7015 8.57142 22.4566 8.57142Z" fill="url(#paint1_linear)"/>
<path d="M17.5586 8.57142H14.2932C14.0484 8.57142 13.8851 8.40817 13.8851 8.16327C13.8851 7.91838 14.0484 7.75513 14.2932 7.75513H17.5586C17.8035 7.75513 17.9667 7.91838 17.9667 8.16327C17.9667 8.40817 17.8035 8.57142 17.5586 8.57142Z" fill="url(#paint2_linear)"/>
<path d="M22.4566 10.204H17.1505C16.9056 10.204 16.7423 10.0407 16.7423 9.79584C16.7423 9.55094 16.9056 9.3877 17.1505 9.3877H22.4566C22.7015 9.3877 22.8647 9.55094 22.8647 9.79584C22.8647 10.0407 22.7015 10.204 22.4566 10.204Z" fill="url(#paint3_linear)"/>
<path d="M14.2933 9.3877H15.5177C15.7626 9.3877 15.9259 9.55095 15.9259 9.79584C15.9259 10.0407 15.7626 10.204 15.5177 10.204H14.2933C14.0484 10.204 13.8851 10.0407 13.8851 9.79584C13.8851 9.55095 14.0484 9.3877 14.2933 9.3877Z" fill="url(#paint4_linear)"/>
<path d="M0.374924 4.32652C0.660622 3.95917 1.02797 3.75507 1.47696 3.71427L2.45656 3.59555V2.44893V1.63264C2.45656 0.734695 3.19125 2.3354e-09 4.0892 2.3354e-09H22.8648C23.7627 -4.78293e-05 24.4974 0.734647 24.4974 1.63264V2.44898V5.71431V14.6939C24.4974 15.4311 24.002 16.058 23.3278 16.2588C23.3483 17.0845 22.7236 17.8013 21.8851 17.8776L3.02795 20C2.98715 20 2.90551 20 2.86471 20C2.04836 20 1.31367 19.3878 1.23207 18.6123L0.00757599 5.51021C-0.0332241 5.10201 0.0892239 4.65302 0.374924 4.32652ZM23.681 2.85713H3.27285V3.91837V5.30611H23.681V2.85713ZM22.8648 0.816295H4.08924C3.64025 0.816295 3.2729 1.18364 3.2729 1.63264V2.04079H23.681V1.63264C23.681 1.18364 23.3137 0.816295 22.8648 0.816295ZM23.681 14.6938V6.12241H3.27285V14.6938C3.27285 15.1428 3.6402 15.5102 4.0892 15.5102H22.8239H22.8647C23.3137 15.5102 23.681 15.1428 23.681 14.6938ZM0.823919 5.34691L2.04841 18.449C2.08921 18.898 2.49741 19.2245 2.94635 19.1837L21.7627 17.0612C22.1709 17.0204 22.4566 16.6939 22.4974 16.3265H4.08924C3.1913 16.3265 2.4566 15.5918 2.4566 14.6939V5.71426V4.36732L1.51781 4.44897C1.31371 4.44897 1.10966 4.57142 0.987215 4.73467C0.864719 4.89792 0.78307 5.14281 0.823919 5.34691Z" fill="url(#paint5_linear)"/>
<defs>
<linearGradient id="paint0_linear" x1="11.8442" y1="9.3877" x2="4.4424" y2="9.48017" gradientUnits="userSpaceOnUse">
<stop stop-color="#FFC149"/>
<stop offset="0.465495" stop-color="#FFB340"/>
<stop offset="1" stop-color="#FFC149"/>
</linearGradient>
<linearGradient id="paint1_linear" x1="22.8647" y1="7.75513" x2="18.7579" y2="7.91191" gradientUnits="userSpaceOnUse">
<stop stop-color="#FFC149"/>
<stop offset="0.465495" stop-color="#FFB340"/>
<stop offset="1" stop-color="#FFC149"/>
</linearGradient>
<linearGradient id="paint2_linear" x1="17.9667" y1="7.75513" x2="13.8599" y2="7.91191" gradientUnits="userSpaceOnUse">
<stop stop-color="#FFC149"/>
<stop offset="0.465495" stop-color="#FFB340"/>
<stop offset="1" stop-color="#FFC149"/>
</linearGradient>
<linearGradient id="paint3_linear" x1="22.8647" y1="9.3877" x2="16.7158" y2="9.73981" gradientUnits="userSpaceOnUse">
<stop stop-color="#FFC149"/>
<stop offset="0.465495" stop-color="#FFB340"/>
<stop offset="1" stop-color="#FFC149"/>
</linearGradient>
<linearGradient id="paint4_linear" x1="15.9259" y1="9.3877" x2="13.8703" y2="9.42693" gradientUnits="userSpaceOnUse">
<stop stop-color="#FFC149"/>
<stop offset="0.465495" stop-color="#FFB340"/>
<stop offset="1" stop-color="#FFC149"/>
</linearGradient>
<linearGradient id="paint5_linear" x1="24.4974" y1="0" x2="-0.184953" y2="0.230828" gradientUnits="userSpaceOnUse">
<stop stop-color="#FFC149"/>
<stop offset="0.465495" stop-color="#FFB340"/>
<stop offset="1" stop-color="#FFC149"/>
</linearGradient>
</defs>
</svg>
