<svg width="30" height="30" viewBox="0 0 30 30" fill="none" xmlns="http://www.w3.org/2000/svg">
<path d="M15 30C23.2843 30 30 23.2843 30 15C30 6.71573 23.2843 0 15 0C6.71573 0 0 6.71573 0 15C0 23.2843 6.71573 30 15 30Z" fill="url(#paint0_linear)"/>
<path d="M16.599 16.3842V16.3818C16.4953 16.3891 15.9599 16.4204 14.7686 16.4204C13.816 16.4204 13.148 16.3939 12.9117 16.3818V16.3842C9.24849 16.2227 6.51618 15.586 6.51618 14.8215C6.51618 14.0595 9.2509 13.4204 12.9117 13.2588V15.75C13.1504 15.7669 13.8377 15.8079 14.7855 15.8079C15.9237 15.8079 16.4929 15.7597 16.599 15.75V13.2613C20.2549 13.4252 22.98 14.0619 22.98 14.824C22.98 15.586 20.2525 16.2227 16.599 16.3867V16.3842ZM16.599 13.0032V10.7749H21.6995V7.37701H7.8136V10.7749H12.9141V13.0032C8.76859 13.1937 5.65283 14.0137 5.65283 14.9976C5.65283 15.9815 8.771 16.8015 12.9141 16.9944V24.1375H16.6014V16.9944C20.7396 16.8039 23.8506 15.9839 23.8506 15C23.8506 14.0185 20.7396 13.1961 16.6014 13.0056" fill="white"/>
<defs>
<linearGradient id="paint0_linear" x1="0" y1="0" x2="30" y2="30" gradientUnits="userSpaceOnUse">
<stop stop-color="#26A17B"/>
<stop offset="1" stop-color="#008159"/>
</linearGradient>
</defs>
</svg>
