<svg width="15" height="15" viewBox="0 0 15 15" fill="none" xmlns="http://www.w3.org/2000/svg">
<circle r="7.5" transform="matrix(-1 0 0 1 7.5 7.5)" fill="url(#paint0_linear)"/>
<path d="M7.16555 2.96649L4.13851 5.99352C3.95383 6.17821 3.95383 6.47773 4.13851 6.66242C4.32324 6.84714 4.62269 6.84714 4.80741 6.66242L7.02702 4.44281L7.02702 10.527C7.02702 10.7882 7.2388 11 7.5 11C7.76115 11 7.97297 10.7882 7.97297 10.527L7.97297 4.44281L10.1926 6.66234C10.3773 6.84707 10.6768 6.84707 10.8615 6.66234C10.9538 6.57002 11 6.44894 11 6.32789C11 6.20685 10.9538 6.08581 10.8615 5.99344L7.83444 2.96649C7.64972 2.78177 7.35027 2.78177 7.16555 2.96649Z" fill="#0B0F1A"/>
<defs>
<linearGradient id="paint0_linear" x1="0" y1="0" x2="15.1136" y2="0.115393" gradientUnits="userSpaceOnUse">
<stop stop-color="#FFC149"/>
<stop offset="0.465495" stop-color="#FFB340"/>
<stop offset="1" stop-color="#FFC149"/>
</linearGradient>
</defs>
</svg>
