<svg width="18" height="20" viewBox="0 0 18 20" fill="none" xmlns="http://www.w3.org/2000/svg">
<path d="M8.43343 10.7767C8.45414 10.7767 8.47485 10.7767 8.4997 10.7767C8.50798 10.7767 8.51627 10.7767 8.52455 10.7767C8.53697 10.7767 8.55354 10.7767 8.56597 10.7767C9.77947 10.7559 10.761 10.3294 11.4858 9.51344C13.0804 7.71595 12.8153 4.63454 12.7863 4.34048C12.6828 2.13297 11.6391 1.07684 10.7776 0.583977C10.1356 0.215368 9.38601 0.0165667 8.5494 0H8.52041C8.51627 0 8.50798 0 8.50384 0H8.47899C8.01927 0 7.11639 0.0745503 6.25079 0.56741C5.38104 1.06027 4.32078 2.1164 4.21724 4.34048C4.18825 4.63454 3.92319 7.71595 5.51772 9.51344C6.23836 10.3294 7.21993 10.7559 8.43343 10.7767ZM5.32306 4.44403C5.32306 4.4316 5.3272 4.41918 5.3272 4.41089C5.46388 1.44131 7.57197 1.1224 8.47485 1.1224H8.49142C8.4997 1.1224 8.51212 1.1224 8.52455 1.1224C9.64279 1.14725 11.5438 1.60283 11.6722 4.41089C11.6722 4.42332 11.6722 4.43574 11.6763 4.44403C11.6805 4.47302 11.9704 7.28936 10.6534 8.77208C10.1315 9.3602 9.43571 9.65012 8.52041 9.6584C8.51212 9.6584 8.50798 9.6584 8.4997 9.6584C8.49142 9.6584 8.48727 9.6584 8.47899 9.6584C7.56783 9.65012 6.86789 9.3602 6.35019 8.77208C5.03729 7.29764 5.31892 4.46888 5.32306 4.44403Z" fill="#BDBDBD"/>
<path d="M17.0109 15.8877C17.0109 15.8836 17.0109 15.8794 17.0109 15.8753C17.0109 15.8422 17.0067 15.809 17.0067 15.7717C16.9819 14.9517 16.928 13.0341 15.1306 12.4211C15.1181 12.417 15.1016 12.4129 15.0891 12.4087C13.2213 11.9324 11.6681 10.8556 11.6516 10.8432C11.3989 10.6651 11.051 10.7272 10.8729 10.9798C10.6949 11.2325 10.757 11.5804 11.0096 11.7585C11.08 11.8082 12.7284 12.9554 14.7909 13.4855C15.7559 13.8293 15.8636 14.8606 15.8926 15.8049C15.8926 15.8422 15.8926 15.8753 15.8968 15.9084C15.9009 16.2812 15.8761 16.8569 15.8098 17.1882C15.1388 17.5692 12.5089 18.8863 8.50807 18.8863C4.5238 18.8863 1.87729 17.5651 1.2022 17.1841C1.13594 16.8527 1.10695 16.277 1.11523 15.9043C1.11523 15.8711 1.11937 15.838 1.11937 15.8007C1.14836 14.8564 1.25605 13.8252 2.22105 13.4814C4.28359 12.9513 5.93196 11.7999 6.00237 11.7543C6.25501 11.5762 6.31714 11.2283 6.13905 10.9757C5.96095 10.7231 5.61306 10.6609 5.36042 10.839C5.34385 10.8514 3.79902 11.9283 1.92285 12.4046C1.90628 12.4087 1.89386 12.4129 1.88143 12.417C0.0839602 13.0341 0.0301188 14.9517 0.00526895 15.7676C0.00526895 15.8049 0.00526885 15.838 0.00112721 15.8711C0.00112721 15.8753 0.00112721 15.8794 0.00112721 15.8836C-0.00301444 16.0989 -0.007156 17.2048 0.212351 17.7597C0.253768 17.8674 0.328317 17.9585 0.427717 18.0207C0.551966 18.1035 3.52981 20.0004 8.51221 20.0004C13.4946 20.0004 16.4725 18.0994 16.5967 18.0207C16.692 17.9585 16.7706 17.8674 16.8121 17.7597C17.0191 17.2089 17.015 16.1031 17.0109 15.8877Z" fill="#BDBDBD"/>
</svg>
