<svg width="31" height="20" viewBox="0 0 31 20" fill="none" xmlns="http://www.w3.org/2000/svg">
<path d="M28.0612 0H2.65466C1.19094 0 0 1.15517 0 2.57515V17.4248C0 18.8448 1.19094 20 2.65466 20H28.0612C29.5251 20 30.7161 18.8448 30.7161 17.4248V2.57515C30.7161 1.15517 29.5251 0 28.0612 0V0ZM29.8038 17.4248C29.8038 18.3568 29.022 19.1151 28.0612 19.1151H2.65466C1.69408 19.1151 0.912305 18.3568 0.912305 17.4248V2.57515C0.912305 1.6432 1.69408 0.884903 2.65466 0.884903H28.0612C29.022 0.884903 29.8038 1.6432 29.8038 2.57515V17.4248Z" fill="#FBFBFB"/>
<path d="M13.655 3.54004H3.07175C2.81983 3.54004 2.61548 3.73802 2.61548 3.9826V5.04435C2.61548 5.2887 2.81983 5.48669 3.07175 5.48669C3.32367 5.48669 3.52802 5.2887 3.52802 5.04435V4.42494H13.199V15.2215H3.52802V6.81438C3.52802 6.57002 3.32367 6.37181 3.07175 6.37181C2.81983 6.37181 2.61548 6.57002 2.61548 6.81438V15.6638C2.61548 15.9082 2.81983 16.1064 3.07175 16.1064H13.655C13.9069 16.1064 14.1113 15.9082 14.1113 15.6638V3.9826C14.1113 3.73802 13.9069 3.54004 13.655 3.54004Z" fill="#FBFBFB"/>
<path d="M27.7664 4.56543H16.3315C16.0796 4.56543 15.8752 4.76362 15.8752 5.00795C15.8752 5.25229 16.0796 5.45025 16.3315 5.45025H27.7664C28.0183 5.45025 28.2224 5.25229 28.2224 5.00795C28.2224 4.76362 28.0183 4.56543 27.7664 4.56543Z" fill="#FBFBFB"/>
<path d="M27.7665 7.77539H25.2119C24.96 7.77539 24.7559 7.97338 24.7559 8.21774C24.7559 8.46209 24.96 8.66031 25.2119 8.66031H27.7665C28.0184 8.66031 28.2225 8.46209 28.2225 8.21774C28.2225 7.97338 28.0184 7.77539 27.7665 7.77539Z" fill="#FBFBFB"/>
<path d="M16.3315 8.66031H23.3869C23.6389 8.66031 23.8432 8.46209 23.8432 8.21774C23.8432 7.97338 23.6389 7.77539 23.3869 7.77539H16.3315C16.0796 7.77539 15.8752 7.97338 15.8752 8.21774C15.8752 8.46209 16.0796 8.66031 16.3315 8.66031Z" fill="#FBFBFB"/>
<path d="M27.7664 10.9854H16.3315C16.0796 10.9854 15.8752 11.1833 15.8752 11.4277C15.8752 11.6721 16.0796 11.8703 16.3315 11.8703H27.7664C28.0183 11.8703 28.2224 11.6721 28.2224 11.4277C28.2224 11.1833 28.0183 10.9854 27.7664 10.9854Z" fill="#FBFBFB"/>
<path d="M22.5356 14.1953H16.3315C16.0796 14.1953 15.8752 14.3933 15.8752 14.6377C15.8752 14.882 16.0796 15.0803 16.3315 15.0803H22.5356C22.7875 15.0803 22.9916 14.882 22.9916 14.6377C22.9916 14.3933 22.7875 14.1953 22.5356 14.1953Z" fill="#FBFBFB"/>
<path d="M5.17017 14.248C5.17017 14.4923 5.37452 14.6903 5.62644 14.6903C5.87836 14.6903 6.08271 14.4923 6.08271 14.248C6.08271 13.028 7.10586 12.0356 8.36359 12.0356C9.62132 12.0356 10.6445 13.028 10.6445 14.248C10.6445 14.4923 10.8486 14.6903 11.1005 14.6903C11.3524 14.6903 11.5568 14.4923 11.5568 14.248C11.5568 13.1223 10.9346 12.1354 10.0064 11.593C10.9346 11.0507 11.5568 10.0637 11.5568 8.93809C11.5568 7.23034 10.1242 5.84082 8.36359 5.84082C6.60272 5.84082 5.17017 7.23034 5.17017 8.93809C5.17017 10.0637 5.79259 11.0507 6.72083 11.593C5.79259 12.1354 5.17017 13.1223 5.17017 14.248ZM6.08271 8.93809C6.08271 7.71814 7.10586 6.72572 8.36359 6.72572C9.62132 6.72572 10.6445 7.71814 10.6445 8.93809C10.6445 10.158 9.62132 11.1505 8.36359 11.1505C7.10586 11.1505 6.08271 10.158 6.08271 8.93809Z" fill="#FBFBFB"/>
</svg>
