<svg width="31" height="21" viewBox="0 0 31 21" fill="none" xmlns="http://www.w3.org/2000/svg">
<path d="M29.6901 17.583V17.533H29.6901V3.83304C29.6901 2.77023 28.799 1.90804 27.707 1.90804H3.22173C2.12979 1.90804 1.23868 2.77023 1.23868 3.83304V17.583C1.23868 18.6458 2.12979 19.508 3.22173 19.508H27.7071C28.799 19.508 29.6901 18.6458 29.6901 17.583ZM3.22173 0.758008H27.7071C29.4567 0.758008 30.8788 2.13955 30.8787 3.83304V17.583C30.8787 19.2765 29.4567 20.658 27.707 20.658H3.22173C1.47209 20.658 0.05 19.2765 0.05 17.583V3.83304C0.05 2.13955 1.47209 0.758008 3.22173 0.758008Z" fill="#FBFBFB" stroke="black" stroke-width="0.1"/>
<path d="M1.23868 8.20799V8.25799H1.28868H29.5901H29.6401H29.6401L29.6401 8.20799H29.6901V5.70798V5.65798H29.6401H1.28868H1.23868V5.70798V8.20799ZM0.64437 4.50801H30.2844C30.614 4.50801 30.8788 4.76707 30.8789 5.08302V8.83301C30.8789 9.14896 30.614 9.40802 30.2845 9.40802H0.64437C0.314855 9.40802 0.05 9.14896 0.05 8.83301V5.08302C0.05 4.76707 0.314855 4.50801 0.64437 4.50801Z" fill="#FBFBFB" stroke="black" stroke-width="0.1"/>
<path d="M4.51058 13.258H12.2428C12.5723 13.258 12.8371 13.517 12.8371 13.833C12.8371 14.1489 12.5723 14.408 12.2428 14.408H4.51058C4.18106 14.408 3.91621 14.149 3.91621 13.833C3.91621 13.5171 4.18107 13.258 4.51058 13.258Z" fill="#FBFBFB" stroke="black" stroke-width="0.1"/>
<path d="M4.51058 15.758H12.2428C12.5723 15.758 12.8371 16.0171 12.8371 16.333C12.8371 16.649 12.5723 16.908 12.2428 16.908H4.51058C4.18106 16.908 3.91621 16.649 3.91621 16.333C3.91621 16.0171 4.18106 15.758 4.51058 15.758Z" fill="#FBFBFB" stroke="black" stroke-width="0.1"/>
<path d="M23.841 12.008H25.1297C26.1693 12.008 27.0127 12.8283 27.0127 13.833V15.083C27.0127 16.0877 26.1693 16.9079 25.1297 16.9079H23.841C22.8014 16.9079 21.958 16.0877 21.958 15.083V13.833C21.958 12.8283 22.8014 12.008 23.841 12.008ZM25.1297 15.758C25.5115 15.758 25.8241 15.457 25.8241 15.083V13.833C25.8241 13.459 25.5115 13.158 25.1297 13.158H23.841C23.4592 13.158 23.1466 13.459 23.1466 13.833V15.083C23.1466 15.457 23.4592 15.758 23.841 15.758H25.1297Z" fill="#FBFBFB" stroke="black" stroke-width="0.1"/>
</svg>
