<svg width="20" height="20" viewBox="0 0 20 20" fill="none" xmlns="http://www.w3.org/2000/svg">
<path d="M2.96242 4.40406L2.62101 4.74547H3.10384H19.0909C19.4825 4.74547 19.8 5.06296 19.8 5.45456C19.8 5.84617 19.4825 6.16365 19.0909 6.16365H3.10384H2.621L2.96242 6.50507L5.95593 9.49858C6.23286 9.77551 6.23284 10.2245 5.95594 10.5014L5.9559 10.5014C5.81747 10.6399 5.63635 10.7091 5.45456 10.7091C5.27279 10.7091 5.09165 10.6399 4.95314 10.5014L0.407694 5.95593C0.130762 5.679 0.13078 5.23 0.407681 4.95315L0.407694 4.95314L4.95314 0.407694C5.23007 0.130762 5.67906 0.13078 5.95592 0.407681L5.95593 0.407694C6.23286 0.684625 6.23284 1.13362 5.95594 1.41047L5.95593 1.41049L2.96242 4.40406Z" fill="#C0C0C0" stroke="black" stroke-width="0.4"/>
<path d="M16.8961 13.8362H17.379L17.0376 13.4948L14.044 10.5013C13.7671 10.2243 13.7671 9.77534 14.044 9.49848C14.3209 9.22159 14.7699 9.22161 15.0468 9.49847L19.5922 14.0439C19.8692 14.3208 19.8691 14.7698 19.5922 15.0467L19.5922 15.0467L15.0468 19.5921L15.0468 19.5922C14.9083 19.7307 14.7272 19.7999 14.5454 19.7999C14.3636 19.7999 14.1825 19.7307 14.0441 19.5922C13.7671 19.3153 13.7671 18.8663 14.044 18.5894L14.0441 18.5894L17.0376 15.5958L17.379 15.2544H16.8961H0.909089C0.517486 15.2544 0.2 14.9369 0.2 14.5453C0.2 14.1537 0.517486 13.8362 0.909089 13.8362H16.8961Z" fill="#C0C0C0" stroke="black" stroke-width="0.4"/>
</svg>
