<svg width="16" height="20" viewBox="0 0 16 20" fill="none" xmlns="http://www.w3.org/2000/svg">
<path d="M10.9837 6.24301C10.9957 6.24301 11.0077 6.24301 11.0221 6.24301C11.0269 6.24301 11.0317 6.24301 11.0365 6.24301C11.0437 6.24301 11.0533 6.24301 11.0605 6.24301C11.7635 6.23101 12.3321 5.98388 12.752 5.51122C13.6757 4.46992 13.5222 2.68483 13.5054 2.51448C13.4454 1.23565 12.8408 0.623821 12.3417 0.338303C11.9698 0.124764 11.5356 0.00959725 11.0509 0H11.0341C11.0317 0 11.0269 0 11.0245 0H11.0101C10.7438 0 10.2207 0.0431876 9.71928 0.328706C9.21542 0.614224 8.6012 1.22605 8.54121 2.51448C8.52442 2.68483 10 2.5 11 4.5C11.4175 4.97266 11.0605 6.24301 10.9837 6.24301ZM9.18183 2.57446C9.18183 2.56726 9.18423 2.56007 9.18423 2.55527C9.26341 0.834961 10.4847 0.650214 11.0077 0.650214H11.0173C11.0221 0.650214 11.0293 0.650214 11.0365 0.650214C11.6843 0.664609 12.7856 0.928534 12.86 2.55527C12.86 2.56247 12.86 2.56966 12.8624 2.57446C12.8648 2.59126 13.0327 4.22279 12.2697 5.08174C11.9674 5.42245 11.5643 5.5904 11.0341 5.5952C11.0293 5.5952 11.0269 5.5952 11.0221 5.5952C11.0173 5.5952 11.0149 5.5952 11.0101 5.5952C10.4823 5.5904 11.2999 4.8407 11 4.5C10.5 3.5 9.17943 2.58886 9.18183 2.57446Z" fill="#BDBDBD"/>
<path d="M15.8546 8.97604V8.98324C15.857 9.108 15.8594 9.74862 15.7395 10.0677C15.7155 10.1301 15.6699 10.1829 15.6147 10.2189L15.6137 10.2195C15.5279 10.2739 13.8052 11.3658 10.9312 11.3658C8.04487 11.3658 8.57198 11.0475 8.5 10.9996L9 10.4996C9.39109 10.7203 8.6207 10.7203 10.9288 10.7203C13.2466 10.7203 14.7701 9.95736 15.1588 9.73662C15.1972 9.54468 15.2116 9.21117 15.2092 8.99524C15.2068 8.97604 15.2068 8.95685 15.2068 8.93525C15.19 8.38821 15.1276 7.79078 14.5686 7.59164C13.3737 7.28453 12.4188 6.61992 12.378 6.59113C12.2317 6.48796 12.1957 6.28641 12.2988 6.14006C12.402 5.9937 12.6036 5.95771 12.7499 6.06088C12.7595 6.06808 13.6593 6.6919 14.7413 6.96782C14.7485 6.97022 14.7581 6.97262 14.7653 6.97502C15.8042 7.32927 15.8377 8.43571 15.8521 8.91266L15.8522 8.91606C15.8522 8.93765 15.8546 8.95685 15.8546 8.97604Z" fill="#BDBDBD"/>
<path d="M7.79063 11.4795C7.80976 11.4795 7.82889 11.4795 7.85184 11.4795C7.85949 11.4795 7.86714 11.4795 7.8748 11.4795C7.88627 11.4795 7.90158 11.4795 7.91306 11.4795C9.03406 11.4604 9.94081 11.0663 10.6103 10.3126C12.0833 8.65215 11.8385 5.80565 11.8117 5.53401C11.716 3.49478 10.7519 2.51916 9.95611 2.06387C9.36309 1.72336 8.67059 1.53972 7.89775 1.52441H7.87097C7.86715 1.52441 7.85949 1.52441 7.85567 1.52441H7.83271C7.40803 1.52441 6.57398 1.59328 5.77435 2.04857C4.9709 2.50386 3.99146 3.47947 3.89581 5.53401C3.86903 5.80565 3.62417 8.65215 5.09716 10.3126C5.76287 11.0663 6.66962 11.4604 7.79063 11.4795ZM4.91734 5.62965C4.91734 5.61818 4.92117 5.6067 4.92117 5.59905C5.04742 2.85584 6.99483 2.56125 7.82889 2.56125H7.84419C7.85184 2.56125 7.86332 2.56125 7.8748 2.56125C8.9078 2.5842 10.6639 3.00506 10.7825 5.59905C10.7825 5.61053 10.7825 5.622 10.7863 5.62965C10.7902 5.65644 11.058 8.25808 9.84133 9.62777C9.35926 10.1711 8.71651 10.4389 7.87097 10.4465C7.86332 10.4465 7.85949 10.4465 7.85184 10.4465C7.84419 10.4465 7.84036 10.4465 7.83271 10.4465C6.991 10.4389 6.34442 10.1711 5.86617 9.62777C4.65335 8.26573 4.91351 5.65261 4.91734 5.62965Z" fill="#BDBDBD"/>
<path d="M15.7142 16.2011C15.7142 16.1973 15.7142 16.1935 15.7142 16.1897C15.7142 16.1591 15.7104 16.1285 15.7104 16.094C15.6874 15.3365 15.6377 13.5651 13.9772 12.9988C13.9657 12.995 13.9504 12.9912 13.939 12.9874C12.2135 12.5474 10.7787 11.5526 10.7634 11.5411C10.53 11.3766 10.2087 11.434 10.0442 11.6674C9.87964 11.9008 9.93702 12.2222 10.1704 12.3867C10.2354 12.4326 11.7582 13.4924 13.6635 13.9821C14.5549 14.2997 14.6544 15.2523 14.6812 16.1246C14.6812 16.1591 14.6812 16.1897 14.685 16.2203C14.6888 16.5646 14.6659 17.0964 14.6047 17.4025C13.9849 17.7545 11.5554 18.9711 7.85954 18.9711C4.17898 18.9711 1.73419 17.7507 1.11057 17.3987C1.04935 17.0926 1.02257 16.5608 1.03022 16.2165C1.03022 16.1858 1.03405 16.1552 1.03405 16.1208C1.06083 15.2485 1.1603 14.2958 2.05175 13.9783C3.95707 13.4886 5.4798 12.4249 5.54484 12.3829C5.77822 12.2183 5.83561 11.897 5.67109 11.6636C5.50658 11.4302 5.1852 11.3728 4.95182 11.5373C4.93651 11.5488 3.50943 12.5435 1.77628 12.9835C1.76098 12.9874 1.7495 12.9912 1.73802 12.995C0.0775603 13.5651 0.027823 15.3365 0.00486732 16.0902C0.00486732 16.1246 0.00486723 16.1552 0.00104129 16.1858C0.00104129 16.1897 0.00104129 16.1935 0.00104129 16.1973C-0.00278466 16.3963 -0.00661053 17.4178 0.196165 17.9305C0.234424 18.03 0.303291 18.1141 0.395114 18.1715C0.509892 18.248 3.26075 20.0003 7.86336 20.0003C12.466 20.0003 15.2168 18.2442 15.3316 18.1715C15.4196 18.1141 15.4923 18.03 15.5306 17.9305C15.7219 17.4216 15.718 16.4001 15.7142 16.2011Z" fill="#BDBDBD"/>
</svg>
