<svg width="20" height="20" viewBox="0 0 20 20" fill="none" xmlns="http://www.w3.org/2000/svg">
<path d="M15.9113 2.61939L16.2527 2.27797L15.7698 2.27797L9.99994 2.27797C9.4261 2.27797 8.96091 1.81276 8.96096 1.239C8.96101 0.665199 9.42623 0.2 9.99994 0.2L18.761 0.200001C19.3348 0.200001 19.8 0.665211 19.7999 1.23897V10V10C19.8 10.2869 19.6839 10.5464 19.4957 10.7347C19.3075 10.9229 19.0479 11.039 18.7611 11.039C18.1872 11.039 17.722 10.5738 17.7221 10L17.722 4.23017L17.722 3.74733L17.3806 4.08875L1.97366 19.4957C1.56793 19.9014 0.91004 19.9014 0.504303 19.4957C0.0985656 19.09 0.098566 18.4321 0.504303 18.0263L15.9113 2.61939Z" fill="#BDBDBD" stroke="black" stroke-width="0.4"/>
</svg>
