<svg width="20" height="20" viewBox="0 0 20 20" fill="none" xmlns="http://www.w3.org/2000/svg">
<path d="M8.18232 3.49575L8.18643 3.47522L8.17467 3.45789C7.73278 2.80624 7.78445 1.89363 8.38279 1.29533C9.04846 0.629662 10.1317 0.629701 10.7973 1.29533L17.4247 7.92271C18.088 8.58608 18.0903 9.66409 17.4316 10.3302C17.4293 10.3326 17.427 10.3349 17.4247 10.3372L17.4247 10.3372C16.8394 10.9225 15.9288 10.9949 15.2627 10.5451L15.2454 10.5334L15.2249 10.5375L15.1782 10.5468C13.492 10.8841 11.9129 11.5618 10.5225 12.5353L10.4737 12.5694L10.5159 12.6116L10.7973 12.8931L10.8327 12.8577L10.7973 12.8931C11.4647 13.5604 11.4646 14.6404 10.7973 15.3076L10.3831 15.7218L10.3478 15.7572L10.3831 15.7925L11.6257 17.0351C12.2914 17.7008 12.2914 18.784 11.6257 19.4496C10.9584 20.117 9.87853 20.1169 9.21126 19.4496L6.31182 16.5502L6.27646 16.5148L6.2411 16.5502L5.82689 16.9644C5.15958 17.6317 4.0796 17.6317 3.41237 16.9644L1.75557 15.3076L1.72035 15.3428L1.75557 15.3076C1.08819 14.6403 1.0883 13.5604 1.75557 12.8931L4.79537 9.85326C6.52536 8.12331 7.69336 5.94083 8.1731 3.54189L8.1731 3.54188L8.18232 3.49575ZM5.0692 16.2067L5.0692 16.2067L7.96861 13.3072L8.00396 13.2719L7.96861 13.2365L5.48338 10.7513L5.44802 10.7159L5.41267 10.7513L2.51326 13.6507C2.26479 13.8992 2.26479 14.3013 2.51326 14.5499L2.54862 14.5145L2.51326 14.5499L4.17005 16.2067C4.41849 16.4551 4.82077 16.4551 5.0692 16.2067ZM7.06946 15.7217L7.03411 15.7571L7.06946 15.7924L9.96891 18.6919C10.2168 18.9398 10.6201 18.9398 10.868 18.6919C11.1159 18.444 11.1159 18.0407 10.868 17.7928L7.96861 14.8933L7.93325 14.858L7.8979 14.8933L7.06946 15.7217ZM8.7263 14.0649L8.69094 14.1003L8.72629 14.1356L9.55469 14.9641L9.59005 14.9994L9.6254 14.9641L10.0396 14.5499L10.0043 14.5145L10.0396 14.5499C10.2881 14.3013 10.2881 13.8992 10.0396 13.6508L9.65271 13.2638L9.62003 13.2311L9.58488 13.2611C9.20086 13.5891 8.94603 13.8446 8.77064 14.0205C8.75526 14.0359 8.74049 14.0507 8.7263 14.0649ZM8.75118 12.5038L8.78409 12.5367L8.81927 12.5062C10.3822 11.1527 12.227 10.1834 14.2312 9.66486L14.3159 9.64295L14.2541 9.5811L9.13876 4.46579L9.07691 4.40394L9.055 4.48862C8.53643 6.49287 7.56717 8.33771 6.21366 9.9006L6.1832 9.93578L6.2161 9.96869L8.75118 12.5038ZM9.14047 2.95212L9.14047 2.95213L15.7678 9.57943L15.8031 9.54408L15.7678 9.57943C16.0162 9.82786 16.4184 9.82786 16.6669 9.57943L16.6669 9.57942C16.9148 9.33146 16.9148 8.92821 16.6669 8.68028L16.6329 8.71422L16.6669 8.68028L10.0396 2.05302C9.79115 1.80455 9.38895 1.80455 9.14047 2.05302C8.892 2.30149 8.89201 2.70362 9.14047 2.95212Z" fill="#BDBDBD" stroke="black" stroke-width="0.1"/>
<path d="M5.8267 12.8925L5.8267 12.8925C6.03593 13.1017 6.03593 13.4409 5.8267 13.6502L4.9983 14.4786L4.9983 14.4786C4.78911 14.6878 4.4498 14.6878 4.24061 14.4786L4.24061 14.4786C4.03139 14.2693 4.03139 13.9301 4.24061 13.7209L5.06901 12.8925C5.27824 12.6832 5.61752 12.6832 5.8267 12.8925Z" fill="#BDBDBD" stroke="black" stroke-width="0.1"/>
<path d="M12.9873 0.58578C12.9873 0.289879 13.2271 0.05 13.523 0.05C13.8189 0.05 14.0588 0.289879 14.0588 0.58578V1.75734C14.0588 2.05324 13.8189 2.29312 13.523 2.29312C13.2271 2.29312 12.9873 2.05324 12.9873 1.75734V0.58578Z" fill="#BDBDBD" stroke="black" stroke-width="0.1"/>
<path d="M17.0377 4.73652H18.2092C18.5051 4.73652 18.745 4.97641 18.745 5.2723C18.745 5.5682 18.5051 5.80808 18.2092 5.80808H17.0377C16.7418 5.80808 16.5019 5.5682 16.5019 5.2723C16.5019 4.9764 16.7418 4.73652 17.0377 4.73652Z" fill="#BDBDBD" stroke="black" stroke-width="0.1"/>
<path d="M15.4872 3.30707L15.4872 3.30706C15.278 3.09784 15.278 2.7586 15.4872 2.54938L16.6588 1.37782C16.868 1.16859 17.2073 1.1686 17.4164 1.37781C17.6257 1.58708 17.6257 1.92628 17.4164 2.1355L16.2449 3.30706L16.2449 3.30707C16.0357 3.51632 15.6964 3.51629 15.4872 3.30707Z" fill="#BDBDBD" stroke="black" stroke-width="0.1"/>
</svg>
