<svg width="20" height="20" viewBox="0 0 20 20" fill="none" xmlns="http://www.w3.org/2000/svg">
<path d="M17.5687 4.20241L17.0994 3.7331L13.8221 0.455517C13.8218 0.455172 13.8218 0.455172 13.8215 0.455172L13.5559 0.18931C13.4335 0.0672414 13.2711 0 13.0984 0H3.09077C2.68146 0 2.24146 0.315862 2.24146 1.00897V13.4483V19.1507V19.3103C2.24146 19.599 2.53146 19.88 2.87456 19.9686C2.89214 19.9734 2.90904 19.98 2.92697 19.9834C2.98077 19.9941 3.03559 20 3.09077 20H16.9094C16.9646 20 17.0194 19.9941 17.0732 19.9834C17.0911 19.98 17.108 19.9734 17.1256 19.9686C17.4687 19.88 17.7587 19.599 17.7587 19.3103V19.1507V13.4483V4.82C17.7587 4.55552 17.7266 4.36 17.5687 4.20241ZM13.6208 1.22931L16.5294 4.13793H13.6208V1.22931ZM3.09077 19.3103C3.06628 19.3103 3.04421 19.3017 3.02249 19.2934C2.96904 19.2679 2.93111 19.2141 2.93111 19.1507V14.1379H17.069V19.1507C17.069 19.2141 17.0311 19.2679 16.9777 19.2934C16.9559 19.3017 16.9339 19.3103 16.9094 19.3103H3.09077ZM2.93111 13.4483V1.00897C2.93111 0.934138 2.94249 0.689655 3.09077 0.689655H12.9511C12.9397 0.733103 12.9311 0.777931 12.9311 0.824483V4.82759H16.9339C16.9804 4.82759 17.0252 4.81897 17.0687 4.80759C17.0687 4.81276 17.069 4.81483 17.069 4.82V13.4483H2.93111Z" fill="#BDBDBD"/>
<path d="M7.31981 15.1465L6.65498 16.5606H6.60774L5.99498 15.1465H5.34912L6.28705 16.933L5.40567 18.621H6.06085L6.65498 17.3103H6.70223L7.2536 18.621H7.90912L7.0274 16.933L7.96567 15.1465H7.31981Z" fill="#BDBDBD"/>
<path d="M10.3511 17.5223L9.31834 15.1465H8.74316V18.621H9.31834V16.2306L10.1011 18.1637H10.6008L11.3787 16.2306V18.621H11.9539V15.1465H11.3787L10.3511 17.5223Z" fill="#BDBDBD"/>
<path d="M13.4011 15.1465H12.8259V18.621H14.9994V18.192H13.4011V15.1465Z" fill="#BDBDBD"/>
<path d="M8.0024 5.96343C7.86757 5.8286 7.64964 5.8286 7.51481 5.96343L5.44585 8.03239C5.31102 8.16722 5.31102 8.38515 5.44585 8.51998L7.51481 10.5889C7.58205 10.6562 7.67033 10.69 7.7586 10.69C7.84688 10.69 7.93516 10.6562 8.0024 10.5889C8.13722 10.4541 8.13722 10.2362 8.0024 10.1014L6.17723 8.27618L8.0024 6.45101C8.13722 6.31618 8.13722 6.09825 8.0024 5.96343Z" fill="#BDBDBD"/>
<path d="M12.1405 5.96343C12.0056 5.8286 11.7877 5.8286 11.6529 5.96343C11.5181 6.09825 11.5181 6.31618 11.6529 6.45101L13.4781 8.27618L11.6529 10.1014C11.5181 10.2362 11.5181 10.4541 11.6529 10.5889C11.7201 10.6562 11.8084 10.69 11.8967 10.69C11.9849 10.69 12.0732 10.6562 12.1405 10.5889L14.2094 8.51998C14.3443 8.38515 14.3443 8.16722 14.2094 8.03239L12.1405 5.96343Z" fill="#BDBDBD"/>
<path d="M10.977 4.84708C10.7966 4.78328 10.6004 4.87777 10.537 5.05742L8.468 10.9195C8.40455 11.0991 8.49903 11.296 8.67834 11.3595C8.71627 11.3729 8.75524 11.3791 8.79317 11.3791C8.93524 11.3791 9.06834 11.2905 9.11834 11.1491L11.1873 5.28708C11.2508 5.10742 11.1566 4.91053 10.977 4.84708Z" fill="#BDBDBD"/>
</svg>
