<svg width="20" height="20" viewBox="0 0 20 20" fill="none" xmlns="http://www.w3.org/2000/svg">
<path d="M17.5687 4.20241L17.0994 3.7331L13.8221 0.455517C13.8218 0.455172 13.8218 0.455172 13.8215 0.455172L13.5559 0.18931C13.4335 0.0672414 13.2711 0 13.0984 0H3.09077C2.68146 0 2.24146 0.315862 2.24146 1.00897V13.4483V19.1507V19.3103C2.24146 19.599 2.53146 19.88 2.87456 19.9686C2.89214 19.9734 2.90904 19.98 2.92697 19.9834C2.98077 19.9941 3.03559 20 3.09077 20H16.9094C16.9646 20 17.0194 19.9941 17.0732 19.9834C17.0911 19.98 17.108 19.9734 17.1256 19.9686C17.4687 19.88 17.7587 19.599 17.7587 19.3103V19.1507V13.4483V4.82C17.7587 4.55552 17.7266 4.36 17.5687 4.20241ZM13.6208 1.22931L16.5294 4.13793H13.6208V1.22931ZM3.09077 19.3103C3.06628 19.3103 3.04421 19.3017 3.02249 19.2934C2.96904 19.2679 2.93111 19.2141 2.93111 19.1507V14.1379H17.069V19.1507C17.069 19.2141 17.0311 19.2679 16.9777 19.2934C16.9559 19.3017 16.9339 19.3103 16.9094 19.3103H3.09077ZM2.93111 13.4483V1.00897C2.93111 0.934138 2.94249 0.689655 3.09077 0.689655H12.9511C12.9397 0.733103 12.9311 0.777931 12.9311 0.824483V4.82759H16.9339C16.9804 4.82759 17.0252 4.81897 17.0687 4.80759C17.0687 4.81276 17.069 4.81483 17.069 4.82V13.4483H2.93111Z" fill="#BDBDBD"/>
<path d="M5.24048 15.533H6.27772V18.621H6.84807V15.533H7.88531V15.1465H5.24048V15.533Z" fill="#BDBDBD"/>
<path d="M10.4453 15.1465L9.78047 16.5606H9.73358L9.12047 15.1465H8.47461L9.41289 16.933L8.53116 18.621H9.18668L9.78047 17.3103H9.82771L10.3794 18.621H11.0346L10.1529 16.933L11.0912 15.1465H10.4453Z" fill="#BDBDBD"/>
<path d="M11.6758 15.533H12.713V18.621H13.2834V15.533H14.3206V15.1465H11.6758V15.533Z" fill="#BDBDBD"/>
<path d="M4.65513 4.82735H6.7241C6.91479 4.82735 7.06892 4.67287 7.06892 4.48252C7.06892 4.29218 6.91479 4.1377 6.7241 4.1377H4.65513C4.46444 4.1377 4.3103 4.29218 4.3103 4.48252C4.3103 4.67287 4.46444 4.82735 4.65513 4.82735Z" fill="#BDBDBD"/>
<path d="M4.65513 6.55196H7.75858C7.94927 6.55196 8.10341 6.39748 8.10341 6.20713C8.10341 6.01679 7.94927 5.8623 7.75858 5.8623H4.65513C4.46444 5.8623 4.3103 6.01679 4.3103 6.20713C4.3103 6.39748 4.46444 6.55196 4.65513 6.55196Z" fill="#BDBDBD"/>
<path d="M9.13804 6.55156C9.2277 6.55156 9.31735 6.51362 9.38287 6.45156C9.44494 6.38604 9.48287 6.29638 9.48287 6.20673C9.48287 6.11707 9.44494 6.02742 9.38287 5.9619C9.25528 5.83431 9.0208 5.83431 8.89666 5.9619C8.83114 6.02742 8.79321 6.11362 8.79321 6.20673C8.79321 6.29983 8.8308 6.38604 8.89321 6.45156C8.95839 6.51362 9.04838 6.55156 9.13804 6.55156Z" fill="#BDBDBD"/>
<path d="M10.5174 6.55196H13.2761C13.4667 6.55196 13.6209 6.39748 13.6209 6.20713C13.6209 6.01679 13.4667 5.8623 13.2761 5.8623H10.5174C10.3267 5.8623 10.1726 6.01679 10.1726 6.20713C10.1726 6.39748 10.3267 6.55196 10.5174 6.55196Z" fill="#BDBDBD"/>
<path d="M4.4103 11.1343C4.34789 11.1998 4.3103 11.2895 4.3103 11.3792C4.3103 11.4688 4.34789 11.5585 4.4103 11.624C4.47548 11.686 4.56548 11.724 4.65513 11.724C4.74479 11.724 4.83444 11.686 4.89996 11.624C4.96203 11.5585 4.99996 11.4688 4.99996 11.3792C4.99996 11.2895 4.96203 11.1998 4.89996 11.1378C4.77237 11.0067 4.53789 11.0067 4.4103 11.1343Z" fill="#BDBDBD"/>
<path d="M8.79315 11.0342H6.03452C5.84384 11.0342 5.6897 11.1887 5.6897 11.379C5.6897 11.5694 5.84384 11.7238 6.03452 11.7238H8.79315C8.98384 11.7238 9.13797 11.5694 9.13797 11.379C9.13797 11.1887 8.98384 11.0342 8.79315 11.0342Z" fill="#BDBDBD"/>
<path d="M15.3448 5.8623H14.6551C14.4644 5.8623 14.3103 6.01679 14.3103 6.20713C14.3103 6.39748 14.4644 6.55196 14.6551 6.55196H15.3448C15.5355 6.55196 15.6896 6.39748 15.6896 6.20713C15.6896 6.01679 15.5355 5.8623 15.3448 5.8623Z" fill="#BDBDBD"/>
<path d="M4.65513 8.27559H12.2413C12.432 8.27559 12.5862 8.12111 12.5862 7.93077C12.5862 7.74042 12.432 7.58594 12.2413 7.58594H4.65513C4.46444 7.58594 4.3103 7.74042 4.3103 7.93077C4.3103 8.12111 4.46444 8.27559 4.65513 8.27559Z" fill="#BDBDBD"/>
<path d="M15.3449 7.58594H13.276C13.0853 7.58594 12.9312 7.74042 12.9312 7.93077C12.9312 8.12111 13.0853 8.27559 13.276 8.27559H15.3449C15.5356 8.27559 15.6898 8.12111 15.6898 7.93077C15.6898 7.74042 15.5356 7.58594 15.3449 7.58594Z" fill="#BDBDBD"/>
<path d="M4.65513 10.0002H6.03444C6.22513 10.0002 6.37927 9.84572 6.37927 9.65537C6.37927 9.46503 6.22513 9.31055 6.03444 9.31055H4.65513C4.46444 9.31055 4.3103 9.46503 4.3103 9.65537C4.3103 9.84572 4.46444 10.0002 4.65513 10.0002Z" fill="#BDBDBD"/>
<path d="M10.8622 9.31055H7.41392C7.22323 9.31055 7.06909 9.46503 7.06909 9.65537C7.06909 9.84572 7.22323 10.0002 7.41392 10.0002H10.8622C11.0529 10.0002 11.207 9.84572 11.207 9.65537C11.207 9.46503 11.0529 9.31055 10.8622 9.31055Z" fill="#BDBDBD"/>
<path d="M15.345 9.31055H12.2416C12.0509 9.31055 11.8967 9.46503 11.8967 9.65537C11.8967 9.84572 12.0509 10.0002 12.2416 10.0002H15.345C15.5357 10.0002 15.6898 9.84572 15.6898 9.65537C15.6898 9.46503 15.5357 9.31055 15.345 9.31055Z" fill="#BDBDBD"/>
</svg>
