<svg width="52" height="60" viewBox="0 0 52 60" fill="none" xmlns="http://www.w3.org/2000/svg">
<path d="M48.8239 48.3858C48.8237 40.299 45.8743 32.6616 40.0607 25.6549C36.3955 21.2241 32.6802 18.462 31.5304 17.666L31.4534 17.6127H31.3597H20.158H20.0622L19.9841 17.6682C18.8509 18.474 15.1228 21.2233 11.457 25.6549C5.6558 32.6616 2.69376 40.3118 2.69376 48.3867C2.69376 53.305 6.69502 57.3062 11.6133 57.3062H39.9293C44.847 57.3062 48.8493 53.3053 48.8239 48.3858ZM48.8239 48.3858C48.8239 48.3861 48.8239 48.3864 48.8239 48.3867H48.5239L48.8239 48.3851C48.8239 48.3854 48.8239 48.3856 48.8239 48.3858ZM41.8566 24.0546L41.8572 24.0553C44.5839 27.3149 46.7388 30.7956 48.2985 34.3853C50.2536 38.9018 51.2426 43.6139 51.2426 48.3867C51.2426 54.6202 46.1628 59.7 39.9293 59.7H11.6133C5.37982 59.7 0.3 54.6202 0.3 48.3867C0.3 43.614 1.28899 38.902 3.24397 34.3857C4.8035 30.7963 6.97088 27.3152 9.68584 24.0548C12.9223 20.1735 16.1464 17.5449 17.8296 16.2949L18.0577 16.1255L17.9009 15.8885L11.0405 5.52297C11.0404 5.52293 11.0404 5.52288 11.0404 5.52284C10.7311 5.05378 10.7919 4.42398 11.1795 4.02648L11.1796 4.02636C13.4682 1.67653 15.777 0.599376 18.474 0.599376C20.6235 0.599376 22.8616 1.25482 25.8277 2.33897C26.091 2.44089 26.3523 2.48295 26.6445 2.48295C27.1224 2.48295 27.6384 2.35912 28.1624 2.18551C28.6504 2.02385 29.1656 1.81178 29.6832 1.59876C29.7229 1.58245 29.7626 1.56612 29.8022 1.54983L29.8046 1.54884C31.2326 0.947572 32.8134 0.3 34.5281 0.3C36.3812 0.3 38.0555 1.04417 39.6573 2.60957L39.6572 2.60959L39.6605 2.61265C40.0445 2.97695 40.128 3.55219 39.8768 4.02494C39.8767 4.02511 39.8766 4.02527 39.8765 4.02544L33.5156 15.8244L33.3916 16.0542L33.6022 16.2087C35.2723 17.4334 38.5582 20.0866 41.8566 24.0546ZM13.7875 4.83723L13.5874 5.00974L13.7332 5.23005L20.2571 15.0845L20.3461 15.2189H20.5073H30.9356H31.1148L31.1997 15.0611L37.1873 3.93426L37.3131 3.70048L37.0963 3.54717C36.0135 2.78126 35.139 2.66881 34.5156 2.66881C33.2727 2.66881 32.0058 3.1978 30.7508 3.72179L30.7077 3.73979L30.707 3.74009C29.3635 4.30511 28.0214 4.85177 26.632 4.85177C26.0669 4.85177 25.5157 4.75764 25.0014 4.57074C22.3467 3.58615 20.305 2.96819 18.474 2.96819C16.7331 2.96819 15.2809 3.54979 13.7875 4.83723Z" fill="#FBFBFB" stroke="#0B0F1A" stroke-width="0.6"/>
<path d="M26.1275 44.6612C26.0165 44.6372 25.9026 44.6329 25.7901 44.6497C24.6632 44.5185 23.8131 43.5651 23.8112 42.431C23.8112 41.8875 23.3706 41.4468 22.827 41.4468C22.2835 41.4468 21.8429 41.8875 21.8429 42.431C21.8458 44.3248 23.1125 45.9837 24.9386 46.4849V47.4691C24.9386 48.0126 25.3793 48.4533 25.9228 48.4533C26.4663 48.4533 26.9069 48.0126 26.9069 47.4691V46.5445C29.0147 46.1034 30.4472 44.1403 30.2256 41.9985C30.0036 39.8566 28.1992 38.229 26.0458 38.2285C24.8117 38.2285 23.8112 37.228 23.8112 35.9939C23.8112 34.7599 24.8117 33.7594 26.0458 33.7594C27.2799 33.7594 28.2804 34.7599 28.2804 35.9939C28.2804 36.5375 28.721 36.9781 29.2645 36.9781C29.808 36.9781 30.2487 36.5375 30.2487 35.9939C30.2458 34.0054 28.8527 32.2903 26.9069 31.8799V30.9842C26.9069 30.4407 26.4663 30 25.9228 30C25.3793 30 24.9386 30.4407 24.9386 30.9842V31.94C22.9078 32.4946 21.6007 34.4663 21.8804 36.5528C22.16 38.6394 23.9405 40.1969 26.0458 40.1964C27.2635 40.1964 28.2568 41.1714 28.2789 42.3887C28.3015 43.6059 27.3442 44.617 26.1275 44.6612Z" fill="#FBFBFB"/>
</svg>
