<svg width="60" height="60" viewBox="0 0 60 60" fill="none" xmlns="http://www.w3.org/2000/svg">
<mask id="path-1-inside-1" fill="white">
<path d="M50.031 53.3121C50.2488 53.094 50.5512 52.9688 50.8594 52.9688C51.1676 52.9688 51.4699 53.094 51.6879 53.3121C51.9059 53.5302 52.0312 53.8324 52.0312 54.1406C52.0312 54.4488 51.906 54.7512 51.6879 54.969C51.4699 55.187 51.1676 55.3125 50.8594 55.3125C50.5512 55.3125 50.2488 55.1871 50.031 54.969C49.813 54.7512 49.6875 54.4488 49.6875 54.1406C49.6875 53.8324 49.8129 53.5301 50.031 53.3121Z"/>
<path d="M4.97813 21.4381C5.19609 21.22 5.49726 21.0947 5.80664 21.0947C6.11485 21.0947 6.41719 21.22 6.63516 21.4381C6.85301 21.6561 6.97852 21.9584 6.97852 22.2666C6.97852 22.5748 6.85313 22.8771 6.63516 23.095C6.41719 23.313 6.11485 23.4385 5.80664 23.4385C5.49726 23.4385 5.19609 23.3131 4.97813 23.095C4.7591 22.8771 4.63371 22.5748 4.63371 22.2666C4.63371 21.9584 4.7591 21.6561 4.97813 21.4381Z"/>
<path d="M0.344276 0.343242C0.564121 0.123516 0.862244 0 1.17314 0L30.0006 0.00152344C30.6477 0.00152344 31.1723 0.526289 31.1723 1.1734V4.52461L42.2804 7.50105C42.9056 7.66863 43.2766 8.31117 43.109 8.93625L37.352 30.4216L42.3323 35.402C42.9662 34.4764 44.0305 33.8678 45.2344 33.8678H56.484C58.4225 33.8678 59.9995 35.4449 59.9995 37.3833V56.4844C59.9995 58.4229 58.4225 60 56.484 60H45.2342C43.5874 60 42.202 58.8614 41.8223 57.3305L40.429 58.5456C39.3533 59.4836 37.9752 60.0001 36.548 60.0001H1.17291C0.525799 60.0001 0.00103378 59.4754 0.00103378 58.8282V1.17188C0.00126648 0.861094 0.12455 0.562969 0.344276 0.343242ZM44.0626 56.4845C44.0626 57.1305 44.5883 57.6564 45.2345 57.6564H56.4841C57.1303 57.6564 57.656 57.1307 57.656 56.4845V37.3834C57.656 36.7372 57.1303 36.2115 56.4841 36.2115H52.0311V49.7109C52.0311 50.358 51.5063 50.8828 50.8592 50.8828C50.2121 50.8828 49.6874 50.358 49.6874 49.7109V36.2115H45.2344C44.5882 36.2115 44.0625 36.7372 44.0625 37.3834L44.0626 56.4845ZM40.5419 9.4616L31.1723 6.95098V11.2934L31.9577 11.5038C32.2581 11.5843 32.5139 11.7806 32.6693 12.0498C32.8247 12.319 32.8669 12.6388 32.7863 12.939C32.336 14.6196 33.3369 16.3532 35.0175 16.8035C35.3181 16.8841 35.5744 17.0808 35.7296 17.3505C35.8849 17.6202 35.9267 17.9406 35.8455 18.2411L31.2777 35.1557H33.6296L34.8417 30.4138C34.8803 30.2629 34.9478 30.1237 35.0381 30.0028L40.5419 9.4616ZM31.1723 16.6675V26.5559L33.3097 18.6416C32.4169 18.1806 31.6862 17.4908 31.1723 16.6675ZM14.3367 57.6562H36.5482C37.4089 57.6562 38.2401 57.3448 38.8889 56.7791L41.7188 54.311V38.1032L36.6027 32.987L35.6748 36.6175C35.5421 37.1362 35.0749 37.4991 34.5395 37.4991L11.4999 37.5005C10.5953 37.5005 9.85931 38.2364 9.85931 39.1411C9.85931 40.0458 10.5953 40.7817 11.4999 40.7817H23.3054C23.9525 40.7817 24.4773 41.3065 24.4773 41.9536C24.4773 42.6007 23.9525 43.1255 23.3054 43.1255H7.83197C6.92728 43.1255 6.19135 43.8614 6.19135 44.7661C6.19135 45.6708 6.92728 46.4067 7.83197 46.4067H23.3054C23.9525 46.4067 24.4773 46.9315 24.4773 47.5786C24.4773 48.2257 23.9525 48.7505 23.3054 48.7505H10.3394C9.43475 48.7505 8.69881 49.4864 8.69881 50.3911C8.69881 51.2958 9.43475 52.0317 10.3394 52.0317H23.3054C23.9525 52.0317 24.4773 52.5565 24.4773 53.2036C24.4773 53.8507 23.9525 54.3755 23.3054 54.3755H14.3367C13.432 54.3755 12.6961 55.1114 12.6961 56.0161C12.6962 56.9203 13.4321 57.6562 14.3367 57.6562ZM2.34478 57.6562H10.7073C10.4801 57.1555 10.3524 56.6004 10.3524 56.0156C10.3524 55.4309 10.4801 54.8757 10.7073 54.375H10.3394C8.14252 54.375 6.35518 52.5877 6.35518 50.3907C6.35518 49.75 6.50811 49.1445 6.77811 48.6075C5.09108 48.1441 3.84783 46.5979 3.84783 44.7659C3.84783 43.8771 4.14057 43.0555 4.63428 42.3922V27.5399C4.63428 26.8928 5.15904 26.368 5.80615 26.368C6.45326 26.368 6.97803 26.8928 6.97803 27.5399V40.8749C7.25342 40.8145 7.53901 40.7817 7.83221 40.7817H7.87064C7.64342 40.281 7.5158 39.7259 7.5158 39.1411C7.5158 36.9441 9.30314 35.1568 11.5001 35.1568H13.3838C11.3836 34.299 9.97873 32.3108 9.97873 30C9.97873 26.9075 12.4945 24.3916 15.587 24.3916C18.6793 24.3916 21.1952 26.9075 21.1952 30C21.1952 32.3108 19.7903 34.299 17.7901 35.1568H24.1959V12.8746C22.1025 12.4184 20.4506 10.7666 19.9945 8.67305H11.1796C10.7235 10.7666 9.07158 12.4184 6.97815 12.8746V16.5179C6.97815 17.165 6.45338 17.6898 5.80627 17.6898C5.15916 17.6898 4.6344 17.165 4.6344 16.5179V11.8283C4.6344 11.1812 5.15916 10.6564 5.80627 10.6564C7.54615 10.6564 8.96142 9.24094 8.96142 7.50117C8.96142 6.85406 9.48619 6.3293 10.1333 6.3293H21.0406C21.6878 6.3293 22.2125 6.85406 22.2125 7.50117C22.2125 9.24105 23.6279 10.6564 25.3677 10.6564C26.0148 10.6564 26.5395 11.1812 26.5395 11.8283V35.1567H28.8285V2.34504L2.34478 2.34375V57.6562ZM15.5867 33.2646C17.3869 33.2646 18.8512 31.8001 18.8512 30.0001C18.8512 28.2001 17.3867 26.7355 15.5867 26.7355C13.7867 26.7355 12.3222 28.2 12.3222 30C12.3222 31.8 13.7866 33.2646 15.5867 33.2646Z"/>
</mask>
<path d="M50.031 53.3121C50.2488 53.094 50.5512 52.9688 50.8594 52.9688C51.1676 52.9688 51.4699 53.094 51.6879 53.3121C51.9059 53.5302 52.0312 53.8324 52.0312 54.1406C52.0312 54.4488 51.906 54.7512 51.6879 54.969C51.4699 55.187 51.1676 55.3125 50.8594 55.3125C50.5512 55.3125 50.2488 55.1871 50.031 54.969C49.813 54.7512 49.6875 54.4488 49.6875 54.1406C49.6875 53.8324 49.8129 53.5301 50.031 53.3121Z" fill="#FBFBFB"/>
<path d="M4.97813 21.4381C5.19609 21.22 5.49726 21.0947 5.80664 21.0947C6.11485 21.0947 6.41719 21.22 6.63516 21.4381C6.85301 21.6561 6.97852 21.9584 6.97852 22.2666C6.97852 22.5748 6.85313 22.8771 6.63516 23.095C6.41719 23.313 6.11485 23.4385 5.80664 23.4385C5.49726 23.4385 5.19609 23.3131 4.97813 23.095C4.7591 22.8771 4.63371 22.5748 4.63371 22.2666C4.63371 21.9584 4.7591 21.6561 4.97813 21.4381Z" fill="#FBFBFB"/>
<path d="M0.344276 0.343242C0.564121 0.123516 0.862244 0 1.17314 0L30.0006 0.00152344C30.6477 0.00152344 31.1723 0.526289 31.1723 1.1734V4.52461L42.2804 7.50105C42.9056 7.66863 43.2766 8.31117 43.109 8.93625L37.352 30.4216L42.3323 35.402C42.9662 34.4764 44.0305 33.8678 45.2344 33.8678H56.484C58.4225 33.8678 59.9995 35.4449 59.9995 37.3833V56.4844C59.9995 58.4229 58.4225 60 56.484 60H45.2342C43.5874 60 42.202 58.8614 41.8223 57.3305L40.429 58.5456C39.3533 59.4836 37.9752 60.0001 36.548 60.0001H1.17291C0.525799 60.0001 0.00103378 59.4754 0.00103378 58.8282V1.17188C0.00126648 0.861094 0.12455 0.562969 0.344276 0.343242ZM44.0626 56.4845C44.0626 57.1305 44.5883 57.6564 45.2345 57.6564H56.4841C57.1303 57.6564 57.656 57.1307 57.656 56.4845V37.3834C57.656 36.7372 57.1303 36.2115 56.4841 36.2115H52.0311V49.7109C52.0311 50.358 51.5063 50.8828 50.8592 50.8828C50.2121 50.8828 49.6874 50.358 49.6874 49.7109V36.2115H45.2344C44.5882 36.2115 44.0625 36.7372 44.0625 37.3834L44.0626 56.4845ZM40.5419 9.4616L31.1723 6.95098V11.2934L31.9577 11.5038C32.2581 11.5843 32.5139 11.7806 32.6693 12.0498C32.8247 12.319 32.8669 12.6388 32.7863 12.939C32.336 14.6196 33.3369 16.3532 35.0175 16.8035C35.3181 16.8841 35.5744 17.0808 35.7296 17.3505C35.8849 17.6202 35.9267 17.9406 35.8455 18.2411L31.2777 35.1557H33.6296L34.8417 30.4138C34.8803 30.2629 34.9478 30.1237 35.0381 30.0028L40.5419 9.4616ZM31.1723 16.6675V26.5559L33.3097 18.6416C32.4169 18.1806 31.6862 17.4908 31.1723 16.6675ZM14.3367 57.6562H36.5482C37.4089 57.6562 38.2401 57.3448 38.8889 56.7791L41.7188 54.311V38.1032L36.6027 32.987L35.6748 36.6175C35.5421 37.1362 35.0749 37.4991 34.5395 37.4991L11.4999 37.5005C10.5953 37.5005 9.85931 38.2364 9.85931 39.1411C9.85931 40.0458 10.5953 40.7817 11.4999 40.7817H23.3054C23.9525 40.7817 24.4773 41.3065 24.4773 41.9536C24.4773 42.6007 23.9525 43.1255 23.3054 43.1255H7.83197C6.92728 43.1255 6.19135 43.8614 6.19135 44.7661C6.19135 45.6708 6.92728 46.4067 7.83197 46.4067H23.3054C23.9525 46.4067 24.4773 46.9315 24.4773 47.5786C24.4773 48.2257 23.9525 48.7505 23.3054 48.7505H10.3394C9.43475 48.7505 8.69881 49.4864 8.69881 50.3911C8.69881 51.2958 9.43475 52.0317 10.3394 52.0317H23.3054C23.9525 52.0317 24.4773 52.5565 24.4773 53.2036C24.4773 53.8507 23.9525 54.3755 23.3054 54.3755H14.3367C13.432 54.3755 12.6961 55.1114 12.6961 56.0161C12.6962 56.9203 13.4321 57.6562 14.3367 57.6562ZM2.34478 57.6562H10.7073C10.4801 57.1555 10.3524 56.6004 10.3524 56.0156C10.3524 55.4309 10.4801 54.8757 10.7073 54.375H10.3394C8.14252 54.375 6.35518 52.5877 6.35518 50.3907C6.35518 49.75 6.50811 49.1445 6.77811 48.6075C5.09108 48.1441 3.84783 46.5979 3.84783 44.7659C3.84783 43.8771 4.14057 43.0555 4.63428 42.3922V27.5399C4.63428 26.8928 5.15904 26.368 5.80615 26.368C6.45326 26.368 6.97803 26.8928 6.97803 27.5399V40.8749C7.25342 40.8145 7.53901 40.7817 7.83221 40.7817H7.87064C7.64342 40.281 7.5158 39.7259 7.5158 39.1411C7.5158 36.9441 9.30314 35.1568 11.5001 35.1568H13.3838C11.3836 34.299 9.97873 32.3108 9.97873 30C9.97873 26.9075 12.4945 24.3916 15.587 24.3916C18.6793 24.3916 21.1952 26.9075 21.1952 30C21.1952 32.3108 19.7903 34.299 17.7901 35.1568H24.1959V12.8746C22.1025 12.4184 20.4506 10.7666 19.9945 8.67305H11.1796C10.7235 10.7666 9.07158 12.4184 6.97815 12.8746V16.5179C6.97815 17.165 6.45338 17.6898 5.80627 17.6898C5.15916 17.6898 4.6344 17.165 4.6344 16.5179V11.8283C4.6344 11.1812 5.15916 10.6564 5.80627 10.6564C7.54615 10.6564 8.96142 9.24094 8.96142 7.50117C8.96142 6.85406 9.48619 6.3293 10.1333 6.3293H21.0406C21.6878 6.3293 22.2125 6.85406 22.2125 7.50117C22.2125 9.24105 23.6279 10.6564 25.3677 10.6564C26.0148 10.6564 26.5395 11.1812 26.5395 11.8283V35.1567H28.8285V2.34504L2.34478 2.34375V57.6562ZM15.5867 33.2646C17.3869 33.2646 18.8512 31.8001 18.8512 30.0001C18.8512 28.2001 17.3867 26.7355 15.5867 26.7355C13.7867 26.7355 12.3222 28.2 12.3222 30C12.3222 31.8 13.7866 33.2646 15.5867 33.2646Z" fill="#FBFBFB"/>
<path d="M50.031 53.3121C50.2488 53.094 50.5512 52.9688 50.8594 52.9688C51.1676 52.9688 51.4699 53.094 51.6879 53.3121C51.9059 53.5302 52.0312 53.8324 52.0312 54.1406C52.0312 54.4488 51.906 54.7512 51.6879 54.969C51.4699 55.187 51.1676 55.3125 50.8594 55.3125C50.5512 55.3125 50.2488 55.1871 50.031 54.969C49.813 54.7512 49.6875 54.4488 49.6875 54.1406C49.6875 53.8324 49.8129 53.5301 50.031 53.3121Z" stroke="#0B0F1A" stroke-width="0.6" mask="url(#path-1-inside-1)"/>
<path d="M4.97813 21.4381C5.19609 21.22 5.49726 21.0947 5.80664 21.0947C6.11485 21.0947 6.41719 21.22 6.63516 21.4381C6.85301 21.6561 6.97852 21.9584 6.97852 22.2666C6.97852 22.5748 6.85313 22.8771 6.63516 23.095C6.41719 23.313 6.11485 23.4385 5.80664 23.4385C5.49726 23.4385 5.19609 23.3131 4.97813 23.095C4.7591 22.8771 4.63371 22.5748 4.63371 22.2666C4.63371 21.9584 4.7591 21.6561 4.97813 21.4381Z" stroke="#0B0F1A" stroke-width="0.6" mask="url(#path-1-inside-1)"/>
<path d="M0.344276 0.343242C0.564121 0.123516 0.862244 0 1.17314 0L30.0006 0.00152344C30.6477 0.00152344 31.1723 0.526289 31.1723 1.1734V4.52461L42.2804 7.50105C42.9056 7.66863 43.2766 8.31117 43.109 8.93625L37.352 30.4216L42.3323 35.402C42.9662 34.4764 44.0305 33.8678 45.2344 33.8678H56.484C58.4225 33.8678 59.9995 35.4449 59.9995 37.3833V56.4844C59.9995 58.4229 58.4225 60 56.484 60H45.2342C43.5874 60 42.202 58.8614 41.8223 57.3305L40.429 58.5456C39.3533 59.4836 37.9752 60.0001 36.548 60.0001H1.17291C0.525799 60.0001 0.00103378 59.4754 0.00103378 58.8282V1.17188C0.00126648 0.861094 0.12455 0.562969 0.344276 0.343242ZM44.0626 56.4845C44.0626 57.1305 44.5883 57.6564 45.2345 57.6564H56.4841C57.1303 57.6564 57.656 57.1307 57.656 56.4845V37.3834C57.656 36.7372 57.1303 36.2115 56.4841 36.2115H52.0311V49.7109C52.0311 50.358 51.5063 50.8828 50.8592 50.8828C50.2121 50.8828 49.6874 50.358 49.6874 49.7109V36.2115H45.2344C44.5882 36.2115 44.0625 36.7372 44.0625 37.3834L44.0626 56.4845ZM40.5419 9.4616L31.1723 6.95098V11.2934L31.9577 11.5038C32.2581 11.5843 32.5139 11.7806 32.6693 12.0498C32.8247 12.319 32.8669 12.6388 32.7863 12.939C32.336 14.6196 33.3369 16.3532 35.0175 16.8035C35.3181 16.8841 35.5744 17.0808 35.7296 17.3505C35.8849 17.6202 35.9267 17.9406 35.8455 18.2411L31.2777 35.1557H33.6296L34.8417 30.4138C34.8803 30.2629 34.9478 30.1237 35.0381 30.0028L40.5419 9.4616ZM31.1723 16.6675V26.5559L33.3097 18.6416C32.4169 18.1806 31.6862 17.4908 31.1723 16.6675ZM14.3367 57.6562H36.5482C37.4089 57.6562 38.2401 57.3448 38.8889 56.7791L41.7188 54.311V38.1032L36.6027 32.987L35.6748 36.6175C35.5421 37.1362 35.0749 37.4991 34.5395 37.4991L11.4999 37.5005C10.5953 37.5005 9.85931 38.2364 9.85931 39.1411C9.85931 40.0458 10.5953 40.7817 11.4999 40.7817H23.3054C23.9525 40.7817 24.4773 41.3065 24.4773 41.9536C24.4773 42.6007 23.9525 43.1255 23.3054 43.1255H7.83197C6.92728 43.1255 6.19135 43.8614 6.19135 44.7661C6.19135 45.6708 6.92728 46.4067 7.83197 46.4067H23.3054C23.9525 46.4067 24.4773 46.9315 24.4773 47.5786C24.4773 48.2257 23.9525 48.7505 23.3054 48.7505H10.3394C9.43475 48.7505 8.69881 49.4864 8.69881 50.3911C8.69881 51.2958 9.43475 52.0317 10.3394 52.0317H23.3054C23.9525 52.0317 24.4773 52.5565 24.4773 53.2036C24.4773 53.8507 23.9525 54.3755 23.3054 54.3755H14.3367C13.432 54.3755 12.6961 55.1114 12.6961 56.0161C12.6962 56.9203 13.4321 57.6562 14.3367 57.6562ZM2.34478 57.6562H10.7073C10.4801 57.1555 10.3524 56.6004 10.3524 56.0156C10.3524 55.4309 10.4801 54.8757 10.7073 54.375H10.3394C8.14252 54.375 6.35518 52.5877 6.35518 50.3907C6.35518 49.75 6.50811 49.1445 6.77811 48.6075C5.09108 48.1441 3.84783 46.5979 3.84783 44.7659C3.84783 43.8771 4.14057 43.0555 4.63428 42.3922V27.5399C4.63428 26.8928 5.15904 26.368 5.80615 26.368C6.45326 26.368 6.97803 26.8928 6.97803 27.5399V40.8749C7.25342 40.8145 7.53901 40.7817 7.83221 40.7817H7.87064C7.64342 40.281 7.5158 39.7259 7.5158 39.1411C7.5158 36.9441 9.30314 35.1568 11.5001 35.1568H13.3838C11.3836 34.299 9.97873 32.3108 9.97873 30C9.97873 26.9075 12.4945 24.3916 15.587 24.3916C18.6793 24.3916 21.1952 26.9075 21.1952 30C21.1952 32.3108 19.7903 34.299 17.7901 35.1568H24.1959V12.8746C22.1025 12.4184 20.4506 10.7666 19.9945 8.67305H11.1796C10.7235 10.7666 9.07158 12.4184 6.97815 12.8746V16.5179C6.97815 17.165 6.45338 17.6898 5.80627 17.6898C5.15916 17.6898 4.6344 17.165 4.6344 16.5179V11.8283C4.6344 11.1812 5.15916 10.6564 5.80627 10.6564C7.54615 10.6564 8.96142 9.24094 8.96142 7.50117C8.96142 6.85406 9.48619 6.3293 10.1333 6.3293H21.0406C21.6878 6.3293 22.2125 6.85406 22.2125 7.50117C22.2125 9.24105 23.6279 10.6564 25.3677 10.6564C26.0148 10.6564 26.5395 11.1812 26.5395 11.8283V35.1567H28.8285V2.34504L2.34478 2.34375V57.6562ZM15.5867 33.2646C17.3869 33.2646 18.8512 31.8001 18.8512 30.0001C18.8512 28.2001 17.3867 26.7355 15.5867 26.7355C13.7867 26.7355 12.3222 28.2 12.3222 30C12.3222 31.8 13.7866 33.2646 15.5867 33.2646Z" stroke="#0B0F1A" stroke-width="0.6" mask="url(#path-1-inside-1)"/>
</svg>
