<svg width="63" height="60" viewBox="0 0 63 60" fill="none" xmlns="http://www.w3.org/2000/svg">
<path d="M52.7388 19.707C52.7382 19.707 52.7374 19.707 52.7367 19.707H0.888676C0.398453 19.7065 0.000518988 20.1034 5.07404e-07 20.5936C5.07404e-07 20.5943 5.07404e-07 20.5951 5.07404e-07 20.5957V45.4828C-0.000517973 45.973 0.396379 46.3709 0.886602 46.3714C0.88725 46.3714 0.888028 46.3714 0.888676 46.3714H36.1453C36.6361 46.3714 37.034 45.9735 37.034 45.4828C37.034 44.992 36.6361 44.5941 36.1453 44.5941H1.77735V21.4844H51.848V23.7066C51.8475 24.1968 52.2444 24.5947 52.7346 24.5953C52.7353 24.5953 52.7361 24.5953 52.7367 24.5953C53.2269 24.5958 53.6249 24.1989 53.6254 23.7087C53.6254 23.708 53.6254 23.7072 53.6254 23.7066V20.5957C53.6259 20.1055 53.229 19.7077 52.7388 19.707Z" fill="#FBFBFB"/>
<path d="M46.7099 15.5807L5.23142 6.24807C5.00121 6.19661 4.75999 6.23835 4.56051 6.36421C4.36128 6.49111 4.22038 6.69163 4.16853 6.92209L2.09461 16.2547C1.98806 16.7341 2.29034 17.209 2.76967 17.3156C3.24901 17.4221 3.72394 17.1198 3.83049 16.6405L5.7105 8.17785L46.32 17.3145C46.3843 17.3294 46.45 17.3368 46.5159 17.3363C47.0067 17.3354 47.4038 16.9368 47.4031 16.4461C47.4023 16.0311 47.1145 15.6721 46.7099 15.5807Z" fill="#FBFBFB"/>
<path d="M41.6735 10.4384L16.7864 0.0688201C16.3539 -0.111481 15.8555 0.0737457 15.6458 0.492937L13.5718 4.64078C13.3376 5.07397 13.4989 5.61514 13.9322 5.84936C14.3654 6.08358 14.9065 5.92233 15.1408 5.48901C15.15 5.47203 15.1587 5.45467 15.1667 5.43704V5.43911L16.8683 2.03373L40.987 12.0829C41.4412 12.2724 41.9631 12.058 42.1526 11.6038C42.3421 11.1499 42.1277 10.6281 41.6735 10.4384Z" fill="#FBFBFB"/>
<path d="M42.3017 23.8545H34.0713C33.5805 23.8545 33.1826 24.2524 33.1826 24.7432C33.1826 25.2339 33.5805 25.6318 34.0713 25.6318H42.3017C42.7924 25.6318 43.1903 25.2339 43.1903 24.7432C43.1903 24.2524 42.7924 23.8545 42.3017 23.8545Z" fill="#FBFBFB"/>
<path d="M25.7756 23.9141C20.7359 23.9141 16.6504 27.9996 16.6504 33.0393C16.6556 38.0769 20.7381 42.1594 25.7756 42.1646C30.8154 42.1646 34.9009 38.0791 34.9009 33.0393C34.9009 27.9996 30.8154 23.9141 25.7756 23.9141ZM25.7756 40.5054C21.6522 40.5054 18.3095 37.1628 18.3095 33.0393C18.3141 28.9178 21.6541 25.5777 25.7756 25.5732C29.8991 25.5732 33.2418 28.9158 33.2418 33.0393C33.2418 37.1628 29.8991 40.5054 25.7756 40.5054Z" fill="#FBFBFB"/>
<path d="M50.6629 26.8174C45.167 26.8174 39.2563 28.1157 39.2563 30.9652V55.8523C39.2563 58.7019 45.167 60.0001 50.6629 60.0001C56.1588 60.0001 62.0695 58.7019 62.0695 55.8523V30.9652C62.0695 28.1157 56.1588 26.8174 50.6629 26.8174ZM59.9956 55.8367C59.839 56.4123 56.7291 57.9262 50.6629 57.9262C44.5967 57.9262 41.4869 56.4123 41.3303 55.8523V54.2222C43.5369 55.3338 47.1818 55.8523 50.6629 55.8523C54.144 55.8523 57.79 55.3286 59.9956 54.2212V55.8367ZM59.9956 51.6889C59.839 52.2644 56.7291 53.7784 50.6629 53.7784C44.5967 53.7784 41.4869 52.2644 41.3303 51.7044V50.0743C43.5369 51.186 47.1818 51.7044 50.6629 51.7044C54.144 51.7044 57.79 51.1808 59.9956 50.0733V51.6889ZM59.9956 47.5411C59.839 48.1166 56.7291 49.6305 50.6629 49.6305C44.5967 49.6305 41.4869 48.1166 41.3303 47.5566V45.9265C43.5369 47.0381 47.1818 47.5566 50.6629 47.5566C54.144 47.5566 57.79 47.0329 59.9956 45.9255V47.5411ZM59.9956 43.3932C59.839 43.9687 56.7291 45.4827 50.6629 45.4827C44.5967 45.4827 41.4869 43.9687 41.3303 43.4088V41.7787C43.5369 42.8903 47.1818 43.4088 50.6629 43.4088C54.144 43.4088 57.79 42.8851 59.9956 41.7776V43.3932ZM59.9956 39.2454C59.839 39.8209 56.7291 41.3348 50.6629 41.3348C44.5967 41.3348 41.4869 39.8209 41.3303 39.2609V37.6308C43.5369 38.7373 47.1818 39.2609 50.6629 39.2609C54.144 39.2609 57.79 38.7373 59.9956 37.6298V39.2454ZM59.9956 35.0975C59.839 35.673 56.7291 37.187 50.6629 37.187C44.5967 37.187 41.4869 35.673 41.3303 35.1131V33.483C43.5369 34.5894 47.1818 35.1131 50.6629 35.1131C54.144 35.1131 57.79 34.5894 59.9956 33.4819V35.0975ZM50.6629 33.0391C44.606 33.0391 41.4972 31.5293 41.3303 30.9839V30.9777C41.4972 30.4001 44.606 28.8913 50.6629 28.8913C56.6773 28.8913 59.7882 30.3783 59.9956 30.9652C59.7882 31.5521 56.6773 33.0391 50.6629 33.0391Z" fill="#FBFBFB"/>
<path d="M17.4797 40.4448H9.64134L5.92487 36.3799V29.6397L10.0292 25.6318H17.4797C17.9705 25.6318 18.3684 25.2339 18.3684 24.7432C18.3684 24.2524 17.9705 23.8545 17.4797 23.8545H9.6683C9.43602 23.854 9.21269 23.9445 9.04613 24.1065L4.41402 28.6245C4.24098 28.8267 4.1461 29.0843 4.14649 29.3504V36.7253C4.14649 36.947 4.22931 37.1608 4.37876 37.3246L8.59194 41.9329C8.76031 42.1172 8.99856 42.2223 9.24833 42.2222H17.4797C17.9705 42.2222 18.3684 41.8242 18.3684 41.3335C18.3684 40.8428 17.9706 40.4448 17.4797 40.4448Z" fill="#FBFBFB"/>
<path d="M26.2944 32.0014H25.2574C24.9349 32.0014 24.739 31.821 24.739 31.7422C24.739 31.6634 24.9349 31.483 25.2574 31.483H27.8498C28.4225 31.483 28.8868 31.0187 28.8868 30.446C28.8868 29.8733 28.4225 29.409 27.8498 29.409H26.8129C26.8129 28.8364 26.3486 28.3721 25.7759 28.3721C25.2033 28.3721 24.739 28.8364 24.739 29.409V29.4557C23.5888 29.6181 22.7175 30.5766 22.665 31.737C22.7393 33.0966 23.8973 34.1412 25.2574 34.0754H26.2944C26.6169 34.0754 26.8129 34.2558 26.8129 34.3346C26.8129 34.4134 26.6169 34.5938 26.2944 34.5938H23.702C23.1293 34.5938 22.665 35.0581 22.665 35.6308C22.665 36.2035 23.1293 36.6678 23.702 36.6678H24.739C24.739 37.2404 25.2033 37.7047 25.7759 37.7047C26.3486 37.7047 26.8129 37.2404 26.8129 36.6678V36.6211C27.963 36.4587 28.8343 35.5001 28.8868 34.3398C28.8125 32.9802 27.6545 31.9356 26.2944 32.0014Z" fill="#FBFBFB"/>
</svg>
