<svg width="17" height="16" viewBox="0 0 17 16" fill="none" xmlns="http://www.w3.org/2000/svg">
<path d="M14.44 5.09094H7.59998C6.30798 5.09094 5.31998 6.03639 5.31998 7.27275V13.8182C5.31998 15.0545 6.30798 16 7.59998 16H14.44C15.732 16 16.72 15.0545 16.72 13.8182V7.27275C16.72 6.03639 15.732 5.09094 14.44 5.09094ZM15.2 13.8182C15.2 14.2545 14.896 14.5455 14.44 14.5455H7.59998C7.14398 14.5455 6.83998 14.2545 6.83998 13.8182V7.27275C6.83998 6.83639 7.14398 6.54548 7.59998 6.54548H14.44C14.896 6.54548 15.2 6.83639 15.2 7.27275V13.8182Z" fill="#FBFBFB"/>
<path d="M3.03999 9.45452H2.27999C1.824 9.45452 1.52 9.16361 1.52 8.72725V2.18181C1.52 1.74545 1.824 1.45454 2.27999 1.45454H9.11998C9.57598 1.45454 9.87998 1.74545 9.87998 2.18181V2.90908C9.87998 3.34545 10.184 3.63635 10.64 3.63635C11.096 3.63635 11.4 3.34545 11.4 2.90908V2.18181C11.4 0.945452 10.412 0 9.11998 0H2.27999C0.987998 0 0 0.945452 0 2.18181V8.72725C0 9.96361 0.987998 10.9091 2.27999 10.9091H3.03999C3.49599 10.9091 3.79999 10.6182 3.79999 10.1818C3.79999 9.74543 3.49599 9.45452 3.03999 9.45452Z" fill="#FBFBFB"/>
</svg>
