<svg width="53" height="60" viewBox="0 0 53 60" fill="none" xmlns="http://www.w3.org/2000/svg">
<path d="M27.1275 32.7452C27.0165 32.7212 26.9026 32.7168 26.7901 32.7337C25.6632 32.6025 24.8131 31.6491 24.8112 30.5149C24.8112 29.9714 24.3706 29.5308 23.827 29.5308C23.2835 29.5308 22.8429 29.9714 22.8429 30.5149C22.8458 32.4088 24.1125 34.0677 25.9386 34.5689V35.5531C25.9386 36.0966 26.3793 36.5372 26.9228 36.5372C27.4663 36.5372 27.9069 36.0966 27.9069 35.5531V34.6285C30.0147 34.1873 31.4472 32.2243 31.2256 30.0824C31.0036 27.9406 29.1992 26.313 27.0458 26.3125C25.8117 26.3125 24.8112 25.312 24.8112 24.0779C24.8112 22.8439 25.8117 21.8434 27.0458 21.8434C28.2799 21.8434 29.2804 22.8439 29.2804 24.0779C29.2804 24.6214 29.721 25.0621 30.2645 25.0621C30.808 25.0621 31.2487 24.6214 31.2487 24.0779C31.2458 22.0894 29.8527 20.3743 27.9069 19.9639V19.0682C27.9069 18.5247 27.4663 18.084 26.9228 18.084C26.3793 18.084 25.9386 18.5247 25.9386 19.0682V20.024C23.9078 20.5785 22.6007 22.5503 22.8804 24.6368C23.16 26.7234 24.9405 28.2809 27.0458 28.2804C28.2635 28.2804 29.2568 29.2554 29.2789 30.4727C29.3015 31.6899 28.3442 32.701 27.1275 32.7452Z" fill="#FBFBFB"/>
<path d="M12.7744 27.3721C12.7744 35.2541 19.1638 41.6435 27.0459 41.6435C34.9279 41.6435 41.3173 35.2541 41.3173 27.3721C41.3173 19.49 34.9279 13.1006 27.0459 13.1006C19.1677 13.1092 12.7835 19.4939 12.7744 27.3721ZM27.0459 15.0689C33.8409 15.0689 39.349 20.577 39.349 27.3721C39.349 34.1671 33.8409 39.6752 27.0459 39.6752C20.2509 39.6752 14.7428 34.1671 14.7428 27.3721C14.7504 20.5804 20.2542 15.0766 27.0459 15.0689Z" fill="#FBFBFB"/>
<path d="M46.1686 44.0706L38.4591 47.7132C37.3946 45.7333 35.3528 44.4733 33.1057 44.4099L25.9887 44.2143C24.8618 44.1821 23.7561 43.8967 22.7541 43.3791L22.0299 43.0038C18.322 41.071 13.9023 41.0758 10.1982 43.0163L10.2434 41.3757C10.2583 40.8322 9.8301 40.3795 9.28659 40.3646L1.4824 40.1498C0.938898 40.1349 0.486697 40.5631 0.4718 41.1066L0.000377228 58.2325C-0.0145198 58.776 0.413653 59.2287 0.957159 59.2436L8.76134 59.4584H8.78826C9.32167 59.4584 9.75801 59.0341 9.77243 58.5012L9.79502 57.6818L11.8225 56.5962C12.6183 56.1681 13.5486 56.0662 14.4179 56.3122L26.525 59.7102C26.5461 59.7165 26.5673 59.7213 26.5889 59.7261C27.464 59.9092 28.3559 60.001 29.2497 60.0005C31.1431 60.0014 33.0144 59.5935 34.7352 58.8034C34.7775 58.7842 34.8184 58.7616 34.8573 58.7362L52.4114 47.3816C52.8487 47.0986 52.99 46.5243 52.7339 46.0707C51.4306 43.7583 48.5401 42.8774 46.1686 44.0706ZM1.99515 57.3031L2.41227 42.1446L8.24859 42.3051L7.83147 57.4641L1.99515 57.3031ZM33.8486 57.0456C31.7106 58.0105 29.3228 58.2767 27.0248 57.8072L14.9504 54.4179C13.5914 54.0339 12.1368 54.193 10.8936 54.8614L9.85749 55.4165L10.1348 45.3378C13.4179 43.1542 17.6285 42.9298 21.125 44.7516L21.8492 45.1269C23.115 45.7804 24.511 46.1408 25.9349 46.1822L33.0524 46.3778C35.0515 46.4354 36.7492 47.8588 37.1548 49.8176L26.5534 49.5249C26.0098 49.51 25.5576 49.9387 25.5423 50.4817C25.5274 51.0252 25.956 51.4779 26.499 51.4928L38.1986 51.8147H38.226C38.7589 51.8143 39.1948 51.3899 39.2092 50.8575C39.2212 50.4298 39.1895 50.0016 39.1141 49.5806L47.0216 45.8443C47.0292 45.841 47.0369 45.8371 47.0446 45.8333C48.1662 45.2658 49.5224 45.4556 50.445 46.3095L33.8486 57.0456Z" fill="#FBFBFB"/>
<path d="M28.0299 10.3338V0.984173C28.0299 0.440667 27.5892 0 27.0457 0C26.5022 0 26.0615 0.440667 26.0615 0.984173V10.3338C26.0615 10.8773 26.5022 11.318 27.0457 11.318C27.5892 11.318 28.0299 10.8773 28.0299 10.3338Z" fill="#FBFBFB"/>
<path d="M35.4107 10.3339V5.90507C35.4107 5.36157 34.9701 4.9209 34.4266 4.9209C33.883 4.9209 33.4424 5.36157 33.4424 5.90507V10.3339C33.4424 10.8774 33.883 11.318 34.4266 11.318C34.9701 11.318 35.4107 10.8774 35.4107 10.3339Z" fill="#FBFBFB"/>
<path d="M20.6485 10.3339V5.90507C20.6485 5.36157 20.2079 4.9209 19.6643 4.9209C19.1208 4.9209 18.6802 5.36157 18.6802 5.90507V10.3339C18.6802 10.8774 19.1208 11.318 19.6643 11.318C20.2079 11.318 20.6485 10.8774 20.6485 10.3339Z" fill="#FBFBFB"/>
</svg>
