<svg width="69" height="60" viewBox="0 0 69 60" fill="none" xmlns="http://www.w3.org/2000/svg">
<path d="M5.49806 25.6136C5.85524 25.7565 6.26947 25.7565 6.62665 25.5851L17.7836 20.5138C18.4978 20.1709 18.7978 19.3138 18.4549 18.5996C18.1264 17.9139 17.3122 17.5995 16.6121 17.9139L8.79798 21.4709C12.5265 10.314 22.912 2.85703 34.8688 2.85703C47.3972 2.85703 58.354 11.2283 61.511 23.2137C61.711 23.9708 62.4967 24.428 63.2538 24.2279C64.0109 24.028 64.4681 23.2422 64.268 22.4851C60.7823 9.25693 48.6969 0 34.8687 0C21.6834 0 10.2121 8.22838 6.06939 20.5424L2.78379 12.3284C2.54099 11.5855 1.72672 11.1713 0.983835 11.4141C0.240951 11.6569 -0.17328 12.4711 0.0695264 13.214C0.0838564 13.2712 0.112383 13.3283 0.140909 13.3854L4.69799 24.8137C4.84089 25.1709 5.12655 25.4709 5.49806 25.6136Z" fill="#FBFBFB"/>
<path d="M68.5397 46.6988C68.5254 46.6703 68.5112 46.6417 68.5112 46.6131L63.9541 35.1849C63.8112 34.8277 63.5255 34.5277 63.1542 34.3849C62.797 34.242 62.3828 34.2564 62.0256 34.4135L50.8686 39.4848C50.1401 39.7848 49.7972 40.6276 50.0972 41.3562C50.3972 42.0847 51.24 42.4276 51.9686 42.1276C51.9971 42.1132 52.0257 42.099 52.0543 42.0847L59.8684 38.5277C56.1114 49.6846 45.7116 57.1415 33.769 57.1415C21.2407 57.1415 10.2838 48.7703 7.12677 36.7849C6.92682 36.0278 6.14108 35.5706 5.384 35.7707C4.62692 35.9706 4.16969 36.7564 4.36978 37.5134C7.84113 50.756 19.9409 59.9986 33.7691 59.9986C46.9545 59.9986 58.4115 51.7702 62.5685 39.4562L65.8541 47.6702C66.1256 48.4131 66.9398 48.7988 67.6826 48.5273C68.4253 48.256 68.8111 47.4417 68.5397 46.6988Z" fill="#FBFBFB"/>
<path d="M34.1361 38.6297C33.9513 38.5893 33.7616 38.582 33.5743 38.6103C31.6975 38.3899 30.2816 36.7882 30.2784 34.883C30.2784 33.97 29.5445 33.2297 28.6393 33.2297C27.7341 33.2297 27.0002 33.97 27.0002 34.883C27.005 38.0646 29.1147 40.8513 32.1561 41.6933V43.3467C32.1561 44.2597 32.89 45 33.7952 45C34.7004 45 35.4343 44.2597 35.4343 43.3467V41.7934C38.9447 41.0523 41.3305 37.7546 40.9616 34.1565C40.5918 30.5584 37.5865 27.8241 34.0001 27.8233C31.9448 27.8233 30.2784 26.1425 30.2784 24.0693C30.2784 21.9962 31.9448 20.3154 34.0001 20.3154C36.0554 20.3154 37.7217 21.9962 37.7217 24.0693C37.7217 24.9824 38.4557 25.7227 39.3609 25.7227C40.2661 25.7227 41 24.9824 41 24.0693C40.9952 20.7288 38.675 17.8476 35.4343 17.1581V15.6533C35.4343 14.7403 34.7004 14 33.7952 14C32.89 14 32.1561 14.7403 32.1561 15.6533V17.259C28.7738 18.1907 26.5968 21.503 27.0626 25.0082C27.5284 28.5135 30.4937 31.1299 34.0001 31.1291C36.0282 31.1291 37.6825 32.7671 37.7193 34.812C37.757 36.8568 36.1626 38.5554 34.1361 38.6297Z" fill="#FBFBFB"/>
</svg>
