<svg width="68" height="60" viewBox="0 0 68 60" fill="none" xmlns="http://www.w3.org/2000/svg">
<path fill-rule="evenodd" clip-rule="evenodd" d="M12.212 39.1145L5.34132 41.7525C2.00734 43.0326 -0.136408 46.2804 0.00675565 49.8346V58.7951C0.0341771 59.4707 0.59337 60 1.26646 60C1.28378 60 1.30111 59.9997 1.31861 59.999C2.01474 59.9707 2.55627 59.3861 2.52801 58.693L2.52835 49.7331C2.50412 49.1296 2.57596 48.5393 2.72972 47.9778L6.55828 51.7889C7.65766 52.8832 8.26312 54.3384 8.26312 55.8859V58.7439C8.26312 59.4375 8.82803 59.9998 9.52484 59.9998C10.2216 59.9998 10.7866 59.4375 10.7866 58.7439V55.8859C10.7866 53.6674 9.91867 51.5816 8.34253 50.0126L3.98017 45.6702C4.58546 44.9868 5.35527 44.439 6.24958 44.0958L12.626 41.6475L17.5013 48.9271C18.1057 49.8296 19.0742 50.4085 20.1585 50.5153C20.2791 50.5272 20.3997 50.5331 20.5195 50.5331C21.1473 50.5331 21.7561 50.3688 22.2951 50.0652L21.2489 58.6884C21.2183 59.3814 21.7578 59.968 22.454 59.9985C22.4728 59.9993 22.4916 59.9997 22.5105 59.9997C23.1817 59.9997 23.7402 59.4732 23.77 58.799L24.741 51.8716H27.3604L28.3314 58.799C28.3612 59.473 28.9197 59.9997 29.5909 59.9997C29.6098 59.9997 29.6286 59.9993 29.6474 59.9985C30.3437 59.968 30.8833 59.3814 30.8525 58.6884L29.8063 50.0652C30.3453 50.3688 30.9543 50.5331 31.5819 50.5331C31.7017 50.5331 31.8223 50.5272 31.9429 50.5153C33.0272 50.4085 33.9958 49.8296 34.6001 48.9271L39.4754 41.6475L45.8518 44.0958C46.2668 44.2552 46.663 44.4615 47.0293 44.7092C47.0492 44.7227 47.0695 44.7355 47.09 44.7477C46.3366 45.3366 45.6607 46.0143 45.0657 46.7787C41.208 51.7363 42.0692 58.9408 42.109 59.2406C42.1691 59.6779 42.4608 60 42.8622 60C42.8711 60 42.8809 60 42.8898 59.9991C43.3009 59.984 43.5601 59.6342 43.595 59.1844C43.6226 58.8534 44.4319 50.8441 55.8142 50.853L55.8394 55.9739C55.8394 56.3192 56.0206 56.6333 56.3049 56.7805C56.5869 56.9286 56.9256 56.8831 57.167 56.6627L67.7034 47.0767C67.8919 46.9071 68.0008 46.6529 68 46.3861C67.9992 46.1184 67.8895 45.8649 67.701 45.6963L57.1654 36.1996C56.9225 35.9819 56.5869 35.9399 56.3042 36.0854C56.0206 36.2335 55.8403 36.5476 55.8403 36.8911L55.8151 41.8996C53.202 41.9909 50.9154 42.5424 48.9923 43.5329C48.9532 43.1804 48.7651 42.8465 48.4473 42.6315C47.922 42.2763 47.3543 41.9804 46.7599 41.7523L39.8893 39.1143L36.3862 35.6273C36.1615 35.4034 35.8714 35.2822 35.5753 35.2632V32.4886C37.2262 30.7363 38.4016 28.5173 38.8758 26.0174C39.1701 26.0307 39.4675 26.0072 39.7607 25.9474C41.4395 25.6053 42.658 24.0548 42.658 22.261V21.3594C42.658 19.8799 41.8342 18.5857 40.6027 17.9886C40.9701 16.4916 41.4775 13.8531 41.4775 10.6928C41.4775 7.07018 39.8072 5.31202 38.4058 4.47505C37.3947 3.87119 36.3958 3.66622 35.8094 3.59689C34.7381 2.71924 31.3567 0.320204 26.1187 0.0383689C20.4492 -0.266911 15.9887 1.25413 13.2202 4.43637C10.3579 7.72646 9.44022 12.6421 10.5544 18.674C9.86601 19.355 9.44325 20.3076 9.44325 21.3453V22.2612C9.44325 24.055 10.6617 25.6055 12.3405 25.9476C12.6337 26.0072 12.931 26.0308 13.2254 26.0176C13.6996 28.5175 14.8749 30.7365 16.5259 32.4888V35.2634C16.2298 35.2823 15.9399 35.4036 15.715 35.6275L12.212 39.1145ZM38.961 23.5065C37.7502 23.4173 36.6285 24.2938 36.4059 25.4997C35.488 30.4739 31.1331 34.0843 26.0507 34.0843C20.9683 34.0843 16.6134 30.4739 15.6955 25.4997C15.4728 24.2934 14.351 23.4186 13.1404 23.5064C13.045 23.5134 12.946 23.5067 12.8469 23.4865C12.3452 23.3843 11.9669 22.8575 11.9669 22.261V21.345C11.9669 20.7739 12.3516 20.2674 12.8618 20.1662C13.0082 20.1374 13.398 20.1396 13.8059 20.2352C14.7998 20.4685 15.8082 19.9541 16.2024 19.0121L17.1191 16.8209C20.4143 17.4768 30.3136 18.8219 35.3027 12.6389C35.7392 12.098 35.6524 11.3076 35.1092 10.8732C34.5656 10.4388 33.7716 10.5252 33.3354 11.0659C28.4498 17.1206 16.7981 14.1804 16.6808 14.1499C16.0722 13.992 15.4386 14.3041 15.1967 14.8822L14.0114 17.716C13.6431 17.6548 13.2732 17.6294 12.9352 17.6413C12.1199 12.6568 12.8714 8.67445 15.1281 6.08049C17.367 3.50697 21.1206 2.28518 25.9827 2.54642C31.2944 2.83227 34.3961 5.69751 34.4268 5.72632C34.661 5.94686 34.9749 6.07329 35.2974 6.07329C35.2974 6.07329 36.2669 6.09657 37.1836 6.67548C38.3584 7.41733 38.9541 8.7689 38.9541 10.6925C38.9541 13.8866 38.377 16.535 38.0529 17.7712C37.552 17.9117 37.0847 18.1579 36.6847 18.4985C36.3225 18.1853 35.9934 17.8315 35.7022 17.4417C35.2863 16.885 34.4962 16.7693 33.9368 17.1833C33.3778 17.5971 33.2613 18.3838 33.6772 18.9404C34.2611 19.7221 34.9573 20.3995 35.7463 20.954C36.1843 21.2617 36.7541 21.353 37.2709 21.1976C37.6237 21.0918 37.9327 20.8768 38.1644 20.5762C38.4196 20.2448 38.823 20.0909 39.2443 20.1646C39.7434 20.2518 40.1345 20.7766 40.1345 21.3592V22.2612C40.1345 22.8575 39.7562 23.3845 39.2545 23.4866C39.1553 23.5067 39.0567 23.5134 38.961 23.5065ZM31.6941 48.0158C31.5007 48.0349 31.1287 48.0193 30.8087 47.7008L27.8965 44.8019L35.4366 38.2345L37.4117 40.2006L32.5003 47.534C32.2493 47.9088 31.8874 47.9969 31.6941 48.0158ZM27.1728 47.6337L27.2492 49.3599H24.8526L24.9289 47.6337L26.0509 46.5169L27.1728 47.6337ZM33.0519 36.9737L26.0507 43.0717L19.0493 36.9737V34.57C21.0849 35.8586 23.4934 36.5962 26.0507 36.5962C28.608 36.5962 31.0163 35.8586 33.0519 34.57V36.9737ZM20.4069 48.0158C20.2138 47.9969 19.8519 47.909 19.6008 47.534L14.6895 40.2005L16.6647 38.2343L24.2047 44.8018L21.2925 47.7007C20.9725 48.0193 20.6006 48.0349 20.4069 48.0158ZM56.6503 49.0541H56.6519C56.8672 49.0541 57.0736 49.1478 57.2255 49.3147C57.3791 49.4815 57.4644 49.7091 57.4644 49.9464V54.085L65.9054 46.3915L57.4643 38.7694V42.7786C57.4643 43.272 57.1012 43.6709 56.6519 43.6709C52.0287 43.6709 48.4968 45.1414 46.3047 47.9325C44.6562 50.033 43.8981 52.6038 43.6389 54.7372C45.4126 52.0746 48.5196 49.0595 56.6503 49.0541Z" fill="#FBFBFB"/>
</svg>
