<svg width="20" height="21" viewBox="0 0 20 21" fill="none" xmlns="http://www.w3.org/2000/svg">
<path d="M8.74492 12.3991L8.39136 12.0456L6.43777 10.092L6.43757 10.0918C6.27313 9.92715 6.00645 9.92715 5.84201 10.0918L5.84161 10.0922C5.67697 10.2566 5.67697 10.5233 5.84161 10.6877L5.84181 10.6879L8.44713 13.2933C8.52973 13.3759 8.63715 13.4171 8.74532 13.4171C8.85377 13.4171 8.96045 13.3761 9.0427 13.2937L9.0431 13.2933L15.0334 7.30295L8.74492 12.3991ZM8.74492 12.3991L9.09848 12.0456M8.74492 12.3991L9.09848 12.0456M9.09848 12.0456L14.437 6.70658M9.09848 12.0456L14.437 6.70658M14.437 6.70658C14.4371 6.70655 14.4371 6.70652 14.4371 6.70649L14.437 6.70658Z" fill="#FBFBFB" stroke="#FBFBFB"/>
<path d="M2.66444 1.14716L2.66443 1.14718C2.63827 1.26912 2.71588 1.38919 2.83801 1.41535L2.83804 1.41536L5.29999 1.94293L6.55807 2.21253L5.44807 2.86319C2.73429 4.45395 1.03152 7.37363 1.03152 10.5737C1.03152 15.5014 5.04125 19.5112 9.96904 19.5112C10.0938 19.5112 10.195 19.4101 10.195 19.2853C10.195 19.1605 10.0938 19.0593 9.96904 19.0593C5.28961 19.0593 1.48344 15.2531 1.48344 10.5737C1.48344 7.52334 3.11298 4.74089 5.70735 3.2345L6.68395 2.66745L6.44731 3.77167L5.92862 6.19197C5.90246 6.31405 5.98021 6.43409 6.10216 6.4602L6.10223 6.46021C6.22429 6.48636 6.34445 6.40856 6.37057 6.28661L6.37058 6.28658L7.2609 2.13198L7.26095 2.13174C7.2656 2.11012 7.26699 2.08802 7.26516 2.06587C7.26206 2.02913 7.25 1.99337 7.22967 1.96195L7.22963 1.96189C7.19708 1.91157 7.14588 1.87625 7.08731 1.86367C7.08729 1.86367 7.08727 1.86366 7.08725 1.86366L2.93287 0.973326L2.66444 1.14716ZM2.66444 1.14716C2.69064 1.02501 2.81081 0.947306 2.93271 0.973291L2.66444 1.14716Z" fill="#FBFBFB" stroke="#FBFBFB"/>
<path d="M9.51755 1.75634L9.5175 1.75511C9.51315 1.63249 9.6102 1.52718 9.73583 1.52305L9.7359 1.52304C12.1229 1.4442 14.3951 2.29862 16.1386 3.93072C17.8821 5.56284 18.8846 7.77375 18.9635 10.1607L18.9635 10.1608C18.9668 10.2598 18.9684 10.3592 18.9684 10.4582L18.9684 10.4582C18.9685 13.5349 17.3891 16.371 14.8234 18.0004L13.8625 18.6106L14.962 18.9054L17.2686 19.5239C17.3689 19.5508 17.4363 19.6418 17.4363 19.7417C17.4363 19.7602 17.4339 19.7798 17.4283 19.8006C17.3959 19.9212 17.272 19.9927 17.1515 19.9604L17.1515 19.9604L13.0475 18.8601C13.0475 18.8601 13.0475 18.8601 13.0475 18.8601C12.9894 18.8445 12.9402 18.8066 12.9104 18.7549L12.9103 18.7548C12.8805 18.7031 12.8723 18.6414 12.8878 18.5833C12.8878 18.5833 12.8878 18.5832 12.8878 18.5832C12.8878 18.5832 12.8878 18.5831 12.8878 18.5831L13.988 14.4795C13.988 14.4795 13.9881 14.4794 13.9881 14.4794C13.9881 14.4794 13.9881 14.4794 13.9881 14.4793C14.0206 14.3587 14.1445 14.2873 14.2649 14.3196L14.2649 14.3196C14.3854 14.3519 14.457 14.4758 14.4247 14.5964C14.4247 14.5964 14.4247 14.5965 14.4247 14.5965L13.7481 17.1197L13.4216 18.3375L14.494 17.6745C16.9812 16.1367 18.5164 13.4138 18.5165 10.4579L18.5165 10.4579C18.5165 10.3639 18.515 10.27 18.5119 10.1758L18.5119 10.1756C18.4371 7.91123 17.4838 5.80904 15.8298 4.26076L15.8298 4.26075C14.1757 2.71239 12.0152 1.9 9.7508 1.97476C9.6262 1.97888 9.52167 1.88112 9.51755 1.75634Z" fill="#FBFBFB" stroke="#FBFBFB"/>
</svg>
