<svg width="20" height="20" viewBox="0 0 20 20" fill="none" xmlns="http://www.w3.org/2000/svg">
<path d="M19.2693 6.23801C18.7819 5.03184 18.0493 3.90098 17.074 2.92582C16.0989 1.95055 14.968 1.21793 13.7619 0.730547C12.5556 0.243047 11.274 0 9.99303 0C8.71382 0 7.43456 0.244102 6.23073 0.732188C5.02706 1.22008 3.8989 1.95258 2.92578 2.92586C1.95254 3.89895 1.22 5.02711 0.732109 6.23082C0.244063 7.43453 -3.8147e-05 8.71375 -3.8147e-05 9.99301C-3.8147e-05 11.2741 0.243008 12.5557 0.730469 13.762C1.21785 14.9681 1.95043 16.099 2.92574 17.0742C3.90089 18.0495 5.03175 18.7821 6.23792 19.2695C7.44425 19.757 8.72581 20 10.0068 20C11.286 20 12.5653 19.7559 13.7691 19.2679C14.9728 18.78 16.101 18.0475 17.0741 17.0742C18.0473 16.1011 18.7799 14.9729 19.2677 13.7692C19.7558 12.5654 19.9999 11.2862 19.9999 10.0069C19.9999 8.7259 19.7568 7.44434 19.2693 6.23801ZM18.0316 13.268C17.6089 14.3103 16.9762 15.2855 16.1309 16.131C15.2854 16.9763 14.3103 17.609 13.268 18.0317C12.2258 18.4543 11.1165 18.6661 10.0069 18.6661C8.89448 18.6661 7.78237 18.455 6.7378 18.0328C5.69312 17.6104 4.71593 16.9778 3.86902 16.131C3.02218 15.2841 2.38957 14.3069 1.96726 13.2622C1.54508 12.2176 1.33391 11.1055 1.33394 9.99309C1.33387 8.88348 1.54574 7.77418 1.96828 6.73203C2.39097 5.68973 3.02367 4.71453 3.86902 3.8691C4.71445 3.02379 5.68964 2.39109 6.73198 1.96836C7.77413 1.54578 8.88346 1.33395 9.99307 1.33395C11.1055 1.33395 12.2176 1.54508 13.2621 1.9673C14.3068 2.38969 15.284 3.02227 16.1309 3.86906C16.9778 4.71602 17.6103 5.69316 18.0327 6.73785C18.4549 7.78242 18.666 8.89453 18.666 10.0069C18.666 11.1165 18.4542 12.2258 18.0316 13.268Z" fill="#FBFBFB"/>
<path d="M13.9147 7.17191C14.2751 7.17191 14.5673 6.87973 14.5673 6.5193V5.21414C14.5673 5.0423 14.4977 4.87418 14.3762 4.75266C14.2546 4.63113 14.0865 4.56152 13.9147 4.56152H6.08346C5.8317 4.56152 5.60154 4.70715 5.49373 4.93465C5.38592 5.16219 5.41892 5.4325 5.57838 5.62738L9.15588 9.99984L5.57842 14.3724C5.41896 14.5672 5.38596 14.8376 5.49377 15.0651C5.60158 15.2927 5.83174 15.4382 6.08349 15.4382H13.9147C14.0865 15.4382 14.2546 15.3686 14.3762 15.2471C14.4977 15.1256 14.5673 14.9575 14.5673 14.7856V13.4804C14.5673 13.12 14.2751 12.8278 13.9147 12.8278C13.5542 12.8278 13.262 13.12 13.262 13.4804V14.133H7.4606L10.5042 10.4132C10.7013 10.1722 10.7013 9.82758 10.5042 9.58668L7.4606 5.8668H13.262V6.51937C13.2621 6.87969 13.5543 7.17191 13.9147 7.17191Z" fill="#FBFBFB"/>
</svg>
