<svg width="50" height="60" viewBox="0 0 50 60" fill="none" xmlns="http://www.w3.org/2000/svg">
<path d="M49 58H46V54H41V43.778C41 41.078 39.658 38.57 37.411 37.072L26.803 30L37.411 22.928C39.658 21.43 41 18.922 41 16.222V6H46V2H49C49.552 2 50 1.553 50 1C50 0.447 49.552 0 49 0H46H45H5H4H1C0.448 0 0 0.447 0 1C0 1.553 0.448 2 1 2H4V6H9V16.222C9 18.922 10.342 21.43 12.589 22.928L23.197 30L12.589 37.072C10.342 38.57 9 41.078 9 43.778V54H4V58H1C0.448 58 0 58.447 0 59C0 59.553 0.448 60 1 60H4H5H45H46H49C49.552 60 50 59.553 50 59C50 58.447 49.552 58 49 58ZM6 4V2H44V4H41H9H6ZM13.698 21.264C12.009 20.137 11 18.252 11 16.222V6H39V16.222C39 18.252 37.991 20.137 36.302 21.264L25 28.798L13.698 21.264ZM11 43.778C11 41.748 12.009 39.863 13.698 38.736L25 31.202L36.302 38.736C37.991 39.863 39 41.748 39 43.778V54H11V43.778ZM6 56H9H41H44V58H6V56Z" fill="#FBFBFB"/>
<path d="M25.0583 18.3286C24.9791 18.3116 24.8978 18.3086 24.8176 18.3204C24.0132 18.228 23.4064 17.5564 23.405 16.7574C23.405 16.3745 23.0905 16.0641 22.7026 16.0641C22.3146 16.0641 22.0001 16.3745 22.0001 16.7574C22.0021 18.0916 22.9063 19.2602 24.2097 19.6133V20.3067C24.2097 20.6896 24.5243 21 24.9122 21C25.3002 21 25.6147 20.6896 25.6147 20.3067V19.6553C27.1192 19.3445 28.1417 17.9616 27.9835 16.4527C27.8251 14.9438 26.5371 13.7972 25 13.7968C24.1192 13.7968 23.405 13.092 23.405 12.2226C23.405 11.3533 24.1192 10.6484 25 10.6484C25.8809 10.6484 26.595 11.3533 26.595 12.2226C26.595 12.6055 26.9096 12.916 27.2975 12.916C27.6855 12.916 28 12.6055 28 12.2226C27.9979 10.8217 27.0036 9.61349 25.6147 9.32438V8.69333C25.6147 8.31044 25.3002 8 24.9122 8C24.5243 8 24.2097 8.31044 24.2097 8.69333V9.36669C22.7602 9.75737 21.8272 11.1464 22.0268 12.6164C22.2265 14.0863 23.4973 15.1835 25 15.1832C25.8692 15.1832 26.5782 15.8701 26.594 16.7276C26.6101 17.5851 25.9268 18.2974 25.0583 18.3286Z" fill="#FBFBFB"/>
<path d="M15.917 17.936C15.343 17.553 15 16.912 15 16.222V14C15 13.447 14.552 13 14 13C13.448 13 13 13.447 13 14V16.222C13 17.583 13.676 18.846 14.808 19.6L19.446 22.692C19.616 22.805 19.809 22.86 20 22.86C20.323 22.86 20.64 22.704 20.833 22.415C21.139 21.955 21.015 21.335 20.556 21.028L15.917 17.936Z" fill="#FBFBFB"/>
<path d="M35.1919 41.2596L30.5539 38.1676C30.0939 37.8606 29.4739 37.9846 29.1669 38.4446C28.8609 38.9046 28.9849 39.5246 29.4439 39.8316L34.0819 42.9236C34.6569 43.3066 34.9999 43.9466 34.9999 44.6376V46.8596C34.9999 47.4126 35.4479 47.8596 35.9999 47.8596C36.5519 47.8596 36.9999 47.4126 36.9999 46.8596V44.6376C36.9999 43.2756 36.3239 42.0136 35.1919 41.2596Z" fill="#FBFBFB"/>
</svg>
