<svg width="82" height="60" viewBox="0 0 82 60" fill="none" xmlns="http://www.w3.org/2000/svg">
<path d="M72.1086 27.0081C69.3275 25.6177 64.1132 25.6016 63.8925 25.6016C63.2314 25.6016 62.6953 26.1376 62.6953 26.7988C62.6953 27.46 63.2314 27.996 63.8925 27.996C65.2381 27.9962 69.1447 28.2034 71.0378 29.1498C71.2097 29.2359 71.3923 29.2764 71.5722 29.2764C72.0114 29.2764 72.4342 29.0338 72.644 28.6144C72.9398 28.023 72.7 27.3039 72.1086 27.0081Z" fill="#FBFBFB"/>
<path d="M78.0774 44.0541L73.1328 42.6414C72.9194 42.5804 72.7703 42.3828 72.7703 42.1608V40.5103C73.1726 40.2316 73.5563 39.9197 73.915 39.5715C75.6534 37.8846 76.6107 35.6218 76.6107 33.1999V30.9224L77.0888 29.9664C77.6135 28.9168 77.8908 27.7418 77.8908 26.5685V20.3988C77.8908 19.7376 77.3548 19.2015 76.6936 19.2015H65.1725C60.9832 19.2015 57.5747 22.61 57.5747 26.7993V26.8707C57.5747 27.8463 57.8054 28.8234 58.2417 29.696L58.8548 30.9223V32.8777C58.8548 35.9768 60.382 38.7574 62.6952 40.4307L62.6955 42.1604C62.6955 42.4272 62.6955 42.5377 61.7069 42.8202L59.2943 43.5095L52.315 40.9717C52.3401 40.6423 52.229 40.3074 51.9888 40.0551L49.7586 37.712V33.7787C49.9943 33.5844 50.2267 33.3849 50.452 33.1739C53.2655 30.5368 54.879 26.8135 54.879 22.9589V19.8177C55.7286 17.969 56.1591 16.0127 56.1591 13.998V1.19723C56.1591 0.536041 55.6231 0 54.9619 0H37.0403C30.7333 0 25.6022 5.13118 25.6022 11.438V13.9984C25.6022 16.0131 26.0328 17.9693 26.8823 19.818V22.5207C26.8823 26.9961 28.8723 31.0281 32.0028 33.6863V37.7122L29.7726 40.0552C29.5324 40.3076 29.4213 40.6425 29.4463 40.9718L22.0802 43.6503C21.5463 43.8444 21.0504 44.1073 20.6001 44.4258L19.4434 43.8474C22.8866 42.3486 23.9774 40.2407 24.0297 40.136C24.1983 39.799 24.1983 39.4022 24.0297 39.0652C23.1666 37.3389 23.062 34.1749 22.9781 31.6326C22.9501 30.7863 22.9236 29.9867 22.873 29.2747C22.4649 23.5322 18.0993 19.2015 12.7181 19.2015C7.33696 19.2015 2.97121 23.532 2.56319 29.2747C2.51259 29.9868 2.48609 30.7864 2.45816 31.6329C2.37419 34.1751 2.26947 37.3388 1.40651 39.065C1.23794 39.402 1.23794 39.7989 1.40651 40.1358C1.45887 40.2406 2.54739 42.3442 5.99749 43.8447L2.7846 45.4511C1.06697 46.3105 0 48.0369 0 49.9571V58.8021C0 59.4633 0.536041 59.9994 1.19723 59.9994C1.85842 59.9994 2.39446 59.4633 2.39446 58.8021V49.9571C2.39446 48.9495 2.95429 48.0436 3.85541 47.593L7.85624 45.5927L9.2479 46.9152C10.221 47.84 11.4693 48.3021 12.7181 48.3021C13.9666 48.3021 15.2155 47.8396 16.1883 46.9152L17.5798 45.5928L18.8843 46.2451C18.2701 47.2279 17.9214 48.3805 17.9214 49.5877V58.8024C17.9214 59.4636 18.4575 59.9997 19.1187 59.9997C19.7799 59.9997 20.3159 59.4636 20.3159 58.8024V49.5877C20.3159 47.9442 21.3537 46.4625 22.8984 45.9008L30.6648 43.0767L33.8978 47.9265C34.3111 48.5465 34.9734 48.9441 35.7149 49.0175C35.7976 49.0257 35.8798 49.0297 35.9618 49.0297C36.616 49.0297 37.2425 48.7722 37.7109 48.304L39.6833 46.3316V58.8026C39.6833 59.4638 40.2193 59.9998 40.8805 59.9998C41.5417 59.9998 42.0778 59.4638 42.0778 58.8026V46.3316L44.0502 48.304C44.5184 48.7724 45.1449 49.0298 45.7992 49.0298C45.8811 49.0298 45.9635 49.0258 46.046 49.0177C46.7877 48.9443 47.45 48.5466 47.8633 47.9266L51.0964 43.077L58.8626 45.9011C60.4072 46.4628 61.4451 47.9445 61.4451 49.5881V58.8028C61.4451 59.464 61.9812 60 62.6424 60C63.3036 60 63.8396 59.464 63.8396 58.8028V49.5881C63.8396 47.9234 63.1782 46.3622 62.0688 45.2076L62.3646 45.1232C62.663 45.0379 63.07 44.9213 63.4787 44.7209L66.5354 47.7777V58.8028C66.5354 59.464 67.0715 60 67.7327 60C68.3939 60 68.9299 59.464 68.9299 58.8028V47.7777L71.9655 44.7422C72.1268 44.8242 72.2964 44.8935 72.4748 44.9444L77.4196 46.3571C78.5482 46.6796 79.3366 47.7247 79.3366 48.8986V58.8028C79.3366 59.464 79.8726 60 80.5338 60C81.195 60 81.731 59.464 81.731 58.8028V48.8986C81.731 46.6609 80.2286 44.6689 78.0774 44.0541ZM7.68064 41.9395C5.44118 41.1337 4.31786 40.0594 3.83833 39.4727C4.16525 38.6181 4.37724 37.6392 4.52075 36.6059C5.18098 38.189 6.28675 39.5404 7.68064 40.5046V41.9395ZM14.5392 45.1797C13.518 46.1499 11.9184 46.1498 10.8975 45.1795L9.7841 44.1215C9.97198 43.7695 10.0753 43.3704 10.0753 42.9524V41.6763C10.9105 41.9373 11.7983 42.0781 12.7184 42.0781C13.6374 42.0781 14.5248 41.9366 15.3614 41.6771L15.3613 42.9522C15.3613 43.3704 15.4644 43.7697 15.6525 44.1218L14.5392 45.1797ZM12.7188 39.6836C9.14366 39.6836 6.23534 36.7751 6.23534 33.2002C6.23534 32.539 5.6993 32.003 5.03811 32.003C4.97107 32.003 4.90562 32.0098 4.84161 32.0205C4.84512 31.9176 4.84847 31.8144 4.85198 31.7124C4.87864 30.8892 4.90434 30.1117 4.95175 29.4447C5.10468 27.2935 5.96429 25.3112 7.37223 23.8627C8.79279 22.4012 10.6914 21.5963 12.7184 21.5963C14.7454 21.5963 16.6439 22.4012 18.0646 23.8627C19.4726 25.3112 20.3322 27.2935 20.4851 29.4447C20.5324 30.1115 20.5582 30.8889 20.5854 31.712C20.5878 31.7827 20.5902 31.8544 20.5926 31.9255C19.29 29.9187 17.2783 28.4397 14.679 27.6045C12.2777 26.833 10.2124 26.8807 10.1252 26.883C9.81172 26.8917 9.51416 27.023 9.29659 27.2487L7.13646 29.4889C6.67752 29.965 6.69125 30.7229 7.16727 31.1818C7.64329 31.6408 8.40122 31.6269 8.86016 31.151L10.6576 29.287C12.2055 29.3627 17.1855 29.9418 19.1223 34.2067C18.635 37.3495 15.9337 39.6836 12.7188 39.6836ZM17.7556 41.9435L17.7557 40.5156C19.1485 39.5567 20.2559 38.2078 20.9166 36.6128C21.0601 37.6437 21.2719 38.6203 21.5982 39.4731C21.1214 40.0541 19.9928 41.138 17.7556 41.9435ZM29.2768 22.5206V19.5502C29.2768 19.3699 29.2361 19.1919 29.1577 19.0296C28.3873 17.4342 27.9967 15.7415 27.9967 13.9984V11.4382C27.9967 6.45148 32.0537 2.39462 37.0403 2.39462H53.7647V13.9985C53.7647 15.7417 53.374 17.4344 52.6037 19.0298C52.5253 19.1921 52.4846 19.3701 52.4846 19.5503V22.9592C52.4846 26.2015 51.1812 29.2088 48.8145 31.4272C48.519 31.704 48.2124 31.9635 47.8953 32.2054C47.8883 32.2102 47.8816 32.2154 47.8748 32.2204C45.6576 33.9037 42.942 34.7218 40.106 34.5381C34.0335 34.1449 29.2768 28.8662 29.2768 22.5206ZM36.0178 46.6106C36.0095 46.6189 35.9902 46.6386 35.9511 46.6344C35.9122 46.6306 35.8968 46.6078 35.8903 46.5979L32.1669 41.0127L33.3651 39.7537L39.0136 43.6147L36.0178 46.6106ZM40.8807 41.9904L34.3973 37.5588V35.3239C36.0748 36.2308 37.9532 36.798 39.951 36.9273C40.2666 36.9477 40.5803 36.9577 40.893 36.9577C43.1822 36.9577 45.3855 36.4105 47.3641 35.3718V37.5588L40.8807 41.9904ZM45.8711 46.5982C45.8645 46.6081 45.8492 46.6309 45.8102 46.6347C45.7711 46.6397 45.752 46.6191 45.7435 46.611L42.7477 43.6152L48.3963 39.754L49.5946 41.013L45.8711 46.5982ZM67.7327 45.588L65.0158 42.8713C65.0632 42.6559 65.09 42.4202 65.0898 42.1601L65.0897 41.6549C65.8436 41.9023 66.6383 42.0492 67.4605 42.0738C67.5528 42.0766 67.6442 42.0779 67.7362 42.0779C68.6448 42.0779 69.5317 41.9406 70.3758 41.6787V42.1608C70.3758 42.3996 70.4059 42.6336 70.4624 42.8585L67.7327 45.588ZM72.2475 37.8533C70.9786 39.0847 69.3023 39.735 67.5325 39.6804C64.0679 39.5765 61.2493 36.5248 61.2493 32.8781V30.6399C61.2493 30.4539 61.206 30.2706 61.1228 30.1045L60.3833 28.6253C60.1124 28.0834 59.9692 27.4768 59.9692 26.8708V26.7995C59.9692 23.9303 62.3035 21.5961 65.1725 21.5961H75.4963V26.5686C75.4963 27.3722 75.3064 28.1769 74.947 28.8958L74.3427 30.1045C74.2595 30.2708 74.2162 30.4539 74.2162 30.6399V33.2C74.2162 34.9687 73.5171 36.6213 72.2475 37.8533Z" fill="#FBFBFB"/>
<path d="M50.688 14.4323C46.1599 9.90423 36.686 10.7699 32.8226 11.3522C31.6057 11.5357 30.7227 12.5654 30.7227 13.8008V16.5589C30.7227 17.2201 31.2587 17.7562 31.9199 17.7562C32.5811 17.7562 33.1171 17.2201 33.1171 16.5589V13.8007C33.1171 13.76 33.1439 13.7252 33.1797 13.7197C34.7228 13.4871 37.785 13.1283 40.9577 13.3398C44.6912 13.5884 47.3953 14.5255 48.995 16.1254C49.4625 16.5929 50.2206 16.5929 50.688 16.1254C51.1556 15.6578 51.1556 14.8997 50.688 14.4323Z" fill="#FBFBFB"/>
</svg>
