<svg width="141" height="89" viewBox="0 0 141 89" fill="none" xmlns="http://www.w3.org/2000/svg">
<path d="M97.4806 89H44.54C40.3827 89 37 85.6186 37 81.4616V36.5384C37 32.382 40.3827 29 44.54 29H97.4806C101.638 29 105.021 32.382 105.021 36.5384V81.4616C105.021 85.6186 101.638 89 97.4806 89ZM44.54 31.2455C41.621 31.2455 39.246 33.62 39.246 36.5384V81.4616C39.246 84.38 41.621 86.7545 44.54 86.7545H97.4806C100.4 86.7545 102.775 84.38 102.775 81.4616V36.5384C102.775 33.62 100.4 31.2455 97.4806 31.2455H44.54Z" fill="#FFC149"/>
<path d="M103.939 48.6021H40.7001C40.1036 48.6021 39.6204 48.1189 39.6204 47.5224C39.6204 46.9266 40.1036 46.4427 40.7001 46.4427H103.939C104.536 46.4427 105.019 46.9266 105.019 47.5224C105.019 48.1189 104.536 48.6021 103.939 48.6021Z" fill="#FFC149"/>
<path d="M58.0699 43.4362C56.1865 43.4362 54.6531 41.9028 54.6531 40.0194C54.6531 38.1353 56.1865 36.6025 58.0699 36.6025C59.9539 36.6025 61.4867 38.1353 61.4867 40.0194C61.4867 41.9028 59.9539 43.4362 58.0699 43.4362ZM58.0699 38.7619C57.377 38.7619 56.8125 39.3259 56.8125 40.0194C56.8125 40.7128 57.377 41.2768 58.0699 41.2768C58.7634 41.2768 59.3273 40.7128 59.3273 40.0194C59.3273 39.3259 58.7634 38.7619 58.0699 38.7619Z" fill="#FFC149"/>
<path d="M47.5696 43.4024C45.6856 43.4024 44.1528 41.8696 44.1528 39.9855C44.1528 38.1015 45.6856 36.5687 47.5696 36.5687C49.4537 36.5687 50.9865 38.1015 50.9865 39.9855C50.9865 41.8696 49.4537 43.4024 47.5696 43.4024ZM47.5696 38.7281C46.8768 38.7281 46.3122 39.2927 46.3122 39.9855C46.3122 40.679 46.8768 41.243 47.5696 41.243C48.2631 41.243 48.8271 40.679 48.8271 39.9855C48.8271 39.2927 48.2631 38.7281 47.5696 38.7281Z" fill="#FFC149"/>
<path d="M68.5693 43.4686C66.6859 43.4686 65.1531 41.9359 65.1531 40.0518C65.1531 38.1684 66.6859 36.6356 68.5693 36.6356C70.4533 36.6356 71.9861 38.1684 71.9861 40.0518C71.9861 41.9359 70.4533 43.4686 68.5693 43.4686ZM68.5693 38.7944C67.8764 38.7944 67.3125 39.3583 67.3125 40.0518C67.3125 40.7453 67.8764 41.3093 68.5693 41.3093C69.2628 41.3093 69.8267 40.7453 69.8267 40.0518C69.8267 39.3583 69.2628 38.7944 68.5693 38.7944Z" fill="#FFC149"/>
<path d="M133.787 81.473L120.222 69L120.213 87.4275L124.329 83.489L126.747 89L130.519 87.3454L128.101 81.8344L133.787 81.473ZM128.975 86.743L127.349 87.4563L124.729 81.4844L121.386 84.6834L121.393 71.6681L130.973 80.4778L126.355 80.7712L128.975 86.743Z" fill="#BDBDBD"/>
<path d="M3.50659 26C3.50659 29.5805 6.41952 32.4935 9.99997 32.4935C13.5804 32.4935 16.4933 29.5805 16.4933 26C16.4933 22.4196 13.5804 19.5066 9.99997 19.5066C6.41952 19.5066 3.50659 22.4196 3.50659 26ZM15.5698 26C15.5698 29.0713 13.0712 31.5699 9.99997 31.5699C6.92875 31.5699 4.43012 29.0713 4.43012 26C4.43012 22.9287 6.92875 20.4301 9.99997 20.4301C13.0712 20.4301 15.5698 22.9287 15.5698 26Z" fill="#BDBDBD"/>
<path d="M9.58446 22.3616V23.0849C9.32458 23.145 9.07935 23.2578 8.85364 23.4245C8.23605 23.8803 7.9585 24.5119 8.11112 25.1141C8.25796 25.6932 8.78481 26.1141 9.48613 26.2124C11.0763 26.4352 11.3351 26.6727 11.267 27.2297C11.2307 27.5264 11.0602 27.7389 10.76 27.8609C10.2527 28.0672 9.37303 27.9797 8.55115 27.3192L7.97266 28.0392C8.46957 28.4385 9.03102 28.7029 9.58433 28.8182V29.6383H10.5079V28.8667C10.7174 28.8424 10.9191 28.7931 11.1078 28.7163C11.715 28.4695 12.1072 27.9684 12.1838 27.3415C12.2707 26.63 11.9916 26.0795 11.3767 25.7494C10.9002 25.4936 10.2711 25.3898 9.61432 25.2977C9.28714 25.2519 9.05989 25.0983 9.00633 24.887C8.94913 24.6615 9.09708 24.3925 9.40203 24.1674C9.72495 23.9292 10.1055 23.8941 10.5654 24.0601C10.9556 24.201 11.2432 24.4368 11.246 24.4391L11.5417 24.0845L11.8387 23.7309C11.7989 23.6975 11.4346 23.3986 10.9095 23.2026C10.7738 23.1519 10.6399 23.1133 10.5079 23.0854V22.3616L9.58446 22.3616Z" fill="#BDBDBD"/>
<path d="M10 16.9235C11.9862 16.9235 13.8755 17.5581 15.4365 18.7304H14.2221V19.6539H17.1937V16.6823H16.2702V18.2091C14.4986 16.7781 12.3086 16 10 16C4.486 16 0 20.486 0 26H0.923526C0.923526 20.9952 4.99523 16.9235 10 16.9235Z" fill="#BDBDBD"/>
<path d="M19.0764 26C19.0764 31.0048 15.0047 35.0765 9.99989 35.0765C8.07003 35.0765 6.2263 34.4751 4.68924 33.3624H5.89494V32.4389H2.92334V35.4105H3.84687V33.8834C5.59824 35.2547 7.74562 36 9.99989 36C15.514 36 19.9999 31.5141 19.9999 26H19.0764Z" fill="#BDBDBD"/>
<path d="M137.072 19H117.214C115.441 19 114 20.441 114 22.2137V35.7863C114 37.559 115.441 39 117.214 39H137.067C138.84 39 140.281 37.559 140.281 35.7863V22.2191C140.286 20.4464 138.845 19 137.072 19ZM138.818 35.7863C138.818 36.7488 138.035 37.5318 137.072 37.5318H117.214C116.251 37.5318 115.468 36.7488 115.468 35.7863V22.2191C115.468 21.2567 116.251 20.4736 117.214 20.4736H137.067C138.029 20.4736 138.812 21.2567 138.812 22.2191V35.7863H138.818Z" fill="#FFC149"/>
<path d="M130.574 28.8314L137.002 23.0674C137.301 22.7955 137.328 22.3333 137.056 22.0288C136.784 21.7297 136.322 21.7025 136.017 21.9744L127.154 29.9298L125.425 28.3855C125.419 28.3801 125.414 28.3746 125.414 28.3692C125.376 28.3311 125.338 28.2985 125.294 28.2659L118.258 21.969C117.953 21.6971 117.491 21.7243 117.219 22.0288C116.947 22.3333 116.975 22.7955 117.279 23.0674L123.783 28.8803L117.306 34.9434C117.013 35.2207 116.996 35.6829 117.274 35.982C117.42 36.1343 117.616 36.2158 117.812 36.2158C117.991 36.2158 118.171 36.1506 118.312 36.0201L124.886 29.87L126.67 31.4633C126.811 31.5883 126.985 31.6481 127.159 31.6481C127.333 31.6481 127.513 31.5829 127.649 31.4578L129.481 29.8156L136.017 36.0255C136.159 36.1615 136.344 36.2267 136.523 36.2267C136.719 36.2267 136.909 36.1506 137.056 35.9983C137.333 35.7047 137.323 35.237 137.029 34.9597L130.574 28.8314Z" fill="#FFC149"/>
<path fill-rule="evenodd" clip-rule="evenodd" d="M17.0442 71.9469C15.3512 70.2542 13.1825 69.2675 10.9544 69.0473C10.6361 69.0158 10.3166 69 9.99706 69C7.44091 69 4.8846 70.0124 2.94994 71.9469C-0.983315 75.8803 -0.983315 82.1079 2.94994 86.0412C4.89651 87.9876 7.44091 89 9.99706 89C12.2337 89 14.4613 88.2249 16.2873 86.7271C16.5482 86.5132 16.8009 86.2845 17.0442 86.0412C20.9774 82.1079 20.9774 75.8803 17.0442 71.9469ZM10 87C14.4183 87 18 83.4183 18 79C18 74.5817 14.4183 71 10 71C5.58172 71 2 74.5817 2 79C2 83.4183 5.58172 87 10 87Z" fill="#58B000"/>
<path d="M13.1877 75.8112L8.51999 80.4793L6.81197 78.7713C6.49744 78.4564 5.98722 78.4564 5.67269 78.7713C5.3578 79.0858 5.3578 79.596 5.67269 79.9105L7.95053 82.1884C8.10779 82.3456 8.31425 82.4246 8.52034 82.4246C8.72644 82.4246 8.93254 82.346 9.0898 82.1884L14.3273 76.9509C14.6418 76.636 14.6418 76.1261 14.3273 75.8112C14.0124 75.4967 13.5026 75.4967 13.1877 75.8112Z" fill="#58B000"/>
<g opacity="0.4">
<path fill-rule="evenodd" clip-rule="evenodd" d="M65.9309 2.06285C64.7459 0.877964 63.2278 0.187259 61.6681 0.0330966C61.4453 0.0110734 61.2216 0 60.9979 0C59.2086 0 57.4192 0.708694 56.065 2.06285C53.3117 4.81624 53.3117 9.17554 56.065 11.9288C57.4276 13.2913 59.2086 14 60.9979 14C62.5636 14 64.1229 13.4574 65.4011 12.409C65.5837 12.2592 65.7606 12.0991 65.9309 11.9288C68.6842 9.17554 68.6842 4.81624 65.9309 2.06285ZM61 12.6C64.0928 12.6 66.6 10.0928 66.6 7C66.6 3.90721 64.0928 1.4 61 1.4C57.9072 1.4 55.4 3.90721 55.4 7C55.4 10.0928 57.9072 12.6 61 12.6Z" fill="#58B000"/>
<path d="M63.2314 4.76785L59.964 8.03549L58.7684 6.83988C58.5482 6.61945 58.1911 6.61945 57.9709 6.83988C57.7505 7.06005 57.7505 7.4172 57.9709 7.63737L59.5654 9.23185C59.6755 9.34194 59.82 9.39723 59.9642 9.39723C60.1085 9.39723 60.2528 9.34219 60.3629 9.23185L64.0291 5.5656C64.2493 5.34517 64.2493 4.98827 64.0291 4.76785C63.8087 4.54768 63.4518 4.54768 63.2314 4.76785Z" fill="#58B000"/>
</g>
<g opacity="0.6">
<path fill-rule="evenodd" clip-rule="evenodd" d="M138.374 55.6208C137.443 54.6898 136.25 54.1471 135.025 54.026C134.85 54.0087 134.674 54 134.498 54C133.093 54 131.687 54.5568 130.622 55.6208C128.459 57.7842 128.459 61.2094 130.622 63.3726C131.693 64.4432 133.093 65 134.498 65C135.729 65 136.954 64.5737 137.958 63.7499C138.102 63.6322 138.24 63.5065 138.374 63.3726C140.538 61.2094 140.538 57.7842 138.374 55.6208ZM134.5 63.9C136.93 63.9 138.9 61.9301 138.9 59.5C138.9 57.0699 136.93 55.1 134.5 55.1C132.07 55.1 130.1 57.0699 130.1 59.5C130.1 61.9301 132.07 63.9 134.5 63.9Z" fill="#58B000"/>
<path d="M136.253 57.7462L133.686 60.3136L132.747 59.3742C132.574 59.201 132.293 59.201 132.12 59.3742C131.947 59.5472 131.947 59.8278 132.12 60.0008L133.373 61.2536C133.459 61.3401 133.573 61.3835 133.686 61.3835C133.8 61.3835 133.913 61.3403 133.999 61.2536L136.88 58.373C137.053 58.1998 137.053 57.9194 136.88 57.7462C136.707 57.5732 136.426 57.5732 136.253 57.7462Z" fill="#58B000"/>
</g>
<g opacity="0.2">
<path fill-rule="evenodd" clip-rule="evenodd" d="M23.8177 46.1788C23.1405 45.5017 22.273 45.107 21.3818 45.0189C21.2544 45.0063 21.1266 45 20.9988 45C19.9764 45 18.9538 45.405 18.18 46.1788C16.6067 47.7521 16.6067 50.2432 18.18 51.8165C18.9586 52.595 19.9764 53 20.9988 53C21.8935 53 22.7845 52.6899 23.5149 52.0909C23.6193 52.0053 23.7203 51.9138 23.8177 51.8165C25.391 50.2432 25.391 47.7521 23.8177 46.1788ZM21 52.2C22.7673 52.2 24.2 50.7673 24.2 49C24.2 47.2327 22.7673 45.8 21 45.8C19.2327 45.8 17.8 47.2327 17.8 49C17.8 50.7673 19.2327 52.2 21 52.2Z" fill="#58B000"/>
<path d="M22.2751 47.7245L20.408 49.5917L19.7248 48.9085C19.599 48.7825 19.3949 48.7825 19.2691 48.9085C19.1431 49.0343 19.1431 49.2384 19.2691 49.3642L20.1802 50.2753C20.2431 50.3382 20.3257 50.3698 20.4081 50.3698C20.4906 50.3698 20.573 50.3384 20.6359 50.2753L22.7309 48.1803C22.8567 48.0544 22.8567 47.8504 22.7309 47.7245C22.605 47.5987 22.401 47.5987 22.2751 47.7245Z" fill="#58B000"/>
</g>
<path fill-rule="evenodd" clip-rule="evenodd" d="M71 80.0312C77.6447 80.0312 83.0312 74.6447 83.0312 68C83.0312 61.3553 77.6447 55.9688 71 55.9688C64.3553 55.9688 58.9688 61.3553 58.9688 68C58.9688 74.6447 64.3553 80.0312 71 80.0312ZM71 82C78.732 82 85 75.732 85 68C85 60.268 78.732 54 71 54C63.268 54 57 60.268 57 68C57 75.732 63.268 82 71 82Z" fill="#FFC149"/>
<path fill-rule="evenodd" clip-rule="evenodd" d="M68.1562 60.5625H69.9062V61.4618H70.5625V60.5625H72.3125V61.4618C72.3125 61.4618 74.0625 61.243 75.1562 62.118C75.9169 62.7266 76.6875 64.0487 76.6875 64.3906C76.6875 64.5851 76.6862 65.1024 76.6875 65.2656C76.6915 65.7581 76.7003 65.9531 76.6875 66.2743C76.6875 66.6024 76.4962 67.5545 75.8125 68.1337C75.6768 68.2487 75.5475 68.3538 75.4251 68.4497L75.4956 68.5053L75.5555 68.5532C75.6383 68.6199 75.724 68.6907 75.8125 68.7656C76.4962 69.3448 76.6875 70.2969 76.6875 70.625C76.7003 70.9462 76.6915 71.1169 76.6875 71.6094C76.6862 71.7726 76.6875 72.375 76.6875 72.5938C76.6875 72.9219 75.9169 74.1727 75.1562 74.7812C74.0625 75.6562 72.3125 75.4375 72.3125 75.4375H65.5312L67.6094 73.0312H72.8289C73.5156 73.0312 74.2812 71.968 74.2812 71.2812C74.2812 70.9871 74.0625 69.9688 72.9688 69.5312H72.3125V71.0625H70.5625V69.5312H69.9062V71.0625H68.1562V69.5312H65.3125V67.3438H68.1562V63.868H67.6094L65.5312 61.4618H68.1562V60.5625ZM72.3125 67.3438H72.9688C74.0625 66.7969 74.2812 65.8846 74.2812 65.5938C74.2812 64.907 73.5156 63.868 72.8289 63.868H72.3125V67.3438ZM70.5625 63.868V67.3438H69.9062V63.868H70.5625Z" fill="#FFC149"/>
</svg>
