<svg width="133" height="90" viewBox="0 0 133 90" fill="none" xmlns="http://www.w3.org/2000/svg">
<path d="M28.1779 31.438L28.1778 31.438L11.3313 40.0206C10.7605 40.3119 10.4648 40.6711 10.3116 40.9921C10.1574 41.3154 10.1431 41.6104 10.1521 41.7767L10.1521 41.777C10.1607 41.9441 10.2068 42.2364 10.3953 42.5423C10.5824 42.846 10.9156 43.1728 11.5146 43.4039L13.6673 44.2313L13.6674 44.2314C14.0568 44.3812 14.495 44.4594 14.9702 44.4594C15.0143 44.4594 15.0494 44.4565 15.09 44.453C15.1193 44.4505 15.1514 44.4478 15.1919 44.4458L15.5229 44.4292L15.3169 44.6888C15.299 44.7113 15.2794 44.7316 15.2657 44.7458C15.2639 44.7476 15.2621 44.7494 15.2605 44.7511C15.2451 44.7671 15.2367 44.7765 15.2306 44.7852C14.8678 45.3131 14.8376 46.0455 15.1875 46.8659L15.1899 46.8716L15.1898 46.8716C15.1934 46.8813 15.1972 46.8896 15.2026 46.9017C15.8379 48.2693 16.5484 49.8215 16.636 50.0415L16.6362 50.0419C16.8244 50.5189 17.3064 50.85 17.8352 50.85C18.0507 50.85 18.2155 50.8247 18.3662 50.7592C18.5171 50.6936 18.6659 50.5824 18.8404 50.392C19.1958 50.0043 19.626 49.3254 20.3736 48.1429L20.3758 48.1395L20.3758 48.1395C20.4894 47.9702 20.7279 47.5966 20.768 47.127L20.7852 46.9263L20.9726 47.0003C21.0822 47.0435 21.1872 47.0845 21.2851 47.1226C21.3422 47.1449 21.397 47.1663 21.4488 47.1866L21.4493 47.1868L23.8345 48.1314L23.8346 48.1314C24.3129 48.321 24.7318 48.4883 24.9525 48.577L24.9635 48.5815L24.9737 48.5875C25.0337 48.6235 25.0982 48.6546 25.167 48.6821C25.3176 48.74 25.4782 48.7696 25.6396 48.7696C26.1311 48.7696 26.4244 48.5667 26.6165 48.3117C26.8154 48.0477 26.9092 47.7237 26.9798 47.4762C27.0487 47.2344 27.1438 46.8997 27.2459 46.5304L27.246 46.5299L30.8841 33.5408C30.8842 33.5408 30.8842 33.5408 30.8842 33.5407C31.1428 32.616 30.8255 32.038 30.6237 31.7801L28.1779 31.438ZM28.1779 31.438C28.5561 31.245 28.9254 31.15 29.2769 31.15C29.8206 31.15 30.3095 31.3815 30.6234 31.7798L28.1779 31.438ZM29.8012 33.2579L29.8012 33.258L26.1647 46.2471L26.1646 46.2472C26.0619 46.6134 25.9677 46.9463 25.8987 47.1877C25.8642 47.3084 25.836 47.4064 25.8162 47.4744C25.8063 47.5083 25.7984 47.5351 25.7928 47.5537L25.7856 47.5767L25.782 47.5872C25.7815 47.5887 25.7798 47.5932 25.7774 47.5986C25.7765 47.6006 25.7732 47.6078 25.7679 47.6164C25.7656 47.6201 25.7592 47.6302 25.7487 47.6412C25.743 47.6468 25.7281 47.659 25.7186 47.6654C25.7037 47.6734 25.6645 47.6854 25.6404 47.6874H25.6059L25.5748 47.6723C25.5526 47.6615 25.5373 47.6473 25.5284 47.6374C25.5135 47.6312 25.4949 47.6236 25.4727 47.6145C25.4062 47.5875 25.3098 47.5487 25.1904 47.5009C24.9582 47.4081 24.6403 47.2817 24.2895 47.1422L24.2601 47.1305L24.2599 47.1304L21.8736 46.186C21.8735 46.186 21.8735 46.186 21.8734 46.1859C21.1489 45.9009 19.9613 45.4398 19.2338 45.1675L19.2319 45.1668L19.2319 45.1668L19.1113 45.1198L19.1046 45.1172L19.0982 45.1139L18.6526 44.889L18.641 44.8831L18.6306 44.8754C18.3786 44.6876 18.2314 44.43 18.2199 44.1445C18.2085 43.8606 18.332 43.5721 18.5756 43.3196L18.5756 43.3197L18.6837 43.4236L18.5758 43.3194L29.8012 33.2579ZM29.8012 33.2579C29.8795 32.9778 29.8839 32.7269 29.7935 32.5371C29.6968 32.3339 29.5067 32.2315 29.2769 32.2315C29.1046 32.2315 28.9104 32.2874 28.7031 32.3926L28.7029 32.3927L11.8548 40.9769L11.8545 40.9771C11.4938 41.1617 11.2558 41.4211 11.2721 41.7219C11.2884 42.0226 11.5529 42.2552 11.9317 42.4009L11.9317 42.4009L14.083 43.2277C14.3501 43.3303 14.6584 43.3787 14.971 43.3787C15.5771 43.3787 16.2308 43.2001 16.6706 42.8667L16.6712 42.8662L25.5591 36.0537L29.8012 33.2579ZM19.4247 47.5654C19.5343 47.4021 19.6108 47.2552 19.6405 47.118C19.6721 46.9717 19.6498 46.8391 19.5712 46.7192C19.498 46.6076 19.3822 46.5166 19.2474 46.4317C19.1111 46.3458 18.9391 46.2564 18.7404 46.1542L18.7404 46.1542L18.7378 46.1529L18.6402 46.1051L18.6333 46.1017L18.6261 46.0991L18.5755 46.0804C18.5752 46.0803 18.5749 46.0802 18.5746 46.0801C18.378 46.0049 18.1994 45.9109 18.0356 45.802L18.0282 45.7971L18.0202 45.7931L16.9846 45.2699L16.9849 45.2695L16.973 45.2647C16.8313 45.2076 16.7008 45.1775 16.5831 45.1775C16.4469 45.1775 16.3262 45.2181 16.2339 45.3034C16.1433 45.3872 16.0944 45.5007 16.074 45.6209C16.0338 45.8568 16.0959 46.1553 16.2239 46.4551L16.2239 46.4552L16.2259 46.4594L16.3619 46.3962L16.2259 46.4595L16.2259 46.4595L16.2261 46.4599L16.2268 46.4615L16.2297 46.4676L16.2408 46.4917L16.2834 46.5834L16.4362 46.9133C16.5633 47.1879 16.7341 47.5575 16.909 47.938C17.2607 48.7028 17.6241 49.5005 17.688 49.6675L17.6909 49.6752L17.6947 49.6825C17.6988 49.6904 17.7117 49.7148 17.7386 49.7357C17.7705 49.7606 17.8059 49.7685 17.8344 49.7685C17.8861 49.7685 17.9232 49.7431 17.933 49.7365L17.9332 49.7363C17.9491 49.7255 17.9631 49.713 17.974 49.7024C17.9964 49.6808 18.0211 49.6526 18.0463 49.6219C18.0975 49.5595 18.162 49.4728 18.2339 49.372C18.3783 49.1695 18.559 48.9008 18.7351 48.6335C18.9115 48.3659 19.0841 48.0984 19.2126 47.898C19.2769 47.7977 19.3302 47.7142 19.3674 47.6557L19.4105 47.5877L19.4219 47.5698L19.4247 47.5654Z" fill="#BDBDBD" stroke="white" stroke-width="0.3"/>
<path d="M22.0457 64H18.2362C14.2462 64 11 67.2454 11 71.2347V74.6663C11 77.6371 12.8255 80.3071 15.5705 81.3944V83.6191C15.5705 83.77 15.6592 83.9063 15.7971 83.9672C15.8466 83.9893 15.8992 84 15.9513 84C16.0439 84 16.1357 83.9661 16.2069 83.9014L18.4156 81.901H22.0457C26.0357 81.901 29.2819 78.6556 29.2819 74.6663V71.2347C29.2819 67.2454 26.0357 64 22.0457 64ZM28.5201 74.6663C28.5201 78.2355 25.616 81.1393 22.0457 81.1393H18.2686C18.1741 81.1393 18.0831 81.1743 18.013 81.2379L16.3322 82.7603V81.1305C16.3322 80.969 16.2305 80.825 16.0782 80.7717C13.4966 79.8588 11.7617 77.4052 11.7617 74.6663V71.2347C11.7617 67.6655 14.6663 64.7617 18.2362 64.7617H22.0457C25.616 64.7617 28.5201 67.6655 28.5201 71.2347V74.6663Z" fill="#BDBDBD"/>
<path d="M25.1745 75.6139L22.8337 74.0935C22.5777 73.9271 22.2731 73.8707 21.9748 73.9324C21.6762 73.9952 21.4195 74.1716 21.2531 74.4287L21.143 74.5978C20.1299 74.263 19.0128 73.8353 18.344 71.8993L18.6209 71.6586C19.0962 71.2453 19.1461 70.5224 18.7328 70.0463L16.9016 67.9397C16.7637 67.7809 16.523 67.7645 16.3642 67.902L15.2143 68.9014C14.2058 69.7782 14.6769 71.0751 14.8319 71.5013C14.8388 71.5203 14.8472 71.5386 14.8571 71.5565C14.8971 71.6281 15.8519 73.3321 17.3941 74.9028C18.9423 76.48 21.7375 77.9365 21.8232 77.9788C22.1424 78.186 22.5016 78.2854 22.8569 78.2854C23.4808 78.2854 24.0925 77.9795 24.4574 77.4189L25.2869 76.1414C25.4012 75.9643 25.3509 75.7286 25.1745 75.6139ZM23.8183 77.0037C23.4751 77.5324 22.7659 77.6825 22.206 77.3214C22.1782 77.3069 19.4013 75.8607 17.9376 74.3696C16.5695 72.976 15.6611 71.4278 15.5373 71.2118C15.2357 70.3659 15.289 69.846 15.714 69.4766L16.5767 68.727L18.1581 70.546C18.2986 70.7075 18.2823 70.9437 18.1215 71.0835L17.6542 71.4895C17.5403 71.5885 17.4954 71.745 17.5399 71.889C18.3367 74.4782 19.8861 74.9866 21.0173 75.358L21.1822 75.4125C21.3471 75.4681 21.5277 75.4045 21.6221 75.259L21.8922 74.8431C21.9478 74.757 22.0331 74.6987 22.1321 74.6778C22.2315 74.6564 22.3328 74.6762 22.4189 74.7322L24.4406 76.0451L23.8183 77.0037Z" fill="#BDBDBD"/>
<path d="M21.0105 70.188C20.8079 70.1297 20.5973 70.2474 20.5398 70.4501C20.4823 70.6523 20.5996 70.8629 20.8018 70.9204C21.3693 71.0819 21.8214 71.5348 21.9814 72.1027C22.0286 72.2702 22.1813 72.3803 22.3478 72.3803C22.382 72.3803 22.4167 72.3757 22.4514 72.3662C22.6536 72.3091 22.7717 72.0988 22.7145 71.8962C22.4834 71.0758 21.8302 70.4211 21.0105 70.188Z" fill="#BDBDBD"/>
<path d="M23.9089 72.4626C23.9432 72.4626 23.9779 72.458 24.0125 72.4485C24.2152 72.3913 24.3329 72.1807 24.2757 71.9785C23.8263 70.3853 22.5584 69.1147 20.9663 68.6615C20.7641 68.6032 20.5535 68.7216 20.4959 68.9239C20.4384 69.1261 20.5557 69.3368 20.758 69.3943C22.0975 69.7751 23.1643 70.845 23.5425 72.1853C23.5901 72.3529 23.7425 72.4626 23.9089 72.4626Z" fill="#BDBDBD"/>
<path d="M20.8021 66.8877C20.5995 66.8294 20.3889 66.9471 20.3314 67.1501C20.2739 67.3524 20.3912 67.563 20.5934 67.6205C22.8631 68.2661 24.6711 70.0783 25.3117 72.3494C25.3589 72.517 25.5116 72.6271 25.6781 72.6271C25.7124 72.6271 25.747 72.6225 25.7817 72.613C25.9839 72.5559 26.102 72.3452 26.0449 72.143C25.333 69.619 23.3243 67.6057 20.8021 66.8877Z" fill="#BDBDBD"/>
<path d="M94 79.8C88.0316 76.635 83.4536 74.8603 79.3783 74.1799L79.8 73.6001C80.0001 73.4 80.1 73.1 80.0001 72.8L79.0629 69.0516C79.4025 68.5714 79.7229 68.075 80.023 67.5647C83.7496 66.2964 85.6341 64.1524 85.9507 60.9959C87.5876 60.9105 89 59.4496 89 57.8V50.3C89 48.658 87.6937 47.2029 85.9824 47.1055C85.7622 41.3286 83.215 30 67 30C50.7846 30 48.2377 41.3291 48.0175 47.1059C46.3941 47.2017 45 48.5647 45 50.2999V57.7999C45 59.5 46.5 61 48.3 61H49.8C50.3513 61 50.8811 60.8415 51.3426 60.5704C51.9096 63.5803 53.1611 66.5408 54.9372 69.0514L54 72.7999C54 73 54 73.3 54.2001 73.6L54.6218 74.1798C50.5465 74.8603 45.9685 76.6349 40.0001 79.7999C38.1 80.7 37 82.6 37 84.7V88.9999C37 89.6 37.4 90 38 90H62H62.3999H71.6H71.9999H95.9999C96.5999 90 96.9999 89.6 96.9999 89V84.7001C97 82.7 95.8 80.8 94 79.8ZM67.0055 77.5126L69.4 83H64.5666L67.0055 77.5126ZM63.84 85H70.1561L70.7414 88H63.2399L63.84 85ZM77.5 71L77.9 72.8L76.8784 74.2027C76.8133 74.256 76.7529 74.3205 76.7 74.4L72.5404 80.1594L71.2206 81.9716L68.5247 75.9059C71.8128 75.5048 74.7408 73.8291 77.0884 71.4279C77.2272 71.288 77.3645 71.1458 77.5 71ZM81.4048 64.7794C81.9688 63.407 82.394 61.9805 82.6628 60.5426C83.0436 60.7732 83.477 60.9273 83.9444 60.9796C83.7711 62.3931 83.143 63.7276 81.4048 64.7794ZM86.9 50.2V57.7C86.9 58.3 86.3999 58.9 85.7 58.9H84.2C83.6 58.9 83 58.3999 83 57.7V57V50.2C83 49.6 83.5 49 84.2 49H85.7C86.3 49 86.9 49.5 86.9 50.2ZM67 32C73.1637 32 83.5373 34.0121 83.9833 47.1163C83.5642 47.1593 83.1629 47.2867 82.7998 47.4824C81.5829 39.8674 74.9438 34 67 34C59.0573 34 52.4188 39.8658 51.2007 47.4791C50.843 47.286 50.4436 47.1584 50.0166 47.1159C50.4629 34.0121 60.8364 32 67 32ZM50.9 57.7C50.9 58.3 50.3999 58.9 49.7 58.9H48.2C47.6 58.9 47 58.3999 47 57.7V50.2C47 49.6 47.5 49 48.2 49H49.7C50.3 49 50.9 49.5 50.9 50.2V57.7ZM53 50C53 42.3 59.3 36 67 36C74.7 36 81 42.3 81 50V57C81 60.3084 80.1387 63.3374 78.7423 65.893C76.3554 66.5854 72.9217 67 68.0001 67C67.4001 67 67.0001 67.3999 67.0001 67.9999C67.0001 68.5999 67.4001 68.9999 68.0001 68.9999C71.603 68.9999 74.6163 68.7786 77.0839 68.3161C77.0226 68.3774 76.9613 68.4387 76.9 68.5C76.3969 69.1707 75.8659 69.7823 75.3112 70.3338C72.9565 72.5275 70.1481 73.8563 67.4418 73.9879C67.3056 73.9294 67.1529 73.9 67 73.9C66.8463 73.9 66.7077 73.9301 66.5835 73.9891C64.927 73.9132 63.2316 73.3881 61.6246 72.49C59.9965 71.5546 58.465 70.2061 57.1 68.5C57 68.4 56.9 68.2999 56.8 68.2L56.7416 68.1805C54.4959 65.2351 53 61.3603 53 57V50ZM65.4752 75.9059L62.7793 81.9716L61.4595 80.1594L57.2999 74.4C57.268 74.3681 57.2329 74.3366 57.1963 74.3055L56.0999 72.8L56.4999 71C56.6352 71.1458 56.7726 71.2878 56.9111 71.4277C59.2588 73.8288 62.1871 75.5047 65.4752 75.9059ZM39 84.7C39 83.4 39.7 82.2 40.9 81.6C47.2742 78.2138 51.8627 76.5142 55.9502 76.0065L61.9176 84.2118L61.16 88H39V84.7ZM95 88H72.84L72.0824 84.2118L78.1145 75.9176C82.1876 76.5322 86.8585 78.2305 93.1001 81.4999C94.3001 82.1999 95.0001 83.3999 95.0001 84.7V88H95Z" fill="url(#paint0_linear)"/>
<path d="M42.1191 6.40336C42.1191 6.40336 40.5653 7.90566 41.1194 11.3387C41.6735 14.7717 44.6267 16.6053 46.2775 17.2908C44.998 18.9187 43.8099 19.9983 43.8099 19.9983C43.8099 19.9983 46.9059 20.1297 49.4478 18.0676C53.1835 18.3818 56.6794 16.8795 58.6444 13.1609C60.6093 9.44223 59.5412 4.70685 55.9425 2.03355C52.3438 -0.639743 48.5738 0.0914142 48.5738 0.0914142C48.5738 0.0914142 52.6466 -0.297013 54.4174 2.09639C55.9425 4.15277 55.9825 6.48904 54.3602 8.88244C52.6523 11.4072 50.236 12.2869 47.38 12.464C44.2668 12.6582 40.2226 10.2362 42.1191 6.40336Z" fill="#BDBDBD"/>
<path d="M55.2799 6.11773C55.2799 6.11773 55.8968 1.89644 51.527 0.514093C49.2079 -0.222777 46.4203 0.42841 44.8095 1.56513C43.1301 2.74755 42.3361 4.5526 42.4504 4.85534C42.5875 5.23234 43.8099 3.74718 46.2033 3.16454C48.688 2.56476 52.618 3.06172 55.2799 6.11773Z" fill="#BDBDBD"/>
<path d="M49.185 11.9898C49.185 11.9898 49.5906 10.459 49.2307 8.8253C48.511 5.60364 46.0547 4.33554 43.45 5.38658C47.1401 3.38732 52.1554 6.47189 52.3496 10.6303C51.3614 11.6071 49.185 11.9898 49.185 11.9898Z" fill="#BDBDBD"/>
<path d="M42.6446 10.4361C42.6446 10.4361 41.5364 9.67638 41.7934 7.65999C42.2333 4.21555 48.4367 3.97564 49.1336 9.1223C47.8998 8.21978 44.0897 7.76852 42.6446 10.4361Z" fill="#BDBDBD"/>
<g clip-path="url(#clip0)">
<path d="M104.95 15.6386C104.461 15.4516 103.796 15.3341 103.087 15.3017C104.355 14.7659 105.064 13.5658 104.669 12.6224C104.273 11.6753 102.913 11.3396 101.639 11.8719C101.313 12.0074 100.932 12.2279 100.553 12.4953C101.181 11.8239 101.693 11.0675 101.93 10.4453C102.563 8.7993 101.738 6.94592 100.092 6.31294C98.4464 5.68116 96.5906 6.50715 95.96 8.15314C95.8329 8.47802 95.7406 8.88562 95.6831 9.32799C95.0956 8.24784 94.0131 7.67481 93.1428 8.03805C92.1957 8.43366 91.86 9.79553 92.3935 11.0687C92.4295 11.1538 92.4726 11.2461 92.5182 11.3372C92.1106 11.0483 91.7042 10.8157 91.3457 10.6767C89.6985 10.0437 87.8451 10.8697 87.2134 12.5157C86.5804 14.164 87.4064 16.0162 89.0524 16.6492C89.4168 16.7883 89.8808 16.8866 90.3867 16.9453C89.1399 17.4884 88.447 18.6728 88.8378 19.6091C89.2334 20.5562 90.5941 20.8931 91.8684 20.3596C91.89 20.35 91.9116 20.3392 91.9343 20.3296C91.625 20.7552 91.3805 21.1796 91.2354 21.5524C90.6036 23.2008 91.4284 25.0542 93.0744 25.6872C94.7204 26.3177 96.5738 25.4929 97.2068 23.8482C97.4142 23.3111 97.5341 22.563 97.5508 21.7754C97.5904 21.8965 97.6312 22.0104 97.6743 22.1123C98.2066 23.3878 99.4114 24.1023 100.358 23.7055C101.306 23.3099 101.641 21.9504 101.109 20.6761C101.107 20.6713 101.105 20.6665 101.102 20.6617C101.633 21.0909 102.183 21.4313 102.655 21.6123C104.301 22.2429 106.157 21.4193 106.79 19.7733C107.418 18.1262 106.595 16.2728 104.95 15.6386ZM101.823 12.3107C102.771 11.9151 103.782 12.1656 104.077 12.8681C104.372 13.573 103.84 14.4685 102.892 14.8666C102.197 15.1567 100.727 15.4096 99.8742 15.2454C99.837 15.1195 99.7962 14.9948 99.7399 14.8714C99.6428 14.6544 99.5205 14.4554 99.3814 14.2731C99.8226 13.5395 101.102 12.6128 101.823 12.3107ZM96.7236 8.44685C97.1948 7.22285 98.5734 6.60785 99.7986 7.07779C101.023 7.54893 101.636 8.92638 101.168 10.1516C100.777 11.167 99.2915 12.9856 98.0963 13.3093C97.7858 13.1882 97.4537 13.1247 97.1157 13.1127C96.201 12.2867 96.2957 9.56176 96.7236 8.44685ZM93.3897 8.63147C94.0958 8.33776 94.9913 8.86884 95.3882 9.81711C95.4685 10.0101 95.5452 10.2619 95.6123 10.5436C95.6219 11.1094 95.6891 11.6789 95.8209 12.1968C95.8209 12.8142 95.7106 13.3261 95.4085 13.4519C94.7036 13.7469 93.2303 11.8335 92.8335 10.8853C92.4355 9.93699 92.686 8.92638 93.3897 8.63147ZM89.3461 15.8832C88.1209 15.4144 87.5071 14.0346 87.9782 12.8094C88.4482 11.5854 89.8268 10.9704 91.0508 11.4415C92.24 11.8971 94.5202 13.8488 94.2313 15.0847C94.2121 15.1399 94.1929 15.195 94.1761 15.2514C93.6343 16.4202 90.5533 16.3471 89.3461 15.8832ZM96.4431 23.5532C95.9732 24.7772 94.5933 25.391 93.3681 24.9211C92.1441 24.4512 91.5291 23.0713 91.9991 21.8473C92.4402 20.6988 94.2828 18.5194 95.52 18.6393C95.6879 18.7388 95.8653 18.8191 96.0463 18.8826C96.9646 19.7074 96.8723 22.4335 96.4431 23.5532ZM94.965 16.9981C94.4603 15.8616 94.971 14.5249 96.1087 14.0214C97.2463 13.5143 98.5818 14.0262 99.0877 15.1651C99.5757 16.2644 99.1057 17.5447 98.0436 18.0854H98.0412C98.0352 18.0878 98.0304 18.0938 98.0232 18.0974C97.9956 18.1106 97.9716 18.1298 97.9429 18.1429C96.8076 18.6488 95.4709 18.1346 94.965 16.9981ZM100.11 23.1157C99.4066 23.4082 98.5123 22.8771 98.1143 21.9276C97.8302 21.2479 97.5808 19.8249 97.7235 18.9665C97.8973 18.9258 98.0675 18.8694 98.2354 18.7963C98.4368 18.7064 98.6202 18.5973 98.7904 18.4714C99.5109 18.9545 100.379 20.1642 100.669 20.8595C101.066 21.8078 100.815 22.8184 100.11 23.1157ZM106.023 19.4784C105.552 20.7024 104.174 21.3174 102.949 20.8487C101.767 20.3931 99.5001 18.457 99.7663 17.221C99.7974 17.1455 99.8262 17.07 99.8502 16.9933C100.45 15.8712 103.465 15.9479 104.656 16.4046C105.879 16.8734 106.494 18.2556 106.023 19.4784Z" fill="#BDBDBD"/>
</g>
<path d="M117.067 44.374C116.613 44.0792 116.06 43.8259 115.423 43.6214C114.815 43.4277 114.132 43.2491 113.399 43.0918C112.833 42.9608 112.419 42.8597 112.172 42.7909C111.956 42.7308 111.739 42.647 111.526 42.541C111.353 42.4537 111.219 42.3543 111.131 42.2471C111.074 42.1766 111.049 42.1018 111.049 41.9959C111.049 41.8731 111.091 41.7054 111.413 41.4944C111.73 41.2861 112.175 41.1802 112.734 41.1802C113.518 41.1802 113.849 41.3423 113.975 41.4387C114.236 41.6371 114.467 41.925 114.67 42.3119C114.891 42.6915 115.09 42.9526 115.294 43.1324C115.556 43.365 115.914 43.483 116.356 43.483C116.838 43.483 117.265 43.304 117.591 42.9647C117.912 42.6314 118.082 42.2272 118.082 41.7961C118.082 41.3898 117.97 40.9756 117.749 40.5649C117.535 40.168 117.202 39.7911 116.758 39.4444C116.323 39.1051 115.777 38.8318 115.135 38.6321C114.501 38.4354 113.752 38.3355 112.907 38.3355C111.85 38.3355 110.911 38.4851 110.116 38.7795C109.282 39.0877 108.629 39.5434 108.176 40.1343C107.711 40.74 107.476 41.4412 107.476 42.2185C107.476 43.0321 107.703 43.7294 108.153 44.2923C108.578 44.824 109.155 45.2481 109.867 45.5511C110.524 45.8304 111.343 46.0759 112.307 46.2817C112.976 46.4217 113.518 46.5562 113.918 46.6807C114.247 46.7828 114.513 46.928 114.711 47.1122C114.857 47.2492 114.922 47.4157 114.922 47.6512C114.922 47.8561 114.868 48.1281 114.444 48.4168C114.059 48.6792 113.532 48.8128 112.875 48.8128C112.398 48.8128 112.02 48.7489 111.753 48.6222C111.494 48.4998 111.294 48.3473 111.159 48.17C110.996 47.9543 110.839 47.675 110.694 47.3444C110.525 46.9462 110.308 46.6328 110.048 46.411C109.75 46.1607 109.39 46.034 108.976 46.034C108.495 46.034 108.067 46.1949 107.741 46.5005C107.407 46.8157 107.23 47.2182 107.23 47.6651C107.23 48.2825 107.449 48.9128 107.883 49.5379C108.302 50.1409 108.851 50.6277 109.517 50.9874C110.426 51.4703 111.578 51.7154 112.942 51.7154C114.076 51.7154 115.079 51.5377 115.92 51.1875C116.793 50.8253 117.471 50.3083 117.936 49.6503C118.406 48.9841 118.645 48.2241 118.645 47.3919C118.645 46.6968 118.503 46.092 118.223 45.5957C117.946 45.1055 117.557 44.6948 117.067 44.374ZM117.229 49.1518C116.86 49.6745 116.308 50.0908 115.587 50.3895C114.852 50.6956 113.961 50.8508 112.941 50.8508C111.72 50.8508 110.705 50.6402 109.925 50.2257C109.381 49.9321 108.933 49.5348 108.593 49.0459C108.262 48.5682 108.094 48.1035 108.094 47.666C108.094 47.4546 108.17 47.2843 108.332 47.1317C108.499 46.9756 108.71 46.8995 108.976 46.8995C109.183 46.8995 109.352 46.9562 109.489 47.0716C109.644 47.2039 109.782 47.4097 109.9 47.6876C110.074 48.0849 110.266 48.4225 110.47 48.6932C110.69 48.9832 110.998 49.2227 111.383 49.4048C111.767 49.5868 112.269 49.6789 112.875 49.6789C113.709 49.6789 114.4 49.4947 114.931 49.132C115.499 48.7451 115.787 48.2471 115.787 47.6522C115.787 47.1775 115.624 46.7842 115.301 46.4815C115.007 46.207 114.628 45.997 114.175 45.856C113.75 45.7233 113.181 45.5823 112.486 45.4371C111.579 45.2425 110.812 45.0138 110.207 44.7566C109.628 44.5097 109.164 44.1717 108.829 43.7532C108.505 43.3477 108.341 42.8319 108.341 42.2194C108.341 41.6367 108.517 41.1127 108.862 40.6614C109.215 40.2019 109.738 39.8418 110.417 39.591C111.116 39.3321 111.954 39.2011 112.908 39.2011C113.667 39.2011 114.33 39.2875 114.88 39.4587C115.421 39.6269 115.875 39.8521 116.228 40.1271C116.577 40.399 116.832 40.6848 116.989 40.9752C117.141 41.2584 117.218 41.5351 117.218 41.7966C117.218 42.0054 117.137 42.1917 116.97 42.3655C116.805 42.5363 116.605 42.6188 116.357 42.6188C116.203 42.6188 115.993 42.5959 115.868 42.4844C115.737 42.3698 115.586 42.1658 115.427 41.8939C115.174 41.411 114.862 41.0267 114.5 40.7508C114.114 40.4582 113.537 40.316 112.735 40.316C112.004 40.316 111.4 40.4695 110.939 40.772C110.439 41.0997 110.186 41.5117 110.186 41.9963C110.186 42.3006 110.279 42.5687 110.464 42.7952C110.631 42.9984 110.858 43.1726 111.141 43.3144C111.403 43.4459 111.673 43.5501 111.942 43.6244C112.194 43.6949 112.619 43.799 113.212 43.9365C113.924 44.0895 114.58 44.2607 115.161 44.4458C115.724 44.6269 116.208 44.8469 116.596 45.0999C116.969 45.3432 117.263 45.6528 117.47 46.0211C117.676 46.3868 117.78 46.8485 117.78 47.3937C117.779 48.043 117.594 48.6348 117.229 49.1518ZM122.211 46.9774C122.335 46.36 122.399 45.7293 122.399 45.1003C122.399 39.9002 118.168 35.6697 112.967 35.6697C112.479 35.6697 111.991 35.7069 111.516 35.7812C110.649 35.2697 109.662 35 108.651 35C105.535 35 103 37.535 103 40.6511C103 41.6 103.24 42.5346 103.695 43.3651C103.588 43.9405 103.535 44.5237 103.535 45.1003C103.535 50.3009 107.766 54.5323 112.967 54.5323C113.498 54.5323 114.028 54.4878 114.545 54.4C115.328 54.793 116.201 55 117.081 55C120.198 55 122.733 52.4654 122.733 49.3498C122.733 48.5202 122.557 47.7231 122.211 46.9774ZM117.081 54.1358C116.292 54.1358 115.51 53.9396 114.819 53.5683L114.685 53.4961L114.535 53.5237C114.023 53.6192 113.496 53.6677 112.967 53.6677C108.242 53.6677 104.399 49.8241 104.399 45.1003C104.399 44.5275 104.458 43.9474 104.573 43.3763L104.605 43.2142L104.522 43.0715C104.092 42.3392 103.864 41.5018 103.864 40.6511C103.864 38.0119 106.012 35.8646 108.651 35.8646C109.554 35.8646 110.435 36.1188 111.197 36.5996L111.338 36.6882L111.502 36.6596C111.979 36.5766 112.472 36.5342 112.967 36.5342C117.691 36.5342 121.534 40.377 121.534 45.1003C121.534 45.7177 121.467 46.3363 121.335 46.9398L121.303 47.0885L121.37 47.2246C121.701 47.8887 121.868 48.6037 121.868 49.3498C121.868 51.989 119.721 54.1358 117.081 54.1358Z" fill="#BDBDBD"/>
<g clip-path="url(#clip1)">
<path d="M130.083 72.9469C128.148 71.0124 125.592 70 123.036 70C120.48 70 117.924 71.0124 115.989 72.9469C112.056 76.8803 112.056 83.1079 115.989 87.0412C117.936 88.9876 120.48 90 123.036 90C125.592 90 128.137 88.9876 130.083 87.0412C134.017 83.1079 134.017 76.8803 130.083 72.9469ZM117.642 74.6004C119.132 73.1229 121.078 72.3216 123.036 72.3216C124.572 72.3216 126.12 72.8297 127.457 73.7796L123.036 78.2001L116.822 84.4147C114.621 81.3048 114.943 77.3114 117.642 74.6004ZM128.43 85.3879C126.941 86.8654 124.994 87.6666 123.036 87.6666C121.5 87.6666 119.952 87.1585 118.616 86.2086L129.251 75.5736C131.451 78.6833 131.129 82.6767 128.43 85.3879Z" fill="#FF4141"/>
<path d="M130.083 87.0412C128.137 88.9876 125.592 90 123.036 90V87.6666C124.994 87.6666 126.941 86.8654 128.43 85.3879C131.129 82.6767 131.452 78.6833 129.251 75.5736L123.036 81.7882V78.2001L127.457 73.7796C126.12 72.8297 124.572 72.3216 123.036 72.3216V70C125.592 70 128.148 71.0124 130.083 72.9469C134.017 76.8803 134.017 83.1079 130.083 87.0412Z" fill="#FF4141"/>
</g>
<g opacity="0.2" clip-path="url(#clip2)">
<path d="M27.5416 13.4735C26.5742 12.5062 25.2961 12 24.0181 12C22.74 12 21.4618 12.5062 20.4945 13.4735C18.5279 15.4402 18.5279 18.554 20.4945 20.5206C21.4678 21.4938 22.74 22 24.0181 22C25.2961 22 26.5683 21.4938 27.5416 20.5206C29.5083 18.554 29.5083 15.4402 27.5416 13.4735ZM21.3211 14.3002C22.0658 13.5614 23.039 13.1608 24.0181 13.1608C24.7861 13.1608 25.56 13.4149 26.2284 13.8898L24.0181 16.1L20.9108 19.2073C19.8103 17.6524 19.9716 15.6557 21.3211 14.3002ZM26.7149 19.6939C25.9703 20.4327 24.9971 20.8333 24.0181 20.8333C23.25 20.8333 22.4762 20.5793 21.8078 20.1043L27.1254 14.7868C28.2257 16.3417 28.0645 18.3383 26.7149 19.6939Z" fill="#FF4141"/>
<path d="M27.5416 20.5206C26.5683 21.4938 25.2961 22 24.0181 22V20.8333C24.9971 20.8333 25.9704 20.4327 26.7149 19.6939C28.0645 18.3383 28.2258 16.3417 27.1254 14.7868L24.0181 17.8941V16.1L26.2283 13.8898C25.56 13.4149 24.786 13.1608 24.0181 13.1608V12C25.2961 12 26.5742 12.5062 27.5416 13.4735C29.5083 15.4402 29.5083 18.554 27.5416 20.5206Z" fill="#FF4141"/>
</g>
<g opacity="0.5" clip-path="url(#clip3)">
<path d="M6.8333 53.1788C6.05937 52.405 5.03691 52 4.01445 52C2.99199 52 1.96947 52.405 1.1956 53.1788C-0.377701 54.7521 -0.377701 57.2432 1.1956 58.8165C1.97423 59.595 2.99199 60 4.01445 60C5.03691 60 6.05467 59.595 6.8333 58.8165C8.4066 57.2432 8.4066 54.7521 6.8333 53.1788ZM1.85692 53.8401C2.45262 53.2491 3.23119 52.9286 4.01445 52.9286C4.62889 52.9286 5.24797 53.1319 5.7827 53.5118L4.01445 55.28L1.52861 57.7659C0.648239 56.5219 0.777267 54.9246 1.85692 53.8401ZM6.17192 58.1552C5.57628 58.7462 4.79771 59.0667 4.01445 59.0667C3.40001 59.0667 2.78093 58.8634 2.2462 58.4835L6.50029 54.2294C7.3806 55.4733 7.25163 57.0707 6.17192 58.1552Z" fill="#FF4141"/>
<path d="M6.83325 58.8165C6.05463 59.595 5.03687 60 4.0144 60V59.0667C4.79767 59.0667 5.57629 58.7462 6.17188 58.1552C7.25159 57.0707 7.38055 55.4733 6.50024 54.2294L4.0144 56.7153V55.28L5.78259 53.5118C5.24792 53.1319 4.62878 52.9286 4.0144 52.9286V52C5.03687 52 6.05933 52.405 6.83325 53.1788C8.40656 54.7521 8.40656 57.2432 6.83325 58.8165Z" fill="#FF4141"/>
</g>
<g opacity="0.4" clip-path="url(#clip4)">
<path d="M78.8333 13.1788C78.0594 12.405 77.0369 12 76.0144 12C74.992 12 73.9695 12.405 73.1956 13.1788C71.6223 14.7521 71.6223 17.2432 73.1956 18.8165C73.9742 19.595 74.992 20 76.0144 20C77.0369 20 78.0547 19.595 78.8333 18.8165C80.4066 17.2432 80.4066 14.7521 78.8333 13.1788ZM73.8569 13.8401C74.4526 13.2491 75.2312 12.9286 76.0144 12.9286C76.6289 12.9286 77.248 13.1319 77.7827 13.5118L76.0144 15.28L73.5286 17.7659C72.6482 16.5219 72.7773 14.9246 73.8569 13.8401ZM78.1719 18.1552C77.5763 18.7462 76.7977 19.0667 76.0144 19.0667C75.4 19.0667 74.7809 18.8634 74.2462 18.4835L78.5003 14.2294C79.3806 15.4733 79.2516 17.0707 78.1719 18.1552Z" fill="#FF4141"/>
<path d="M78.8333 18.8165C78.0546 19.595 77.0369 20 76.0144 20V19.0667C76.7977 19.0667 77.5763 18.7462 78.1719 18.1552C79.2516 17.0707 79.3806 15.4733 78.5002 14.2294L76.0144 16.7153V15.28L77.7826 13.5118C77.2479 13.1319 76.6288 12.9286 76.0144 12.9286V12C77.0369 12 78.0593 12.405 78.8333 13.1788C80.4066 14.7521 80.4066 17.2432 78.8333 18.8165Z" fill="#FF4141"/>
</g>
<defs>
<linearGradient id="paint0_linear" x1="37" y1="30" x2="97.4545" y2="30.4616" gradientUnits="userSpaceOnUse">
<stop stop-color="#FFC149"/>
<stop offset="0.465495" stop-color="#FFB340"/>
<stop offset="1" stop-color="#FFC149"/>
</linearGradient>
<clipPath id="clip0">
<rect width="20" height="20" fill="white" transform="translate(87 6)"/>
</clipPath>
<clipPath id="clip1">
<rect width="20" height="20" fill="white" transform="translate(113 70)"/>
</clipPath>
<clipPath id="clip2">
<rect width="10" height="10" fill="white" transform="translate(19 12)"/>
</clipPath>
<clipPath id="clip3">
<rect width="8" height="8" fill="white" transform="translate(0 52)"/>
</clipPath>
<clipPath id="clip4">
<rect width="8" height="8" fill="white" transform="translate(72 12)"/>
</clipPath>
</defs>
</svg>
