<svg width="21" height="20" viewBox="0 0 21 20" fill="none" xmlns="http://www.w3.org/2000/svg">
<g clip-path="url(#clip0)">
<path d="M20.1606 11.664C20.1588 12.1321 19.7786 12.5106 19.3104 12.5102H6.97511L19.9938 1.35101M20.1606 11.664V1.35082M20.1606 11.664H19.9938M20.1606 11.664L19.9938 11.6633L19.9993 11.164H19.9938M20.1606 1.35082C20.1601 0.881485 19.7797 0.501157 19.3104 0.50061M20.1606 1.35082H19.9938C19.9943 1.1695 19.9225 0.995334 19.7942 0.867003C19.6659 0.738663 19.4917 0.666903 19.3104 0.667446V0.50061M20.1606 1.35082L19.9938 1.35101M19.3104 0.50061H5.34031M19.3104 0.50061L19.3102 0.667446C19.3096 0.667448 19.3091 0.667451 19.3085 0.667454H5.34218C5.34162 0.667451 5.34107 0.667448 5.34051 0.667446L5.34031 0.50061M5.34031 0.50061C4.87098 0.501157 4.49065 0.881485 4.4901 1.35082M5.34031 0.50061V0.667446C5.15899 0.666893 4.9848 0.738654 4.85645 0.867C4.72812 0.995338 4.65636 1.16951 4.6569 1.35082H4.4901M4.4901 1.35082V4.30272L4.65691 4.55293V1.35272C4.65691 1.35215 4.6569 1.35158 4.6569 1.35101L4.4901 1.35082ZM19.9938 1.35101C19.9938 1.35164 19.9938 1.35226 19.9938 1.35289M19.9938 1.35101L19.9938 1.35289M19.9938 1.35289V11.164M19.9938 1.35289C19.9938 1.35407 19.9937 1.35525 19.9937 1.35643L19.6606 1.35269M19.9938 11.164H19.6606M19.9938 11.164V11.6633L19.9938 11.664M19.6606 11.164V1.35269M19.6606 11.164V11.6628M19.6606 11.164H19.4938H19.4938L19.6606 11.6628M19.6606 1.35269L19.4938 1.35082L19.6606 1.3514V1.35269ZM19.6606 11.6628C19.6606 11.6632 19.6606 11.6636 19.6606 11.664M19.6606 11.6628L19.4938 11.664H19.6606M19.6606 11.664H19.9938V11.664H19.9938M19.6606 11.664L19.9938 11.664M0.322438 5.87861L0.484261 5.92306C0.484304 5.9229 0.484346 5.92274 0.484389 5.92259L0.485643 5.91802L0.485665 5.91803C0.609916 5.48177 0.89713 5.1101 1.28772 4.87983C1.28824 4.87953 1.28875 4.87923 1.28926 4.87893C1.28998 4.87851 1.2907 4.87808 1.29142 4.87766L2.60424 4.08985L2.60444 4.08972L2.60473 4.08955L2.60558 4.08904C2.98159 3.86441 3.46787 3.97387 3.71123 4.33827L3.71141 4.33854L3.71144 4.33857L3.71168 4.33893L3.9901 4.75642V4.45411L3.85128 4.24587C3.55886 3.80478 2.97079 3.67245 2.51763 3.94579L1.20332 4.73599C0.7729 4.98855 0.457159 5.3981 0.322438 5.87861ZM0.322438 5.87861L0.484025 5.92392L4.96707 14.694L4.73268 14.9284C4.73266 14.9284 4.73264 14.9283 4.73261 14.9283L4.61349 15.0475C0.198736 10.6321 -0.157016 7.62439 0.322438 5.87861ZM1.54633 5.30781L1.4605 5.16478L1.45638 5.16725L1.45636 5.16723C1.1389 5.35351 0.905667 5.65508 0.805163 6.00902C0.805018 6.00953 0.804874 6.01004 0.80473 6.01055C0.804558 6.01116 0.804387 6.01177 0.804216 6.01238L5.08588 14.5745C0.899494 10.3878 0.534131 7.62971 0.966542 6.05499C1.05613 5.74042 1.26388 5.47269 1.54633 5.30781ZM1.54633 5.30781L2.86201 4.51828C3.00943 4.43021 3.20006 4.47315 3.29544 4.61596L5.39427 7.76306L4.07408 5.48146L3.43525 4.52322L3.43502 4.52287L3.43496 4.52278L3.43453 4.52214C3.29011 4.30429 2.99967 4.23895 2.77588 4.37393L2.7758 4.37398L2.77552 4.37415L2.77526 4.37431L1.46223 5.16374L1.54633 5.30781ZM19.3104 1.00061V1.16745V1.00061ZM19.3104 1.00061C19.407 1.00088 19.4944 1.04014 19.5577 1.10347M19.3104 1.00061L19.5577 1.10347M19.5577 1.10347C19.6211 1.16681 19.6603 1.25423 19.6606 1.35082L19.5577 1.10347ZM4.4901 5.20411L4.65691 5.09291L4.4901 5.20411Z" fill="#FBFBFB" stroke="#FBFBFB"/>
<path d="M11.6586 6.80151L6.08756 2.57582C5.94081 2.46455 5.91205 2.25531 6.02337 2.10856C6.13465 1.9618 6.34388 1.93305 6.49063 2.04436M11.6586 6.80151C12.0549 7.09432 12.5959 7.09432 12.9922 6.80151M11.6586 6.80151L11.759 6.66908L11.767 6.67489C12.0999 6.9168 12.5508 6.9168 12.8837 6.67489L12.8837 6.67498L12.8917 6.66893L12.9922 6.80151M11.6586 6.80151L11.7574 6.66773L6.1885 2.44276C6.26175 2.49829 6.36614 2.48397 6.42173 2.41073C6.42174 2.41072 6.42174 2.41071 6.42175 2.41071C6.42175 2.4107 6.42176 2.41069 6.42176 2.41069C6.42177 2.41068 6.42178 2.41067 6.42178 2.41066C6.47729 2.3374 6.46296 2.23304 6.38973 2.17746L11.9579 6.40097C11.9587 6.4016 11.9596 6.40223 11.9605 6.40285C11.9614 6.40352 11.9623 6.40419 11.9632 6.40486C12.1797 6.55985 12.471 6.55987 12.6875 6.40491C12.6884 6.40425 12.6893 6.40359 12.6902 6.40292C12.6912 6.40227 12.6921 6.40161 12.693 6.40095L18.2627 2.17751M12.9922 6.80151L18.5649 2.57582C18.6355 2.52237 18.6818 2.44306 18.6938 2.35538C18.7058 2.2677 18.6825 2.17885 18.6289 2.1084C18.5177 1.96192 18.3088 1.93328 18.1621 2.04436M12.9922 6.80151L12.8934 6.66768L18.464 2.44293C18.3909 2.49831 18.2866 2.48415 18.2309 2.41105C18.2309 2.41098 18.2308 2.41092 18.2308 2.41086C18.204 2.37559 18.1925 2.33123 18.1984 2.2876C18.2044 2.24384 18.2275 2.20424 18.2627 2.17751M18.1621 2.04436L12.5897 6.2704C12.4321 6.38496 12.2186 6.38496 12.0609 6.2704L6.49063 2.04436M18.1621 2.04436L18.3636 2.30998L18.3637 2.31011L18.3638 2.31022L18.4643 2.44275L18.4641 2.44285L18.4641 2.44287L18.4641 2.44292L18.3647 2.31179L18.3635 2.31022L18.3635 2.31019L18.3634 2.31009L18.2629 2.17736M18.1621 2.04436L18.2629 2.17736M6.49063 2.04436L6.3897 2.17743L6.2891 2.31005L6.28907 2.3101L6.24293 2.37093L6.24292 2.37093L6.18846 2.44273L6.18843 2.4427L6.28904 2.31008L6.28908 2.31003L6.33278 2.25242L6.33278 2.25242L6.38968 2.17742L6.49063 2.04436ZM18.2629 2.17736L18.2629 2.17734L18.2629 2.17736ZM18.2629 2.17736L18.2628 2.17741L18.2627 2.17751M18.2629 2.17736C18.2628 2.17741 18.2628 2.17746 18.2627 2.17751" fill="#FBFBFB" stroke="#FBFBFB"/>
<mask id="path-3-inside-1" fill="white">
<path d="M9.48014 6.82952L6.06466 10.4871C5.93908 10.6218 5.94646 10.8328 6.08114 10.9584C6.21583 11.084 6.42685 11.0766 6.55243 10.9419L9.96796 7.28268C10.0808 7.14655 10.0677 6.946 9.93818 6.82562C9.80862 6.70523 9.60763 6.70695 9.48014 6.82952Z"/>
</mask>
<path d="M9.48014 6.82952L6.06466 10.4871C5.93908 10.6218 5.94646 10.8328 6.08114 10.9584C6.21583 11.084 6.42685 11.0766 6.55243 10.9419L9.96796 7.28268C10.0808 7.14655 10.0677 6.946 9.93818 6.82562C9.80862 6.70523 9.60763 6.70695 9.48014 6.82952Z" fill="#FBFBFB"/>
<path d="M9.48014 6.82952L8.78709 6.10863L8.76766 6.12732L8.74926 6.14702L9.48014 6.82952ZM6.06466 10.4871L5.33377 9.8046L5.33326 9.80515L6.06466 10.4871ZM6.55243 10.9419L5.8214 10.2596L5.82104 10.2599L6.55243 10.9419ZM9.96796 7.28268L10.699 7.96503L10.7191 7.94352L10.7378 7.92086L9.96796 7.28268ZM9.93818 6.82562L10.619 6.09313L10.6189 6.09303L9.93818 6.82562ZM8.74926 6.14702L5.33377 9.8046L6.79554 11.1696L10.211 7.51203L8.74926 6.14702ZM5.33326 9.80515C4.83104 10.3438 4.86058 11.1876 5.39919 11.6898L6.7631 10.227C7.03234 10.478 7.04712 10.8998 6.79605 11.1691L5.33326 9.80515ZM5.39919 11.6898C5.93782 12.192 6.78163 12.1625 7.28383 11.6239L5.82104 10.2599C6.07208 9.9907 6.49383 9.97593 6.7631 10.227L5.39919 11.6898ZM7.28346 11.6242L10.699 7.96503L9.23693 6.60034L5.8214 10.2596L7.28346 11.6242ZM10.7378 7.92086C11.1893 7.37625 11.1367 6.5743 10.619 6.09313L9.2574 7.5581C8.99874 7.31769 8.9723 6.91686 9.19807 6.6445L10.7378 7.92086ZM10.6189 6.09303C10.1007 5.6116 9.2969 5.61851 8.78709 6.10863L10.1732 7.55041C9.91837 7.7954 9.51653 7.79887 9.25751 7.5582L10.6189 6.09303Z" fill="#FBFBFB" mask="url(#path-3-inside-1)"/>
<path d="M15.0705 6.94334L15.0705 6.94333C15.0705 6.94333 15.0705 6.94334 15.0705 6.94334ZM15.0705 6.94334L15.0706 6.94341C15.0706 6.94339 15.0705 6.94336 15.0705 6.94334ZM18.2414 10.8281C18.2414 10.8281 18.2414 10.8281 18.2414 10.8281L18.2414 10.8281ZM18.2414 10.8281L18.3632 10.7145L18.3632 10.7145L18.485 10.6009L18.6069 10.4873L18.3634 10.7146L18.3634 10.7147L18.2416 10.8283L18.2414 10.8281Z" fill="#FBFBFB" stroke="#FBFBFB"/>
</g>
<defs>
<clipPath id="clip0">
<rect width="20" height="20" fill="white" transform="translate(0.160645)"/>
</clipPath>
</defs>
</svg>
