<svg width="25" height="24" viewBox="0 0 25 24" fill="none" xmlns="http://www.w3.org/2000/svg">
<g filter="url(#filter0_d)">
<mask id="path-1-inside-1" fill="white">
<path d="M6.0498 12C6.0498 15.5804 8.96273 18.4934 12.5432 18.4934C16.1236 18.4934 19.0366 15.5804 19.0366 12C19.0366 8.41952 16.1236 5.50653 12.5432 5.50653C8.96273 5.50653 6.0498 8.41952 6.0498 12ZM18.113 12C18.113 15.0712 15.6144 17.5699 12.5432 17.5699C9.47196 17.5699 6.97333 15.0712 6.97333 12C6.97333 8.92869 9.47196 6.43006 12.5432 6.43006C15.6144 6.43006 18.113 8.92869 18.113 12Z"/>
</mask>
<path d="M6.0498 12C6.0498 15.5804 8.96273 18.4934 12.5432 18.4934C16.1236 18.4934 19.0366 15.5804 19.0366 12C19.0366 8.41952 16.1236 5.50653 12.5432 5.50653C8.96273 5.50653 6.0498 8.41952 6.0498 12ZM18.113 12C18.113 15.0712 15.6144 17.5699 12.5432 17.5699C9.47196 17.5699 6.97333 15.0712 6.97333 12C6.97333 8.92869 9.47196 6.43006 12.5432 6.43006C15.6144 6.43006 18.113 8.92869 18.113 12Z" fill="#FBFBFB"/>
<path d="M5.0498 12C5.0498 16.1327 8.41043 19.4934 12.5432 19.4934V17.4934C9.51503 17.4934 7.0498 15.0281 7.0498 12H5.0498ZM12.5432 19.4934C16.6759 19.4934 20.0366 16.1327 20.0366 12H18.0366C18.0366 15.0281 15.5713 17.4934 12.5432 17.4934V19.4934ZM20.0366 12C20.0366 7.86724 16.6759 4.50653 12.5432 4.50653V6.50653C15.5713 6.50653 18.0366 8.97179 18.0366 12H20.0366ZM12.5432 4.50653C8.41043 4.50653 5.0498 7.86724 5.0498 12H7.0498C7.0498 8.97179 9.51503 6.50653 12.5432 6.50653V4.50653ZM17.113 12C17.113 14.519 15.0621 16.5699 12.5432 16.5699V18.5699C16.1667 18.5699 19.113 15.6235 19.113 12H17.113ZM12.5432 16.5699C10.0243 16.5699 7.97333 14.519 7.97333 12H5.97333C5.97333 15.6235 8.91967 18.5699 12.5432 18.5699V16.5699ZM7.97333 12C7.97333 9.48097 10.0243 7.43006 12.5432 7.43006V5.43006C8.91967 5.43006 5.97333 8.37641 5.97333 12H7.97333ZM12.5432 7.43006C15.0621 7.43006 17.113 9.48096 17.113 12H19.113C19.113 8.37641 16.1667 5.43006 12.5432 5.43006V7.43006Z" fill="#FBFBFB" mask="url(#path-1-inside-1)"/>
<path d="M12.4498 8.01108C12.3115 8.01108 12.1993 8.12327 12.1993 8.26155V15.1828C12.1993 15.3211 12.3115 15.4333 12.4498 15.4333C12.5881 15.4333 12.7003 15.3211 12.7003 15.1828V8.26155C12.7003 8.12327 12.5881 8.01108 12.4498 8.01108Z" fill="#FBFBFB" stroke="#FBFBFB" stroke-width="0.2"/>
<path d="M11.5324 11.6555L11.5321 11.6554C10.8424 11.3883 10.3937 10.8428 10.3937 10.2176C10.3937 9.76521 10.6331 9.36191 11.0062 9.07489C11.3793 8.78791 11.8902 8.61295 12.4497 8.61295C13.0092 8.61295 13.52 8.78791 13.8931 9.07488C14.2662 9.3619 14.5057 9.76519 14.5057 10.2176C14.5057 10.3559 14.3935 10.468 14.2552 10.468C14.1169 10.468 14.0048 10.3559 14.0048 10.2176C14.0048 9.92563 13.8416 9.65204 13.5606 9.44766C13.2796 9.24339 12.887 9.11387 12.4497 9.11387C12.0124 9.11387 11.6197 9.24339 11.3388 9.44766C11.0577 9.65204 10.8946 9.92563 10.8946 10.2176L11.5324 11.6555ZM11.5324 11.6555C11.5618 11.6667 11.5919 11.6723 11.6227 11.6723M11.5324 11.6555L11.6227 11.6723M11.6227 11.6723C11.7224 11.6723 11.8178 11.6122 11.8562 11.5122C11.9067 11.3829 11.842 11.2383 11.7133 11.1884L11.6772 11.2816M11.6227 11.6723L11.6772 11.2816M11.6772 11.2816L11.7133 11.1884C11.1927 10.9866 10.8946 10.6078 10.8946 10.2176L11.6772 11.2816Z" fill="#FBFBFB" stroke="#FBFBFB" stroke-width="0.2"/>
<path d="M13.3671 11.7893C13.2378 11.7387 13.0932 11.8033 13.0432 11.9319M13.3671 11.7893C13.3672 11.7894 13.3673 11.7894 13.3674 11.7895L13.3308 11.8825M13.3671 11.7893C13.367 11.7893 13.3669 11.7893 13.3668 11.7893L13.3308 11.8825M13.3671 11.7893C14.0571 12.0562 14.5057 12.6016 14.5057 13.2268C14.5057 13.6791 14.2662 14.0824 13.8931 14.3695C13.52 14.6564 13.0092 14.8314 12.4497 14.8314C11.8902 14.8314 11.3793 14.6564 11.0062 14.3695C10.6331 14.0824 10.3937 13.6791 10.3937 13.2268C10.3937 13.0885 10.5058 12.9763 10.6441 12.9763C10.7824 12.9763 10.8946 13.0885 10.8946 13.2268C10.8946 13.5187 11.0577 13.7923 11.3388 13.9967C11.6197 14.2009 12.0124 14.3305 12.4497 14.3305C12.887 14.3305 13.2796 14.2009 13.5606 13.9967C13.8416 13.7923 14.0048 13.5187 14.0048 13.2268C14.0048 12.8365 13.7067 12.4577 13.186 12.2559L13.2222 12.1627M13.0432 11.9319L13.3308 11.8825M13.0432 11.9319C12.9925 12.0613 13.0572 12.206 13.186 12.2559L13.2222 12.1627M13.0432 11.9319C13.0432 11.932 13.0432 11.9321 13.0431 11.9322L13.1364 11.9683L13.0433 11.9317C13.0433 11.9318 13.0433 11.9319 13.0432 11.9319ZM13.0432 11.9319L13.2222 12.1627M13.3308 11.8825C13.994 12.1389 14.4057 12.6541 14.4057 13.2268C14.4057 14.0564 13.5282 14.7314 12.4497 14.7314C11.3712 14.7314 10.4937 14.0564 10.4937 13.2268C10.4937 13.1437 10.5611 13.0763 10.6441 13.0763C10.7272 13.0763 10.7946 13.1437 10.7946 13.2268C10.7946 13.8906 11.5373 14.4305 12.4497 14.4305C13.3621 14.4305 14.1048 13.8906 14.1048 13.2268C14.1048 12.7814 13.7665 12.3736 13.2222 12.1627" fill="#FBFBFB" stroke="#FBFBFB" stroke-width="0.2"/>
<path d="M13.416 12.0791L13.5086 12.1169C13.561 11.9883 13.4982 11.8426 13.3702 11.7908L13.3701 11.7908C12.9274 11.6123 12.7164 11.5426 12.4948 11.4694L12.4943 11.4693C12.4943 11.4693 12.4943 11.4693 12.4943 11.4693C12.2995 11.4049 12.0988 11.3384 11.714 11.1889C11.584 11.137 11.4395 11.2036 11.3895 11.3308C11.3387 11.46 11.4031 11.6052 11.5318 11.6553L11.5318 11.6553C11.9259 11.8085 12.134 11.8772 12.3329 11.943L12.3374 11.9445L12.3375 11.9445C12.5522 12.0154 12.7541 12.082 13.183 12.2549L13.183 12.2549L13.1838 12.2552C13.2135 12.2669 13.2449 12.273 13.2767 12.273C13.3755 12.273 13.4695 12.2141 13.5088 12.1164L13.416 12.0791ZM13.416 12.0791C13.3925 12.1375 13.3363 12.173 13.2767 12.173C13.2577 12.173 13.2388 12.1694 13.2204 12.1622L11.6773 11.2819C12.0646 11.4324 12.2671 11.4995 12.463 11.5642L12.4639 11.5645C12.6842 11.6372 12.893 11.7062 13.3327 11.8835C13.41 11.9148 13.4473 12.0024 13.416 12.0791Z" fill="#FBFBFB" stroke="#FBFBFB" stroke-width="0.2"/>
<mask id="path-7-inside-2" fill="white">
<path d="M12.1606 2.92353C14.1468 2.92353 16.0362 3.55811 17.5971 4.73037H16.3828V5.6539H19.3544V2.6823H18.4308V4.20914C16.6593 2.7781 14.4693 2 12.1606 2C6.64664 2 2.16064 6.486 2.16064 12H3.08417C3.08417 6.99523 7.15587 2.92353 12.1606 2.92353Z"/>
</mask>
<path d="M12.1606 2.92353C14.1468 2.92353 16.0362 3.55811 17.5971 4.73037H16.3828V5.6539H19.3544V2.6823H18.4308V4.20914C16.6593 2.7781 14.4693 2 12.1606 2C6.64664 2 2.16064 6.486 2.16064 12H3.08417C3.08417 6.99523 7.15587 2.92353 12.1606 2.92353Z" fill="#FBFBFB"/>
<path d="M17.5971 4.73037V5.73037H20.594L18.1976 3.93076L17.5971 4.73037ZM16.3828 4.73037V3.73037H15.3828V4.73037H16.3828ZM16.3828 5.6539H15.3828V6.6539H16.3828V5.6539ZM19.3544 5.6539V6.6539H20.3544V5.6539H19.3544ZM19.3544 2.6823H20.3544V1.6823H19.3544V2.6823ZM18.4308 2.6823V1.6823H17.4308V2.6823H18.4308ZM18.4308 4.20914L17.8025 4.98704L19.4308 6.30241V4.20914H18.4308ZM2.16064 12H1.16064V13H2.16064V12ZM3.08417 12V13H4.08417V12H3.08417ZM12.1606 3.92353C13.9308 3.92353 15.6093 4.48811 16.9966 5.52999L18.1976 3.93076C16.4631 2.62811 14.3629 1.92353 12.1606 1.92353V3.92353ZM17.5971 3.73037H16.3828V5.73037H17.5971V3.73037ZM15.3828 4.73037V5.6539H17.3828V4.73037H15.3828ZM16.3828 6.6539H19.3544V4.6539H16.3828V6.6539ZM20.3544 5.6539V2.6823H18.3544V5.6539H20.3544ZM19.3544 1.6823H18.4308V3.6823H19.3544V1.6823ZM17.4308 2.6823V4.20914H19.4308V2.6823H17.4308ZM19.0592 3.43123C17.1094 1.85622 14.6975 1 12.1606 1V3C14.241 3 16.2091 3.69999 17.8025 4.98704L19.0592 3.43123ZM12.1606 1C6.09436 1 1.16064 5.93371 1.16064 12H3.16064C3.16064 7.03828 7.19893 3 12.1606 3V1ZM2.16064 13H3.08417V11H2.16064V13ZM4.08417 12C4.08417 7.54751 7.70816 3.92353 12.1606 3.92353V1.92353C6.60359 1.92353 2.08417 6.44294 2.08417 12H4.08417Z" fill="#FBFBFB" mask="url(#path-7-inside-2)"/>
<mask id="path-9-inside-3" fill="white">
<path d="M21.237 12C21.237 17.0048 17.1653 21.0765 12.1605 21.0765C10.2307 21.0765 8.38694 20.4751 6.84989 19.3624H8.05558V18.4389H5.08398V21.4105H6.00751V19.8834C7.75888 21.2547 9.90627 22 12.1605 22C17.6746 22 22.1605 17.5141 22.1605 12H21.237Z"/>
</mask>
<path d="M21.237 12C21.237 17.0048 17.1653 21.0765 12.1605 21.0765C10.2307 21.0765 8.38694 20.4751 6.84989 19.3624H8.05558V18.4389H5.08398V21.4105H6.00751V19.8834C7.75888 21.2547 9.90627 22 12.1605 22C17.6746 22 22.1605 17.5141 22.1605 12H21.237Z" fill="#FBFBFB"/>
<path d="M21.237 12V11H20.237V12H21.237ZM6.84989 19.3624V18.3624H3.76323L6.26349 20.1724L6.84989 19.3624ZM8.05558 19.3624V20.3624H9.05558V19.3624H8.05558ZM8.05558 18.4389H9.05558V17.4389H8.05558V18.4389ZM5.08398 18.4389V17.4389H4.08398V18.4389H5.08398ZM5.08398 21.4105H4.08398V22.4105H5.08398V21.4105ZM6.00751 21.4105V22.4105H7.00751V21.4105H6.00751ZM6.00751 19.8834L6.62401 19.096L5.00751 17.8303L5.00751 19.8834H6.00751ZM22.1605 12H23.1605V11H22.1605V12ZM20.237 12C20.237 16.4525 16.613 20.0765 12.1605 20.0765V22.0765C17.7176 22.0765 22.237 17.5571 22.237 12H20.237ZM12.1605 20.0765C10.4408 20.0765 8.80241 19.5414 7.43629 18.5524L6.26349 20.1724C7.97148 21.4089 10.0205 22.0765 12.1605 22.0765V20.0765ZM6.84989 20.3624H8.05558V18.3624H6.84989V20.3624ZM9.05558 19.3624V18.4389H7.05558V19.3624H9.05558ZM8.05558 17.4389H5.08398V19.4389H8.05558V17.4389ZM4.08398 18.4389V21.4105H6.08398V18.4389H4.08398ZM5.08398 22.4105H6.00751V20.4105H5.08398V22.4105ZM7.00751 21.4105V19.8834H5.00751V21.4105H7.00751ZM5.39101 20.6708C7.31848 22.18 9.68295 23 12.1605 23V21C10.1296 21 8.19929 20.3295 6.62401 19.096L5.39101 20.6708ZM12.1605 23C18.2269 23 23.1605 18.0663 23.1605 12H21.1605C21.1605 16.9618 17.1223 21 12.1605 21V23ZM22.1605 11H21.237V13H22.1605V11Z" fill="#FBFBFB" mask="url(#path-9-inside-3)"/>
</g>
<defs>
<filter id="filter0_d" x="0.160645" y="0" width="23.9999" height="24" filterUnits="userSpaceOnUse" color-interpolation-filters="sRGB">
<feFlood flood-opacity="0" result="BackgroundImageFix"/>
<feColorMatrix in="SourceAlpha" type="matrix" values="0 0 0 0 0 0 0 0 0 0 0 0 0 0 0 0 0 0 127 0"/>
<feOffset/>
<feGaussianBlur stdDeviation="1"/>
<feColorMatrix type="matrix" values="0 0 0 0 0 0 0 0 0 0 0 0 0 0 0 0 0 0 0.35 0"/>
<feBlend mode="normal" in2="BackgroundImageFix" result="effect1_dropShadow"/>
<feBlend mode="normal" in="SourceGraphic" in2="effect1_dropShadow" result="shape"/>
</filter>
</defs>
</svg>
