<svg width="11" height="20" viewBox="0 0 11 20" fill="none" xmlns="http://www.w3.org/2000/svg">
<mask id="path-1-inside-1" fill="white">
<path d="M5.57732 0C5.34732 0 5.16064 0.186679 5.16064 0.416679V19.5833C5.16064 19.8133 5.34732 20 5.57732 20C5.80732 20 5.994 19.8133 5.994 19.5833V0.416679C5.994 0.186679 5.80732 0 5.57732 0Z"/>
</mask>
<path d="M5.57732 0C5.34732 0 5.16064 0.186679 5.16064 0.416679V19.5833C5.16064 19.8133 5.34732 20 5.57732 20C5.80732 20 5.994 19.8133 5.994 19.5833V0.416679C5.994 0.186679 5.80732 0 5.57732 0Z" fill="#FBFBFB"/>
<path d="M5.57732 -1C4.79504 -1 4.16064 -0.365606 4.16064 0.416679H6.16064C6.16064 0.738965 5.89961 1 5.57732 1V-1ZM4.16064 0.416679V19.5833H6.16064V0.416679H4.16064ZM4.16064 19.5833C4.16064 20.3656 4.79505 21 5.57732 21V19C5.8996 19 6.16064 19.261 6.16064 19.5833H4.16064ZM5.57732 21C6.3596 21 6.994 20.3656 6.994 19.5833H4.994C4.994 19.261 5.25504 19 5.57732 19V21ZM6.994 19.5833V0.416679H4.994V19.5833H6.994ZM6.994 0.416679C6.994 -0.365605 6.35961 -1 5.57732 -1V1C5.25504 1 4.994 0.738963 4.994 0.416679H6.994Z" fill="#FBFBFB" mask="url(#path-1-inside-1)"/>
<mask id="path-3-inside-2" fill="white">
<path d="M5.57731 1.66669C2.59064 1.66669 0.160645 3.53586 0.160645 5.83336C0.160645 7.41918 1.30064 8.84585 3.13646 9.55667C3.18646 9.57585 3.23646 9.58499 3.28728 9.58499C3.45396 9.58499 3.61228 9.48417 3.6756 9.31831C3.75978 9.10413 3.6531 8.86331 3.4381 8.77999C1.9306 8.19582 0.993924 7.06668 0.993924 5.83332C0.994002 3.995 3.05064 2.50001 5.57731 2.50001C8.10399 2.50001 10.1606 3.995 10.1606 5.83332C10.1606 6.06332 10.3473 6.25 10.5773 6.25C10.8073 6.25 10.994 6.06332 10.994 5.83332C10.994 3.53582 8.56399 1.66669 5.57731 1.66669Z"/>
</mask>
<path d="M5.57731 1.66669C2.59064 1.66669 0.160645 3.53586 0.160645 5.83336C0.160645 7.41918 1.30064 8.84585 3.13646 9.55667C3.18646 9.57585 3.23646 9.58499 3.28728 9.58499C3.45396 9.58499 3.61228 9.48417 3.6756 9.31831C3.75978 9.10413 3.6531 8.86331 3.4381 8.77999C1.9306 8.19582 0.993924 7.06668 0.993924 5.83332C0.994002 3.995 3.05064 2.50001 5.57731 2.50001C8.10399 2.50001 10.1606 3.995 10.1606 5.83332C10.1606 6.06332 10.3473 6.25 10.5773 6.25C10.8073 6.25 10.994 6.06332 10.994 5.83332C10.994 3.53582 8.56399 1.66669 5.57731 1.66669Z" fill="#FBFBFB"/>
<path d="M3.13646 9.55667L2.77538 10.4892L2.77831 10.4903L3.13646 9.55667ZM3.6756 9.31831L2.74486 8.9525L2.74137 8.96165L3.6756 9.31831ZM3.4381 8.77999L3.79945 7.84756L3.79943 7.84756L3.4381 8.77999ZM0.993924 5.83332L-0.00607616 5.83328V5.83332H0.993924ZM10.994 5.83332H9.99398H10.994ZM5.57731 0.666687C3.88178 0.666687 2.30891 1.19612 1.13927 2.09584C-0.0310662 2.99609 -0.839355 4.30911 -0.839355 5.83336H1.16064C1.16064 5.06011 1.56735 4.2898 2.35868 3.68109C3.15071 3.07185 4.28618 2.66669 5.57731 2.66669V0.666687ZM-0.839355 5.83336C-0.839355 7.94453 0.671192 9.67448 2.77539 10.4892L3.49753 8.62414C1.93009 8.01723 1.16064 6.89382 1.16064 5.83336H-0.839355ZM2.77831 10.4903C2.941 10.5527 3.11229 10.585 3.28728 10.585V8.58499C3.36063 8.58499 3.43192 8.59896 3.49461 8.62301L2.77831 10.4903ZM3.28728 10.585C3.85042 10.585 4.39222 10.245 4.60983 9.67498L2.74137 8.96165C2.83234 8.72335 3.0575 8.58499 3.28728 8.58499V10.585ZM4.60629 9.68411C4.89502 8.94949 4.52644 8.1293 3.79945 7.84756L3.07675 9.71242C2.77975 9.59733 2.62453 9.25877 2.7449 8.95252L4.60629 9.68411ZM3.79943 7.84756C2.52929 7.35536 1.99392 6.51545 1.99392 5.83332H-0.00607616C-0.00607616 7.61791 1.33192 9.03627 3.07676 9.71243L3.79943 7.84756ZM1.99392 5.83336C1.99395 5.314 2.28285 4.75393 2.92625 4.28608C3.56821 3.81928 4.50307 3.50001 5.57731 3.50001V1.50001C4.12488 1.50001 2.76809 1.92823 1.75004 2.66851C0.733437 3.40773 -0.0060201 4.51432 -0.00607616 5.83328L1.99392 5.83336ZM5.57731 3.50001C6.65156 3.50001 7.58642 3.81928 8.22836 4.28607C8.87175 4.75392 9.16062 5.31398 9.16062 5.83332H11.1606C11.1606 4.51434 10.4212 3.40774 9.40458 2.66851C8.38654 1.92823 7.02974 1.50001 5.57731 1.50001V3.50001ZM9.16062 5.83332C9.16062 6.6156 9.79502 7.25 10.5773 7.25V5.25C10.8996 5.25 11.1606 5.51104 11.1606 5.83332H9.16062ZM10.5773 7.25C11.3596 7.25 11.994 6.6156 11.994 5.83332H9.99398C9.99398 5.51104 10.255 5.25 10.5773 5.25V7.25ZM11.994 5.83332C11.994 4.30907 11.1857 2.99605 10.0154 2.09581C8.84571 1.1961 7.27285 0.666687 5.57731 0.666687V2.66669C6.86845 2.66669 8.00393 3.07184 8.79595 3.68107C9.58728 4.28977 9.99398 5.06007 9.99398 5.83332H11.994Z" fill="#FBFBFB" mask="url(#path-3-inside-2)"/>
<path d="M7.94478 10.8634C7.94463 10.8638 7.94447 10.8642 7.94431 10.8645C7.92787 10.9034 7.88146 10.9264 7.83704 10.9105C7.83686 10.9104 7.83668 10.9104 7.8365 10.9103M7.8365 10.9103C7.8365 10.9103 7.8365 10.9103 7.8365 10.9103Z" fill="#FBFBFB" stroke="#FBFBFB"/>
<path d="M3.28228 9.16811L3.28605 9.1696L3.28228 9.16811Z" fill="#FBFBFB" stroke="#FBFBFB"/>
</svg>
