<svg width="21" height="20" viewBox="0 0 21 20" fill="none" xmlns="http://www.w3.org/2000/svg">
<mask id="path-1-inside-1" fill="white">
<path d="M17.1608 1.66667C17.1608 0.733398 16.4274 0 15.4941 0H3.16081C2.22754 0 1.49414 0.733398 1.49414 1.66667V4.33333H4.16081V18.3333C4.16081 19.2666 4.89421 20 5.82747 20H17.1608C18.0941 20 18.8275 19.2666 18.8275 18.3333V16.6667H17.1608V1.66667ZM4.16081 3.66667H2.16081V1.66667C2.16081 1.09993 2.59408 0.666667 3.16081 0.666667C3.72754 0.666667 4.16081 1.09993 4.16081 1.66667V3.66667ZM4.82747 18.3333V1.66667C4.82747 1.29997 4.69417 0.966634 4.49414 0.666667H15.4941C16.0609 0.666667 16.4941 1.09993 16.4941 1.66667V16.6667H6.82747V18.3333C6.82747 18.9001 6.39421 19.3333 5.82747 19.3333C5.26074 19.3333 4.82747 18.9001 4.82747 18.3333ZM18.1608 17.3333V18.3333C18.1608 18.9001 17.7275 19.3333 17.1608 19.3333H7.16081C7.3942 19.0334 7.49414 18.7 7.49414 18.3333V17.3333H18.1608Z"/>
</mask>
<path d="M17.1608 1.66667C17.1608 0.733398 16.4274 0 15.4941 0H3.16081C2.22754 0 1.49414 0.733398 1.49414 1.66667V4.33333H4.16081V18.3333C4.16081 19.2666 4.89421 20 5.82747 20H17.1608C18.0941 20 18.8275 19.2666 18.8275 18.3333V16.6667H17.1608V1.66667ZM4.16081 3.66667H2.16081V1.66667C2.16081 1.09993 2.59408 0.666667 3.16081 0.666667C3.72754 0.666667 4.16081 1.09993 4.16081 1.66667V3.66667ZM4.82747 18.3333V1.66667C4.82747 1.29997 4.69417 0.966634 4.49414 0.666667H15.4941C16.0609 0.666667 16.4941 1.09993 16.4941 1.66667V16.6667H6.82747V18.3333C6.82747 18.9001 6.39421 19.3333 5.82747 19.3333C5.26074 19.3333 4.82747 18.9001 4.82747 18.3333ZM18.1608 17.3333V18.3333C18.1608 18.9001 17.7275 19.3333 17.1608 19.3333H7.16081C7.3942 19.0334 7.49414 18.7 7.49414 18.3333V17.3333H18.1608Z" fill="#FBFBFB"/>
<path d="M1.49414 4.33333H0.494141V5.33333H1.49414V4.33333ZM4.16081 4.33333H5.16081V3.33333H4.16081V4.33333ZM18.8275 16.6667H19.8275V15.6667H18.8275V16.6667ZM17.1608 16.6667H16.1608V17.6667H17.1608V16.6667ZM4.16081 3.66667V4.66667H5.16081V3.66667H4.16081ZM2.16081 3.66667H1.16081V4.66667H2.16081V3.66667ZM4.49414 0.666667V-0.333333H2.62534L3.66216 1.22147L4.49414 0.666667ZM16.4941 16.6667V17.6667H17.4941V16.6667H16.4941ZM6.82747 16.6667V15.6667H5.82747V16.6667H6.82747ZM18.1608 17.3333H19.1608V16.3333H18.1608V17.3333ZM7.16081 19.3333L6.37157 18.7192L5.11568 20.3333H7.16081V19.3333ZM7.49414 17.3333V16.3333H6.49414V17.3333H7.49414ZM18.1608 1.66667C18.1608 0.181114 16.9797 -1 15.4941 -1V1C15.8751 1 16.1608 1.28568 16.1608 1.66667H18.1608ZM15.4941 -1H3.16081V1H15.4941V-1ZM3.16081 -1C1.67525 -1 0.494141 0.181114 0.494141 1.66667H2.49414C2.49414 1.28568 2.77982 1 3.16081 1V-1ZM0.494141 1.66667V4.33333H2.49414V1.66667H0.494141ZM1.49414 5.33333H4.16081V3.33333H1.49414V5.33333ZM3.16081 4.33333V18.3333H5.16081V4.33333H3.16081ZM3.16081 18.3333C3.16081 19.8189 4.34192 21 5.82747 21V19C5.44649 19 5.16081 18.7143 5.16081 18.3333H3.16081ZM5.82747 21H17.1608V19H5.82747V21ZM17.1608 21C18.6464 21 19.8275 19.8189 19.8275 18.3333H17.8275C17.8275 18.7143 17.5418 19 17.1608 19V21ZM19.8275 18.3333V16.6667H17.8275V18.3333H19.8275ZM18.8275 15.6667H17.1608V17.6667H18.8275V15.6667ZM18.1608 16.6667V1.66667H16.1608V16.6667H18.1608ZM4.16081 2.66667H2.16081V4.66667H4.16081V2.66667ZM3.16081 3.66667V1.66667H1.16081V3.66667H3.16081ZM3.16081 1.66667C3.16081 1.65967 3.16146 1.65535 3.16186 1.65334C3.16225 1.65132 3.16253 1.65087 3.16222 1.65163C3.16146 1.65348 3.15935 1.65729 3.15539 1.66125C3.15143 1.66521 3.14762 1.66732 3.14577 1.66808C3.14501 1.66839 3.14546 1.66811 3.14748 1.66771C3.14949 1.66732 3.15381 1.66667 3.16081 1.66667V-0.333333C2.04179 -0.333333 1.16081 0.54765 1.16081 1.66667H3.16081ZM3.16081 1.66667C3.16781 1.66667 3.17212 1.66732 3.17413 1.66771C3.17616 1.66811 3.1766 1.66839 3.17584 1.66808C3.17399 1.66732 3.17019 1.66521 3.16622 1.66125C3.16226 1.65729 3.16015 1.65348 3.15939 1.65163C3.15908 1.65087 3.15936 1.65132 3.15976 1.65334C3.16015 1.65535 3.16081 1.65967 3.16081 1.66667H5.16081C5.16081 0.54765 4.27982 -0.333333 3.16081 -0.333333V1.66667ZM3.16081 1.66667V3.66667H5.16081V1.66667H3.16081ZM5.82747 18.3333V1.66667H3.82747V18.3333H5.82747ZM5.82747 1.66667C5.82747 1.04736 5.60049 0.5233 5.32612 0.111862L3.66216 1.22147C3.78786 1.40997 3.82747 1.55258 3.82747 1.66667H5.82747ZM4.49414 1.66667H15.4941V-0.333333H4.49414V1.66667ZM15.4941 1.66667C15.5011 1.66667 15.5055 1.66732 15.5075 1.66771C15.5095 1.66811 15.5099 1.66839 15.5092 1.66808C15.5073 1.66732 15.5035 1.66521 15.4996 1.66125C15.4956 1.65729 15.4935 1.65348 15.4927 1.65163C15.4924 1.65087 15.4927 1.65132 15.4931 1.65334C15.4935 1.65535 15.4941 1.65967 15.4941 1.66667H17.4941C17.4941 0.54765 16.6132 -0.333333 15.4941 -0.333333V1.66667ZM15.4941 1.66667V16.6667H17.4941V1.66667H15.4941ZM16.4941 15.6667H6.82747V17.6667H16.4941V15.6667ZM5.82747 16.6667V18.3333H7.82747V16.6667H5.82747ZM5.82747 18.3333C5.82747 18.3403 5.82682 18.3447 5.82643 18.3467C5.82603 18.3487 5.82575 18.3491 5.82606 18.3484C5.82682 18.3465 5.82893 18.3427 5.83289 18.3388C5.83685 18.3348 5.84066 18.3327 5.84251 18.3319C5.84327 18.3316 5.84282 18.3319 5.8408 18.3323C5.83879 18.3327 5.83447 18.3333 5.82747 18.3333V20.3333C6.94649 20.3333 7.82747 19.4524 7.82747 18.3333H5.82747ZM5.82747 18.3333C5.82047 18.3333 5.81616 18.3327 5.81415 18.3323C5.81212 18.3319 5.81168 18.3316 5.81244 18.3319C5.81429 18.3327 5.81809 18.3348 5.82206 18.3388C5.82602 18.3427 5.82813 18.3465 5.82889 18.3484C5.8292 18.3491 5.82892 18.3487 5.82852 18.3467C5.82813 18.3447 5.82747 18.3403 5.82747 18.3333H3.82747C3.82747 19.4524 4.70846 20.3333 5.82747 20.3333V18.3333ZM17.1608 17.3333V18.3333H19.1608V17.3333H17.1608ZM17.1608 18.3333C17.1608 18.3403 17.1601 18.3447 17.1598 18.3467C17.1594 18.3487 17.1591 18.3491 17.1594 18.3484C17.1602 18.3465 17.1623 18.3427 17.1662 18.3388C17.1702 18.3348 17.174 18.3327 17.1758 18.3319C17.1766 18.3316 17.1762 18.3319 17.1741 18.3323C17.1721 18.3327 17.1678 18.3333 17.1608 18.3333V20.3333C18.2798 20.3333 19.1608 19.4524 19.1608 18.3333H17.1608ZM17.1608 18.3333H7.16081V20.3333H17.1608V18.3333ZM7.95004 19.9474C8.33392 19.4541 8.49414 18.8988 8.49414 18.3333H6.49414C6.49414 18.5013 6.45449 18.6127 6.37157 18.7192L7.95004 19.9474ZM8.49414 18.3333V17.3333H6.49414V18.3333H8.49414ZM7.49414 18.3333H18.1608V16.3333H7.49414V18.3333Z" fill="#FBFBFB" mask="url(#path-1-inside-1)"/>
<mask id="path-3-inside-2" fill="white">
<path d="M13.1606 10.6667H15.8273V11.3334H13.1606V10.6667Z"/>
</mask>
<path d="M13.1606 10.6667H15.8273V11.3334H13.1606V10.6667Z" fill="#FBFBFB"/>
<path d="M13.1606 10.6667V9.66669H12.1606V10.6667H13.1606ZM15.8273 10.6667H16.8273V9.66669H15.8273V10.6667ZM15.8273 11.3334V12.3334H16.8273V11.3334H15.8273ZM13.1606 11.3334H12.1606V12.3334H13.1606V11.3334ZM13.1606 11.6667H15.8273V9.66669H13.1606V11.6667ZM14.8273 10.6667V11.3334H16.8273V10.6667H14.8273ZM15.8273 10.3334H13.1606V12.3334H15.8273V10.3334ZM14.1606 11.3334V10.6667H12.1606V11.3334H14.1606Z" fill="#FBFBFB" mask="url(#path-3-inside-2)"/>
<mask id="path-5-inside-3" fill="white">
<path d="M5.49414 10.6667H12.4941V11.3334H5.49414V10.6667Z"/>
</mask>
<path d="M5.49414 10.6667H12.4941V11.3334H5.49414V10.6667Z" fill="#FBFBFB"/>
<path d="M5.49414 10.6667V9.66669H4.49414V10.6667H5.49414ZM12.4941 10.6667H13.4941V9.66669H12.4941V10.6667ZM12.4941 11.3334V12.3334H13.4941V11.3334H12.4941ZM5.49414 11.3334H4.49414V12.3334H5.49414V11.3334ZM5.49414 11.6667H12.4941V9.66669H5.49414V11.6667ZM11.4941 10.6667V11.3334H13.4941V10.6667H11.4941ZM12.4941 10.3334H5.49414V12.3334H12.4941V10.3334ZM6.49414 11.3334V10.6667H4.49414V11.3334H6.49414Z" fill="#FBFBFB" mask="url(#path-5-inside-3)"/>
<mask id="path-7-inside-4" fill="white">
<path d="M9.16064 12H15.8273V12.6667H9.16064V12Z"/>
</mask>
<path d="M9.16064 12H15.8273V12.6667H9.16064V12Z" fill="#FBFBFB"/>
<path d="M9.16064 12V11H8.16064V12H9.16064ZM15.8273 12H16.8273V11H15.8273V12ZM15.8273 12.6667V13.6667H16.8273V12.6667H15.8273ZM9.16064 12.6667H8.16064V13.6667H9.16064V12.6667ZM9.16064 13H15.8273V11H9.16064V13ZM14.8273 12V12.6667H16.8273V12H14.8273ZM15.8273 11.6667H9.16064V13.6667H15.8273V11.6667ZM10.1606 12.6667V12H8.16064V12.6667H10.1606Z" fill="#FBFBFB" mask="url(#path-7-inside-4)"/>
<mask id="path-9-inside-5" fill="white">
<path d="M5.49414 12H8.49414V12.6667H5.49414V12Z"/>
</mask>
<path d="M5.49414 12H8.49414V12.6667H5.49414V12Z" fill="#FBFBFB"/>
<path d="M5.49414 12V11H4.49414V12H5.49414ZM8.49414 12H9.49414V11H8.49414V12ZM8.49414 12.6667V13.6667H9.49414V12.6667H8.49414ZM5.49414 12.6667H4.49414V13.6667H5.49414V12.6667ZM5.49414 13H8.49414V11H5.49414V13ZM7.49414 12V12.6667H9.49414V12H7.49414ZM8.49414 11.6667H5.49414V13.6667H8.49414V11.6667ZM6.49414 12.6667V12H4.49414V12.6667H6.49414Z" fill="#FBFBFB" mask="url(#path-9-inside-5)"/>
<mask id="path-11-inside-6" fill="white">
<path d="M11.4941 14.6667H15.8275V15.3334H11.4941V14.6667Z"/>
</mask>
<path d="M11.4941 14.6667H15.8275V15.3334H11.4941V14.6667Z" fill="#FBFBFB"/>
<path d="M11.4941 14.6667V13.6667H10.4941V14.6667H11.4941ZM15.8275 14.6667H16.8275V13.6667H15.8275V14.6667ZM15.8275 15.3334V16.3334H16.8275V15.3334H15.8275ZM11.4941 15.3334H10.4941V16.3334H11.4941V15.3334ZM11.4941 15.6667H15.8275V13.6667H11.4941V15.6667ZM14.8275 14.6667V15.3334H16.8275V14.6667H14.8275ZM15.8275 14.3334H11.4941V16.3334H15.8275V14.3334ZM12.4941 15.3334V14.6667H10.4941V15.3334H12.4941Z" fill="#FBFBFB" mask="url(#path-11-inside-6)"/>
<mask id="path-13-inside-7" fill="white">
<path d="M5.49414 14.6667H10.8275V15.3334H5.49414V14.6667Z"/>
</mask>
<path d="M5.49414 14.6667H10.8275V15.3334H5.49414V14.6667Z" fill="#FBFBFB"/>
<path d="M5.49414 14.6667V13.6667H4.49414V14.6667H5.49414ZM10.8275 14.6667H11.8275V13.6667H10.8275V14.6667ZM10.8275 15.3334V16.3334H11.8275V15.3334H10.8275ZM5.49414 15.3334H4.49414V16.3334H5.49414V15.3334ZM5.49414 15.6667H10.8275V13.6667H5.49414V15.6667ZM9.82747 14.6667V15.3334H11.8275V14.6667H9.82747ZM10.8275 14.3334H5.49414V16.3334H10.8275V14.3334ZM6.49414 15.3334V14.6667H4.49414V15.3334H6.49414Z" fill="#FBFBFB" mask="url(#path-13-inside-7)"/>
<mask id="path-15-inside-8" fill="white">
<path d="M10.0939 6.79995L10.494 7.06671L10.894 6.79995C12.0939 5.99998 12.8273 4.63328 12.8273 3.20001V2.09991L10.494 1.33331L8.16064 2.09991V3.20001C8.16064 4.63328 8.89404 5.99998 10.0939 6.79995ZM8.82731 2.56671L10.494 1.99998L12.1606 2.56671V3.20001C12.1606 4.43325 11.5607 5.56671 10.5273 6.26658H10.494L10.4606 6.23338C9.42725 5.56671 8.82731 4.40004 8.82731 3.16665V2.56671Z"/>
</mask>
<path d="M10.0939 6.79995L10.494 7.06671L10.894 6.79995C12.0939 5.99998 12.8273 4.63328 12.8273 3.20001V2.09991L10.494 1.33331L8.16064 2.09991V3.20001C8.16064 4.63328 8.89404 5.99998 10.0939 6.79995ZM8.82731 2.56671L10.494 1.99998L12.1606 2.56671V3.20001C12.1606 4.43325 11.5607 5.56671 10.5273 6.26658H10.494L10.4606 6.23338C9.42725 5.56671 8.82731 4.40004 8.82731 3.16665V2.56671Z" fill="#FBFBFB"/>
<path d="M10.0939 6.79995L10.6487 5.96795L10.6486 5.96791L10.0939 6.79995ZM10.494 7.06671L9.9392 7.89871L10.494 8.26864L11.0488 7.89871L10.494 7.06671ZM10.894 6.79995L10.3393 5.96791L10.3393 5.96795L10.894 6.79995ZM12.8273 2.09991H13.8273V1.37587L13.1394 1.14987L12.8273 2.09991ZM10.494 1.33331L10.8061 0.383273L10.494 0.280725L10.1818 0.383273L10.494 1.33331ZM8.16064 2.09991L7.84852 1.14987L7.16064 1.37587V2.09991H8.16064ZM8.82731 2.56671L8.50538 1.61995L7.82731 1.85052V2.56671H8.82731ZM10.494 1.99998L10.8159 1.05322L10.494 0.943747L10.172 1.05322L10.494 1.99998ZM12.1606 2.56671H13.1606V1.85052L12.4826 1.61995L12.1606 2.56671ZM10.5273 6.26658V7.26658H10.8341L11.0881 7.09456L10.5273 6.26658ZM10.494 6.26658L9.7886 6.97541L10.0812 7.26658H10.494V6.26658ZM10.4606 6.23338L11.166 5.52454L11.0913 5.45021L11.0027 5.39307L10.4606 6.23338ZM9.53913 7.63195L9.9392 7.89871L11.0488 6.23471L10.6487 5.96795L9.53913 7.63195ZM11.0488 7.89871L11.4488 7.63195L10.3393 5.96795L9.9392 6.23471L11.0488 7.89871ZM11.4488 7.63198C12.9251 6.64769 13.8273 4.96968 13.8273 3.20001H11.8273C11.8273 4.29688 11.2627 5.35227 10.3393 5.96791L11.4488 7.63198ZM13.8273 3.20001V2.09991H11.8273V3.20001H13.8273ZM13.1394 1.14987L10.8061 0.383273L10.1818 2.28335L12.5152 3.04995L13.1394 1.14987ZM10.1818 0.383273L7.84852 1.14987L8.47277 3.04995L10.8061 2.28335L10.1818 0.383273ZM7.16064 2.09991V3.20001H9.16064V2.09991H7.16064ZM7.16064 3.20001C7.16064 4.96968 8.06285 6.64769 9.53919 7.63198L10.6486 5.96791C9.72524 5.35227 9.16064 4.29688 9.16064 3.20001H7.16064ZM9.14925 3.51347L10.8159 2.94674L10.172 1.05322L8.50538 1.61995L9.14925 3.51347ZM10.172 2.94674L11.8387 3.51347L12.4826 1.61995L10.8159 1.05322L10.172 2.94674ZM11.1606 2.56671V3.20001H13.1606V2.56671H11.1606ZM11.1606 3.20001C11.1606 4.10004 10.7264 4.92397 9.96658 5.43861L11.0881 7.09456C12.395 6.20945 13.1606 4.76645 13.1606 3.20001H11.1606ZM10.5273 5.26658H10.494V7.26658H10.5273V5.26658ZM11.1994 5.55775L11.166 5.52454L9.75524 6.94221L9.7886 6.97541L11.1994 5.55775ZM11.0027 5.39307C10.2718 4.92153 9.82731 4.0811 9.82731 3.16665H7.82731C7.82731 4.71899 8.58268 6.21189 9.9185 7.07368L11.0027 5.39307ZM9.82731 3.16665V2.56671H7.82731V3.16665H9.82731Z" fill="#FBFBFB" mask="url(#path-15-inside-8)"/>
<mask id="path-17-inside-9" fill="white">
<path d="M11.4941 3.36672L10.8275 3.29999C10.7607 3.86672 10.4608 4.40009 9.99414 4.73342L10.3608 5.29999C10.9941 4.83335 11.4274 4.13332 11.4941 3.36672Z"/>
</mask>
<path d="M11.4941 3.36672L10.8275 3.29999C10.7607 3.86672 10.4608 4.40009 9.99414 4.73342L10.3608 5.29999C10.9941 4.83335 11.4274 4.13332 11.4941 3.36672Z" fill="#FBFBFB"/>
<path d="M11.4941 3.36672L12.4904 3.45344L12.576 2.47001L11.5937 2.37169L11.4941 3.36672ZM10.8275 3.29999L10.9271 2.30496L9.94925 2.20708L9.83433 3.18305L10.8275 3.29999ZM9.99414 4.73342L9.41287 3.91971L8.63565 4.47491L9.15463 5.27677L9.99414 4.73342ZM10.3608 5.29999L9.52133 5.84334L10.0986 6.73532L10.954 6.10505L10.3608 5.29999ZM11.5937 2.37169L10.9271 2.30496L10.7279 4.29502L11.3945 4.36175L11.5937 2.37169ZM9.83433 3.18305C9.79864 3.48615 9.63714 3.75951 9.41287 3.91971L10.5754 5.54713C11.2844 5.04066 11.7228 4.24729 11.8206 3.41693L9.83433 3.18305ZM9.15463 5.27677L9.52133 5.84334L11.2003 4.75664L10.8336 4.19007L9.15463 5.27677ZM10.954 6.10505C11.7879 5.49061 12.3956 4.5422 12.4904 3.45344L10.4979 3.28C10.4592 3.72445 10.2004 4.1761 9.76765 4.49493L10.954 6.10505Z" fill="#FBFBFB" mask="url(#path-17-inside-9)"/>
<mask id="path-19-inside-10" fill="white">
<path d="M7.49414 13.3333H15.8275V14H7.49414V13.3333Z"/>
</mask>
<path d="M7.49414 13.3333H15.8275V14H7.49414V13.3333Z" fill="#FBFBFB"/>
<path d="M7.49414 13.3333V12.3333H6.49414V13.3333H7.49414ZM15.8275 13.3333H16.8275V12.3333H15.8275V13.3333ZM15.8275 14V15H16.8275V14H15.8275ZM7.49414 14H6.49414V15H7.49414V14ZM7.49414 14.3333H15.8275V12.3333H7.49414V14.3333ZM14.8275 13.3333V14H16.8275V13.3333H14.8275ZM15.8275 13H7.49414V15H15.8275V13ZM8.49414 14V13.3333H6.49414V14H8.49414Z" fill="#FBFBFB" mask="url(#path-19-inside-10)"/>
<mask id="path-21-inside-11" fill="white">
<path d="M5.49414 13.3333H6.82747V14H5.49414V13.3333Z"/>
</mask>
<path d="M5.49414 13.3333H6.82747V14H5.49414V13.3333Z" fill="#FBFBFB"/>
<path d="M5.49414 13.3333V12.3333H4.49414V13.3333H5.49414ZM6.82747 13.3333H7.82747V12.3333H6.82747V13.3333ZM6.82747 14V15H7.82747V14H6.82747ZM5.49414 14H4.49414V15H5.49414V14ZM5.49414 14.3333H6.82747V12.3333H5.49414V14.3333ZM5.82747 13.3333V14H7.82747V13.3333H5.82747ZM6.82747 13H5.49414V15H6.82747V13ZM6.49414 14V13.3333H4.49414V14H6.49414Z" fill="#FBFBFB" mask="url(#path-21-inside-11)"/>
<mask id="path-23-inside-12" fill="white">
<path d="M9.16064 9.33331H15.8273V9.99998H9.16064V9.33331Z"/>
</mask>
<path d="M9.16064 9.33331H15.8273V9.99998H9.16064V9.33331Z" fill="#FBFBFB"/>
<path d="M9.16064 9.33331V8.33331H8.16064V9.33331H9.16064ZM15.8273 9.33331H16.8273V8.33331H15.8273V9.33331ZM15.8273 9.99998V11H16.8273V9.99998H15.8273ZM9.16064 9.99998H8.16064V11H9.16064V9.99998ZM9.16064 10.3333H15.8273V8.33331H9.16064V10.3333ZM14.8273 9.33331V9.99998H16.8273V9.33331H14.8273ZM15.8273 8.99998H9.16064V11H15.8273V8.99998ZM10.1606 9.99998V9.33331H8.16064V9.99998H10.1606Z" fill="#FBFBFB" mask="url(#path-23-inside-12)"/>
<mask id="path-25-inside-13" fill="white">
<path d="M5.49414 9.33331H8.49414V9.99998H5.49414V9.33331Z"/>
</mask>
<path d="M5.49414 9.33331H8.49414V9.99998H5.49414V9.33331Z" fill="#FBFBFB"/>
<path d="M5.49414 9.33331V8.33331H4.49414V9.33331H5.49414ZM8.49414 9.33331H9.49414V8.33331H8.49414V9.33331ZM8.49414 9.99998V11H9.49414V9.99998H8.49414ZM5.49414 9.99998H4.49414V11H5.49414V9.99998ZM5.49414 10.3333H8.49414V8.33331H5.49414V10.3333ZM7.49414 9.33331V9.99998H9.49414V9.33331H7.49414ZM8.49414 8.99998H5.49414V11H8.49414V8.99998ZM6.49414 9.99998V9.33331H4.49414V9.99998H6.49414Z" fill="#FBFBFB" mask="url(#path-25-inside-13)"/>
<mask id="path-27-inside-14" fill="white">
<path d="M8.16064 7.66669H12.8273V8.33335H8.16064V7.66669Z"/>
</mask>
<path d="M8.16064 7.66669H12.8273V8.33335H8.16064V7.66669Z" fill="#FBFBFB"/>
<path d="M8.16064 7.66669V6.66669H7.16064V7.66669H8.16064ZM12.8273 7.66669H13.8273V6.66669H12.8273V7.66669ZM12.8273 8.33335V9.33335H13.8273V8.33335H12.8273ZM8.16064 8.33335H7.16064V9.33335H8.16064V8.33335ZM8.16064 8.66669H12.8273V6.66669H8.16064V8.66669ZM11.8273 7.66669V8.33335H13.8273V7.66669H11.8273ZM12.8273 7.33335H8.16064V9.33335H12.8273V7.33335ZM9.16064 8.33335V7.66669H7.16064V8.33335H9.16064Z" fill="#FBFBFB" mask="url(#path-27-inside-14)"/>
</svg>
