<svg width="30" height="30" viewBox="0 0 30 30" fill="none" xmlns="http://www.w3.org/2000/svg">
<path d="M15 30C23.2843 30 30 23.2843 30 15C30 6.71573 23.2843 0 15 0C6.71573 0 0 6.71573 0 15C0 23.2843 6.71573 30 15 30Z" fill="url(#paint0_linear)"/>
<path fill-rule="evenodd" clip-rule="evenodd" d="M16.4856 23.0898C18.4634 23.2395 20.3664 22.8476 21.5758 22.0413C21.675 21.9682 21.7706 21.8869 21.8626 21.7996C21.9363 21.7194 22.0111 21.6393 22.0799 21.5562C22.3887 21.1809 22.6119 20.7932 22.7432 20.4221C22.7538 20.3924 22.7628 20.3627 22.7717 20.333C22.8026 20.2329 22.8276 20.131 22.8465 20.0278L22.8536 19.9798C22.8655 19.9055 22.8714 19.8331 22.875 19.7618C22.8762 19.7143 22.8779 19.6663 22.875 19.6199C22.8717 19.5279 22.8591 19.4364 22.8376 19.3468C22.5722 19.6205 22.2883 19.8753 21.9903 20.1128C19.4449 22.1766 16.6572 22.3304 15.1295 22.2146C14.6171 22.1793 14.1089 22.0988 13.6106 21.9742C12.4338 21.6334 11.4138 21.1209 10.5671 20.466C11.0754 20.9884 11.6497 21.4422 12.2753 21.8162C13.4628 22.5305 14.9181 22.9711 16.4856 23.0898ZM8.43074 9.13782C7.11617 10.339 6.27898 11.8453 6.06701 13.3416C6.05216 13.4526 6.03851 13.5631 6.03019 13.6753V13.68L6.0296 13.6842V13.6895C6.01713 13.8487 6.00882 14.0143 6.00526 14.1823C5.83782 19.2726 9.69068 23.5601 14.7756 23.9454L14.8421 23.9484L14.9074 23.9514L14.9573 23.9567C14.9881 23.9603 15.019 23.9638 15.0517 23.9662C16.884 24.1046 18.5839 23.8142 19.9543 23.1658C18.904 23.4556 17.6933 23.5696 16.4565 23.4758C14.829 23.3529 13.3138 22.8933 12.0752 22.1475C9.65268 20.6893 8.8143 18.7246 8.45627 17.8862L8.41886 17.7989C7.84886 16.5793 7.60305 15.1668 7.72061 13.6159L7.73545 13.4229H7.74852C8.02164 10.681 9.73996 8.34456 12.0794 7.15468C10.728 7.56853 9.45674 8.24244 8.43074 9.13782ZM16.919 12.2176C16.8775 12.7645 16.5491 14.0191 14.4015 13.8564C14.3278 13.8507 14.2541 13.8435 14.1806 13.835C14.3914 14.3557 15 15.2707 16.6845 15.3984C18.7448 15.5545 20.2429 14.1515 20.3497 12.7425C20.3647 12.5468 20.3525 12.35 20.3135 12.1576C20.3005 12.125 20.2856 12.0953 20.272 12.0644C20.2541 12.0241 20.2369 11.9825 20.2179 11.9445C20.2019 11.9124 20.1835 11.8839 20.1663 11.8531C20.1467 11.8186 20.1283 11.7824 20.1075 11.7497C20.0885 11.72 20.0683 11.6933 20.0481 11.6648C20.0273 11.6351 20.0071 11.6031 19.9852 11.5746C19.9638 11.5473 19.9412 11.5229 19.9193 11.4974C19.8973 11.4707 19.8753 11.4434 19.8522 11.4184C19.829 11.3935 19.8047 11.3715 19.7809 11.3484C19.7578 11.3258 19.7352 11.302 19.7115 11.2807C19.6865 11.2587 19.6604 11.2391 19.6355 11.2183C19.6117 11.1987 19.588 11.178 19.563 11.159C19.5369 11.14 19.5096 11.1233 19.4835 11.1049C19.4591 11.0877 19.4348 11.0693 19.4098 11.0539C19.3819 11.0366 19.354 11.0218 19.3267 11.0064C19.3018 10.9921 19.2774 10.9767 19.2525 10.9636C19.2252 10.9488 19.1973 10.9363 19.17 10.9232C19.1444 10.9114 19.1195 10.8977 19.094 10.8864C19.0666 10.8745 19.0393 10.8639 19.0126 10.8532C18.9865 10.8431 18.9604 10.8312 18.9348 10.8217C18.9063 10.811 18.8778 10.8027 18.8493 10.7932C18.8256 10.7849 18.8012 10.776 18.7781 10.7689C18.7502 10.7605 18.724 10.754 18.6973 10.7469C18.6724 10.7398 18.6475 10.732 18.6231 10.7261C18.6 10.7202 18.578 10.716 18.5554 10.7113C18.5281 10.7053 18.5008 10.6982 18.4741 10.6934C18.4503 10.6887 18.4284 10.6851 18.4058 10.6816L18.3316 10.6679C18.2927 10.6622 18.2537 10.657 18.2146 10.6525C18.2087 10.6525 18.2027 10.6513 18.1974 10.6507C18.0376 10.632 17.8766 10.6255 17.7159 10.6311C17.6868 10.6311 17.6589 10.6323 17.6304 10.6335C17.5116 10.6376 17.3917 10.6465 17.2717 10.6614L17.2379 10.6667C17.1264 10.682 17.0155 10.7015 16.9054 10.7249L16.8217 10.7427C16.7037 10.7696 16.5868 10.8011 16.4713 10.8371L16.4197 10.855C16.3164 10.8882 16.2148 10.9262 16.1157 10.9666L16.0427 10.9963C16.0266 11.0034 16.0112 11.0123 15.9952 11.0194C16.5462 11.1673 16.96 11.6803 16.919 12.2176ZM16.3639 17.4682C16.2447 17.4551 16.1258 17.4405 16.007 17.4242L16.0064 17.4278C12.7319 16.9866 11.3538 15.4939 10.7743 14.3195C10.6098 13.985 10.4889 13.6308 10.4145 13.2656C10.4091 13.2389 10.4026 13.2122 10.3978 13.186L10.3872 13.1207C10.3535 12.9296 10.333 12.7363 10.326 12.5424C10.1638 12.9992 10.0633 13.4757 10.0273 13.9591C9.8035 16.9041 12.0123 19.481 14.9507 19.7037C14.9638 19.7048 14.9763 19.7048 14.9887 19.7048C15.0066 19.7048 15.025 19.7048 15.044 19.706H15.0517L15.0754 19.7096C15.0992 19.7132 15.1235 19.7167 15.1485 19.7185C15.2886 19.7292 15.4287 19.7322 15.5682 19.7304C17.7129 19.4567 19.1486 18.4894 20.1099 17.3548C20.3873 17.0226 20.6375 16.6685 20.858 16.2961C20.9928 16.0645 21.1121 15.833 21.219 15.6044C20.6275 16.2931 19.8742 16.824 19.0268 17.1494C18.1793 17.4748 17.2643 17.5846 16.3639 17.4688V17.4682ZM13.7098 13.585C13.7763 12.7211 14.1581 11.878 14.7067 11.3852L14.7055 11.3864C14.7055 11.3864 14.7809 11.3187 14.8005 11.3032C15.6104 10.6145 16.7748 10.2161 17.8821 10.2422C18.0314 10.2455 18.1805 10.2568 18.3286 10.276L18.4016 10.2879C18.4503 10.2956 18.4996 10.3028 18.5471 10.3117L18.6326 10.3307C18.6742 10.3396 18.7163 10.3485 18.7573 10.3592C18.787 10.3669 18.8161 10.3758 18.8452 10.3841C18.8832 10.3948 18.9224 10.4055 18.9598 10.4179C18.9895 10.4274 19.0174 10.4381 19.0465 10.4488C19.0821 10.4613 19.1183 10.4744 19.1533 10.488L19.2376 10.5242C19.2715 10.5391 19.3053 10.5539 19.3386 10.5699C19.3659 10.583 19.392 10.5973 19.4193 10.6115C19.4514 10.6275 19.4835 10.6442 19.5143 10.662L19.5915 10.7089C19.6123 10.722 19.6343 10.7338 19.6545 10.7469C18.9918 9.91088 17.8257 9.19719 16.0248 9.06122C13.8933 8.89972 12.0378 9.73691 10.9322 11.3579C10.8354 11.5289 10.7588 11.7913 10.7274 12.1101C10.7274 12.1185 10.7256 12.1262 10.725 12.1339L10.7208 12.2016C10.7048 12.4379 10.7149 12.7033 10.7565 12.9853C10.8147 13.36 10.9316 13.7632 11.1341 14.1651C11.5877 15.067 12.5585 16.1536 14.6182 16.742C14.056 16.2035 13.5833 15.2559 13.7098 13.5856V13.585ZM15.9221 6.32283C15.7113 6.3068 15.5023 6.29908 15.2933 6.29433L15.2363 6.29374C15.0938 6.29136 14.9513 6.29136 14.8088 6.29374L14.6646 6.29908C14.5553 6.30264 14.4461 6.30739 14.338 6.31393C14.2572 6.31927 14.1777 6.3258 14.0981 6.33293C14.0239 6.33886 13.9497 6.3448 13.8749 6.35311C13.7638 6.36499 13.6546 6.37924 13.5453 6.39408C13.5026 6.40002 13.4598 6.40477 13.4177 6.4113C13.2793 6.43149 13.1434 6.45524 13.008 6.48077L12.9629 6.48908C10.3159 6.99971 8.21521 8.455 6.9511 10.2351C8.58393 6.86612 12.1375 4.72267 16.178 5.02904C16.1887 5.02964 16.1988 5.03142 16.2095 5.0332C16.2273 5.03557 16.2439 5.03795 16.2618 5.03914L16.4577 5.05279C18.0489 5.21311 19.6444 5.86564 20.8627 6.85899L20.9055 6.89402C22.7901 8.45203 23.7704 10.6679 23.5952 12.9741C23.3619 16.0408 21.2368 18.4734 18.3007 19.3694C19.0319 18.9602 19.6876 18.4289 20.2393 17.7983C20.597 17.4019 20.913 16.9698 21.1822 16.5087C22.1862 14.8438 22.3323 13.4212 22.3448 13.2781C22.3779 13.0904 22.4029 12.9014 22.4196 12.7116C22.6434 9.76185 20.3123 7.07037 16.9921 6.4493C16.8383 6.42555 16.5479 6.38577 16.3544 6.36024L16.3556 6.34896L16.162 6.33471C16.1193 6.3317 16.0765 6.32952 16.0337 6.32818C15.9963 6.32699 15.9589 6.3258 15.9221 6.32224V6.32283Z" fill="white"/>
<defs>
<linearGradient id="paint0_linear" x1="0" y1="0" x2="34" y2="33" gradientUnits="userSpaceOnUse">
<stop stop-color="#E5353E"/>
<stop offset="1" stop-color="#B6121B"/>
</linearGradient>
</defs>
</svg>
