<svg width="30" height="30" viewBox="0 0 30 30" fill="none" xmlns="http://www.w3.org/2000/svg">
<path d="M29.5476 18.6287C27.5442 26.6644 19.4053 31.5548 11.3687 29.5509C3.33534 27.5475 -1.55508 19.4082 0.449274 11.373C2.45175 3.33634 10.5906 -1.55455 18.6249 0.448869C26.6611 2.45229 31.551 10.5925 29.5476 18.6287Z" fill="#5FBA46"/>
<path d="M13.5512 17.2026H7V23.7538H13.5512V17.2026Z" fill="#231F20"/>
<path d="M7.00708 7V15.1545H8.74195C13.3015 15.1545 15.6126 17.4656 15.6126 22.0251V23.76H23.7671V7H7.00708ZM20.3036 10.4635C20.3036 12.6869 20.3036 18.0669 20.3036 20.2903C19.6773 20.2903 19.5708 20.2903 18.9696 20.2903C18.3934 15.4301 15.337 12.3737 10.4768 11.7975C10.4768 11.19 10.4768 11.0835 10.4768 10.4572C12.7002 10.4635 18.0802 10.4635 20.3036 10.4635Z" fill="white"/>
</svg>
