<svg width="6" height="10" viewBox="0 0 6 10" fill="none" xmlns="http://www.w3.org/2000/svg">
<path d="M0.841893 9.4412L0.841802 9.44129C0.763514 9.51962 0.636825 9.51949 0.558784 9.44138L0.558612 9.44121C0.480455 9.36305 0.480475 9.2362 0.558598 9.15808L0.558607 9.15807L4.36331 5.35349L4.71688 4.99993L4.36331 4.64637L0.558794 0.841994C0.558771 0.841971 0.558748 0.841949 0.558725 0.841926C0.48051 0.763605 0.480636 0.636782 0.558722 0.558695L0.558794 0.558624C0.636888 0.480498 0.763698 0.480395 0.841998 0.558695L0.842001 0.558698L5.14176 4.85838C5.14179 4.85841 5.14182 4.85844 5.14185 4.85847C5.18103 4.89771 5.20038 4.94795 5.20038 4.99991C5.20038 5.05189 5.18094 5.10227 5.14174 5.14149C5.14173 5.1415 5.14172 5.14151 5.14171 5.14153L0.841893 9.4412Z" fill="#0B0F1A" stroke="#0B0F1A"/>
</svg>
