<svg width="40" height="40" viewBox="0 0 40 40" fill="none" xmlns="http://www.w3.org/2000/svg">
<path fill-rule="evenodd" clip-rule="evenodd" d="M20 37.1875C29.4924 37.1875 37.1875 29.4924 37.1875 20C37.1875 10.5076 29.4924 2.8125 20 2.8125C10.5076 2.8125 2.8125 10.5076 2.8125 20C2.8125 29.4924 10.5076 37.1875 20 37.1875ZM20 40C31.0457 40 40 31.0457 40 20C40 8.95431 31.0457 0 20 0C8.95431 0 0 8.95431 0 20C0 31.0457 8.95431 40 20 40Z" fill="white"/>
<path fill-rule="evenodd" clip-rule="evenodd" d="M15.9375 9.375H18.4375V10.6597H19.375V9.375H21.875V10.6597C21.875 10.6597 24.375 10.3472 25.9375 11.5972C27.0241 12.4665 28.125 14.3552 28.125 14.8438C28.125 15.1215 28.1231 15.8606 28.125 16.0938C28.1307 16.7973 28.1433 17.0759 28.125 17.5347C28.125 18.0035 27.8517 19.3636 26.875 20.191C26.6811 20.3552 26.4964 20.5054 26.3216 20.6424L26.4222 20.7218L26.5078 20.7903C26.6261 20.8856 26.7486 20.9867 26.875 21.0938C27.8517 21.9212 28.125 23.2813 28.125 23.75C28.1433 24.2088 28.1307 24.4527 28.125 25.1563C28.1231 25.3894 28.125 26.25 28.125 26.5625C28.125 27.0313 27.0241 28.8182 25.9375 29.6875C24.375 30.9375 21.875 30.625 21.875 30.625H12.1875L15.1562 27.1875H22.6128C23.5938 27.1875 24.6875 25.6686 24.6875 24.6875C24.6875 24.2674 24.375 22.8125 22.8125 22.1875H21.875V24.375H19.375V22.1875H18.4375V24.375H15.9375V22.1875H11.875V19.0625H15.9375V14.0972H15.1562L12.1875 10.6597H15.9375V9.375ZM21.875 19.0625H22.8125C24.375 18.2813 24.6875 16.978 24.6875 16.5625C24.6875 15.5814 23.5938 14.0972 22.6128 14.0972H21.875V19.0625ZM19.375 14.0972V19.0625H18.4375V14.0972H19.375Z" fill="white"/>
</svg>
