<svg width="145" height="76" viewBox="0 0 145 76" fill="none" xmlns="http://www.w3.org/2000/svg">
<path d="M71.9973 42.1306C60.3093 42.0769 50.9052 32.6459 50.959 20.9848C51.0127 9.24312 60.4705 -0.0535059 72.266 0.000231792C83.8196 0.0539695 93.1699 9.59241 93.0893 21.2804C93.0625 32.8071 83.5509 42.2112 71.9973 42.1306ZM72.0779 2.76772C61.9215 2.79459 53.7265 10.9896 53.7533 21.0923C53.7802 31.195 62.0021 39.3631 72.1316 39.3631C82.1806 39.3362 90.3487 31.0875 90.3218 20.9848C90.3218 10.9896 82.0462 2.74085 72.0779 2.76772Z" fill="white"/>
<path d="M144.893 63.76C144.893 64.0018 144.893 64.1899 144.893 64.4586C144.624 64.4586 144.382 64.4586 144.14 64.4586C96.3405 64.4586 48.5408 64.4586 0.741157 64.4586C0.257517 64.4586 -0.172384 64.4855 0.0694354 63.7332C48.3259 63.76 96.5823 63.76 144.893 63.76Z" fill="white"/>
<path d="M145 46.8595C145 51.2391 145 55.5113 145 59.8372C144.221 59.8372 143.442 59.8372 142.609 59.8372C142.609 57.0697 142.609 54.3022 142.609 51.5347C142.555 51.5078 142.501 51.5078 142.474 51.4809C141.453 53.0662 140.432 54.6515 139.358 56.3442C138.31 54.7052 137.289 53.1199 136.268 51.5347C136.214 51.5347 136.187 51.5615 136.133 51.5615C136.133 54.3022 136.133 57.0697 136.133 59.8372C135.273 59.8372 134.521 59.8372 133.715 59.8372C133.715 55.5381 133.715 51.266 133.715 46.8864C134.387 46.8864 135.085 46.8595 135.757 46.9132C135.945 46.9132 136.133 47.1551 136.241 47.3431C137.262 48.8478 138.256 50.3793 139.331 52.0183C139.546 51.6959 139.707 51.4541 139.895 51.2122C140.755 49.9225 141.615 48.6328 142.447 47.3431C142.662 46.9938 142.904 46.8864 143.28 46.9132C143.818 46.8864 144.382 46.8595 145 46.8595Z" fill="white"/>
<path d="M39.1099 53.3617C39.5666 53.8991 40.0234 54.3828 40.4802 54.9201C40.5877 55.0545 40.7489 55.2426 40.7489 55.4038C40.7757 56.8547 40.7489 58.3056 40.7489 59.8103C37.9008 59.8103 35.1064 59.8103 32.2314 59.8103C32.2314 55.5113 32.2314 51.2122 32.2314 46.8864C35.0527 46.8864 37.847 46.8864 40.7489 46.8864C40.7489 47.9342 40.7757 48.9284 40.7757 49.9225C40.7757 51.0359 40.5877 51.9646 39.701 52.69C39.486 52.8781 39.3248 53.1199 39.1099 53.3617ZM38.2769 57.3921C38.6531 55.6187 36.8798 54.0872 34.6765 54.7858C34.6765 55.6456 34.6765 56.5323 34.6765 57.3921C35.9125 57.3921 37.0947 57.3921 38.2769 57.3921ZM38.2769 49.3314C37.0678 49.3314 35.8587 49.3314 34.6765 49.3314C34.6765 50.245 34.6765 51.1048 34.6765 51.9914C35.4557 51.9914 36.2349 52.0989 36.9335 51.9646C37.6858 51.8034 38.4113 50.245 38.2769 49.3314Z" fill="white"/>
<path d="M87.2856 46.8595C87.9842 46.8595 88.6828 46.8326 89.3545 46.8864C89.5426 46.9132 89.7845 47.1551 89.8919 47.3431C91.101 49.5464 92.2833 51.7765 93.4655 53.9797C93.573 54.1947 93.6804 54.3828 93.9223 54.544C93.9223 52.0183 93.9223 49.4658 93.9223 46.8864C94.7552 46.8864 95.4806 46.8864 96.2867 46.8864C96.2867 51.1854 96.2867 55.4844 96.2867 59.864C95.5881 59.864 94.8627 59.8909 94.1372 59.8372C93.976 59.8372 93.8148 59.5953 93.7073 59.4341C92.4982 57.204 91.2891 54.9739 90.1069 52.7438C89.9994 52.5557 89.8919 52.3676 89.677 52.2064C89.677 54.7321 89.677 57.2577 89.677 59.8372C88.844 59.8372 88.0917 59.8372 87.2856 59.8372C87.2856 55.5381 87.2856 51.2123 87.2856 46.8595Z" fill="white"/>
<path d="M17.158 46.8864C19.9792 46.8864 22.8004 46.8864 25.6485 46.8864C25.6485 51.2122 25.6485 55.4844 25.6485 59.8103C22.8273 59.8103 20.0061 59.8103 17.158 59.8103C17.158 55.5381 17.158 51.266 17.158 46.8864ZM19.603 49.3314C19.603 52.0452 19.603 54.7052 19.603 57.3921C20.839 57.3921 22.0212 57.3921 23.2303 57.3921C23.2303 54.7052 23.2303 52.0183 23.2303 49.3314C22.0212 49.3314 20.839 49.3314 19.603 49.3314Z" fill="white"/>
<path d="M123.317 46.8864C126.138 46.8864 128.959 46.8864 131.807 46.8864C131.807 51.2122 131.807 55.4844 131.807 59.8103C128.986 59.8103 126.192 59.8103 123.317 59.8103C123.317 55.5381 123.317 51.266 123.317 46.8864ZM129.362 57.3921C129.362 54.6783 129.362 52.0183 129.362 49.3583C128.126 49.3583 126.917 49.3583 125.735 49.3583C125.735 52.072 125.735 54.7321 125.735 57.3921C126.971 57.3921 128.153 57.3921 129.362 57.3921Z" fill="white"/>
<path d="M15.2503 59.8371C12.4022 59.8371 9.60785 59.8371 6.78662 59.8371C6.78662 55.5113 6.78662 51.2122 6.78662 46.8864C9.60785 46.8864 12.4291 46.8864 15.2503 46.8864C15.2503 51.2122 15.2503 55.4844 15.2503 59.8371ZM12.8321 49.3583C11.623 49.3583 10.4139 49.3583 9.20482 49.3583C9.20482 52.072 9.20482 54.7321 9.20482 57.3652C10.4408 57.3652 11.6499 57.3652 12.8321 57.3652C12.8321 54.6783 12.8321 52.0452 12.8321 49.3583Z" fill="white"/>
<path d="M70.1433 46.8864C72.9645 46.8864 75.7589 46.8864 78.607 46.8864C78.607 51.2122 78.607 55.4844 78.607 59.8103C75.7858 59.8103 72.9914 59.8103 70.1433 59.8103C70.1433 55.5381 70.1433 51.2391 70.1433 46.8864ZM76.1888 57.3921C76.1888 54.6515 76.1888 51.9914 76.1888 49.3314C74.9528 49.3314 73.7706 49.3314 72.5884 49.3314C72.5884 52.0452 72.5884 54.7052 72.5884 57.3921C73.7975 57.3921 74.9797 57.3921 76.1888 57.3921Z" fill="white"/>
<path d="M98.1946 46.8864C101.096 46.8864 103.891 46.8864 106.712 46.8864C106.712 47.6924 106.712 48.4447 106.712 49.2777C104.697 49.2777 102.709 49.2777 100.613 49.2777C100.613 49.9494 100.586 50.5405 100.64 51.1316C100.667 51.2928 100.935 51.4809 101.123 51.5347C102.789 52.0989 104.455 52.6632 106.121 53.2274C106.309 53.308 106.524 53.3617 106.739 53.4424C106.739 55.565 106.739 57.6608 106.739 59.8103C103.918 59.8103 101.123 59.8103 98.2483 59.8103C98.2483 59.0311 98.2483 58.2519 98.2483 57.4189C100.263 57.4189 102.252 57.4189 104.321 57.4189C104.321 56.7741 104.348 56.1561 104.294 55.5919C104.267 55.4306 104.025 55.2426 103.837 55.1888C102.144 54.5977 100.478 54.0335 98.7857 53.4961C98.3827 53.3617 98.1946 53.2005 98.1946 52.7438C98.1946 50.8092 98.1946 48.8746 98.1946 46.8864Z" fill="white"/>
<path d="M59.7451 46.8864C62.5932 46.8864 65.3876 46.8864 68.2357 46.8864C68.2357 48.1492 68.2357 49.3852 68.2357 50.6749C67.4833 50.6749 66.7041 50.6749 65.8712 50.6749C65.8443 50.245 65.8443 49.8151 65.8175 49.3314C64.6084 49.3314 63.3993 49.3314 62.1633 49.3314C62.1633 51.9914 62.1633 54.6514 62.1633 57.3652C63.3724 57.3652 64.5815 57.3652 65.8175 57.3652C65.8175 56.9353 65.8175 56.5054 65.8175 56.0486C66.6235 56.0486 67.4027 56.0486 68.2088 56.0486C68.2088 57.2846 68.2088 58.5474 68.2088 59.8371C65.3876 59.8371 62.5932 59.8371 59.7451 59.8371C59.7451 55.5381 59.7451 51.2391 59.7451 46.8864Z" fill="white"/>
<path d="M112.919 59.8103C112.919 55.5113 112.919 51.2391 112.919 46.8864C115.767 46.8864 118.561 46.8864 121.409 46.8864C121.409 48.1492 121.409 49.3852 121.409 50.6749C120.63 50.6749 119.851 50.6749 119.018 50.6749C119.018 50.2181 119.018 49.8151 119.018 49.3314C117.782 49.3314 116.573 49.3314 115.337 49.3314C115.337 51.9914 115.337 54.6515 115.337 57.3652C116.519 57.3652 117.728 57.3652 118.991 57.3652C118.991 56.9353 118.991 56.5054 118.991 56.0218C119.824 56.0218 120.603 56.0218 121.409 56.0218C121.409 57.2846 121.409 58.5206 121.409 59.8103C118.588 59.8103 115.767 59.8103 112.919 59.8103Z" fill="white"/>
<path d="M57.8375 49.3045C56.8433 49.3045 55.876 49.3045 54.8282 49.3045C54.8282 52.8244 54.8282 56.3173 54.8282 59.8371C53.9952 59.8371 53.2429 59.8371 52.41 59.8371C52.41 56.3711 52.41 52.8781 52.41 49.3045C51.3621 49.3045 50.3679 49.3045 49.3738 49.3045C49.3738 48.4716 49.3738 47.6924 49.3738 46.8864C52.195 46.8864 54.9894 46.8864 57.8375 46.8864C57.8375 47.6924 57.8375 48.4447 57.8375 49.3045Z" fill="white"/>
<path d="M46.2838 49.3314C46.2838 52.0452 46.2838 54.7052 46.2838 57.3921C46.66 57.4189 47.0361 57.4189 47.4123 57.4458C47.4123 58.225 47.4123 59.0042 47.4123 59.8103C45.8539 59.8103 44.2686 59.8103 42.6565 59.8103C42.6565 59.0579 42.6565 58.2787 42.6565 57.4189C43.0058 57.4189 43.382 57.4189 43.7581 57.4189C43.7581 54.6783 43.7581 52.0183 43.7581 49.2777C43.382 49.2777 43.0058 49.2777 42.6296 49.2777C42.6296 48.4447 42.6296 47.6924 42.6296 46.8864C44.2149 46.8864 45.8002 46.8864 47.4123 46.8864C47.4123 47.6924 47.4123 48.4447 47.4123 49.2508C47.063 49.2777 46.7137 49.3046 46.2838 49.3314Z" fill="white"/>
<path d="M84.2228 57.4189C84.5989 57.4189 84.9482 57.4189 85.3244 57.4189C85.3244 58.225 85.3244 59.0042 85.3244 59.8371C83.7391 59.8371 82.1807 59.8371 80.5686 59.8371C80.5686 59.0579 80.5686 58.2787 80.5686 57.4458C80.9448 57.4189 81.2941 57.4189 81.6971 57.3921C81.6971 54.7052 81.6971 52.0452 81.6971 49.3314C81.3478 49.3045 80.9985 49.3045 80.5686 49.2777C80.5686 48.4985 80.5686 47.7193 80.5686 46.9132C82.1539 46.9132 83.7123 46.9132 85.3244 46.9132C85.3244 47.6924 85.3244 48.4447 85.3244 49.2777C85.002 49.3045 84.6527 49.3314 84.2228 49.3583C84.2228 51.9914 84.2228 54.6783 84.2228 57.4189Z" fill="white"/>
<path d="M3.66976 57.4189C4.12653 57.4189 4.44896 57.4189 4.82512 57.4189C4.82512 58.2519 4.82512 59.0311 4.82512 59.8371C3.23986 59.8371 1.68147 59.8371 0.0693359 59.8371C0.0693359 59.0579 0.0693359 58.2787 0.0693359 57.4458C0.418631 57.4458 0.794795 57.4458 1.19783 57.4458C1.19783 54.732 1.19783 52.0452 1.19783 49.3314C0.848533 49.3314 0.499238 49.3314 0.0693359 49.3314C0.0693359 48.4985 0.0693359 47.7193 0.0693359 46.9132C1.25157 46.9132 2.43379 46.9132 3.66976 46.9132C3.66976 50.3793 3.66976 53.8454 3.66976 57.4189Z" fill="white"/>
<path d="M89.2204 68.274C89.5697 68.274 89.9458 68.274 90.3757 68.274C90.537 70.531 90.6982 72.7611 90.8862 75.0449C90.5638 75.0449 90.2951 75.0449 89.9727 75.0449C89.8384 73.1373 89.7309 71.2296 89.5965 69.295C89.5697 69.295 89.5428 69.295 89.4891 69.295C88.8442 71.0683 88.1456 72.8148 87.5545 74.5882C87.3933 75.0181 87.2321 75.1255 86.8022 75.0449C86.1573 73.1641 85.4856 71.2833 84.8408 69.3756C84.8139 69.3756 84.7602 69.3756 84.7333 69.3756C84.5989 71.2564 84.4377 73.1373 84.3034 75.0449C84.0347 75.0449 83.7929 75.0449 83.4973 75.0449C83.7391 72.788 83.981 70.5578 84.2496 68.3009C84.6258 68.3009 85.0557 68.3009 85.4587 68.3009C86.0499 70.1011 86.641 71.8744 87.2321 73.7284C87.8769 71.9281 88.5218 70.1279 89.2204 68.274Z" fill="white"/>
<path d="M103.971 72.0088C103.971 73.0298 103.971 73.9971 103.971 75.0181C103.703 75.0181 103.434 75.0181 103.111 75.0181C103.111 74.0239 103.111 73.0298 103.111 72.0356C102.117 71.8744 101.526 72.1431 101.123 72.976C100.935 73.3791 100.801 73.809 100.666 74.2389C100.425 75.0987 100.425 75.0987 99.4036 74.9912C99.9678 73.7284 100.022 72.2237 101.472 71.4983C100.398 70.5041 99.9678 69.7249 99.726 68.274C100.371 68.059 100.693 68.274 100.828 68.9726C100.935 69.5368 101.177 70.0742 101.499 70.5579C101.822 71.0684 102.386 71.2564 103.085 71.2027C103.085 70.2354 103.085 69.2413 103.085 68.2471C103.407 68.2471 103.649 68.2471 103.944 68.2471C103.944 69.2144 103.944 70.2086 103.944 71.1758C104.831 71.2564 105.476 70.934 105.852 70.1548C106.04 69.7787 106.175 69.3488 106.282 68.9457C106.47 68.2203 106.47 68.2203 107.33 68.274C107.007 69.51 106.739 70.7191 105.503 71.4983C107.007 72.2237 107.034 73.7552 107.625 74.9643C106.604 75.1793 106.604 75.1793 106.336 74.2389C106.228 73.8359 106.094 73.4597 105.933 73.0835C105.557 72.2237 105.046 71.955 103.971 72.0088Z" fill="white"/>
<path d="M64.689 68.274C65.6294 68.274 66.5698 68.2202 67.5102 68.3008C68.155 68.3546 68.6924 68.6501 68.8805 69.3756C69.0417 70.101 68.7999 70.719 68.1282 71.2295C68.4775 71.5788 68.9611 71.8744 69.2029 72.3043C69.7134 73.2984 69.1492 74.4807 67.9938 74.8031C66.9728 75.0718 65.8443 75.0986 64.7158 75.233C64.689 72.8148 64.689 70.5578 64.689 68.274ZM65.495 71.74C65.495 72.1699 65.4682 72.4655 65.495 72.7342C65.5219 73.2716 65.6025 73.7821 65.6562 74.2926C66.3011 74.2657 66.9728 74.2926 67.6177 74.1851C68.155 74.1045 68.4506 73.7283 68.4775 73.1372C68.5043 72.573 68.2357 72.1431 67.6983 72.0087C66.9997 71.8744 66.2742 71.8475 65.495 71.74ZM65.4682 68.9725C65.4682 69.4293 65.4682 69.7517 65.4682 70.101C65.4682 70.4235 65.4682 70.7728 65.4682 71.1758C66.0861 71.122 66.6235 71.122 67.1609 71.0414C67.7251 70.934 68.0744 70.5847 68.0476 69.9667C68.0207 69.3756 67.6714 69.0532 67.134 68.9994C66.5967 68.9188 66.0861 68.9725 65.4682 68.9725Z" fill="white"/>
<path d="M115.364 71.9819C115.391 70.5847 115.74 69.5368 116.761 68.7576C118.292 67.6022 120.415 68.059 121.275 69.7518C121.974 71.1758 121.893 72.6536 120.952 73.9702C120.173 75.0449 119.099 75.5017 117.782 75.1793C116.519 74.8837 115.74 74.0239 115.471 72.7611C115.418 72.4655 115.391 72.1431 115.364 71.9819ZM120.899 71.7669C120.738 71.2027 120.684 70.5847 120.415 70.101C119.636 68.5695 117.782 68.462 116.815 69.8592C116.143 70.8265 116.116 72.5461 116.788 73.5403C117.728 74.9643 119.528 74.9374 120.361 73.4328C120.603 72.9223 120.711 72.3312 120.899 71.7669Z" fill="white"/>
<path d="M41.7162 71.4714C41.6893 72.6805 41.3938 73.6746 40.5071 74.4538C39.1368 75.6629 37.1216 75.4749 36.02 74.0239C34.9721 72.5999 35.1871 70.1817 36.4768 68.9995C37.3634 68.1665 38.4113 67.871 39.5667 68.3009C40.6952 68.7039 41.3938 69.5637 41.6087 70.7459C41.6625 71.0415 41.6893 71.3102 41.7162 71.4714ZM36.2349 71.6864C36.3693 72.1969 36.3962 72.7342 36.6111 73.191C36.9873 73.9971 37.6321 74.5344 38.5457 74.5613C39.4323 74.5882 40.0503 74.0508 40.4265 73.2985C40.937 72.2506 40.9639 71.1221 40.4265 70.0742C40.0235 69.2682 39.3249 68.8114 38.3845 68.8651C37.4978 68.9189 36.9335 69.4831 36.6111 70.2354C36.3962 70.6922 36.3424 71.2027 36.2349 71.6864Z" fill="white"/>
<path d="M76.6724 71.4714C76.6455 72.8954 76.2425 73.9702 75.1409 74.7225C73.7974 75.6629 71.9972 75.3674 71.0031 74.0777C69.8746 72.573 70.1701 70.0473 71.5942 68.8651C73.3675 67.3873 76.0007 68.274 76.5112 70.531C76.6187 70.8803 76.6455 71.2564 76.6724 71.4714ZM71.1912 71.6057C71.2986 72.1431 71.3255 72.573 71.4598 72.976C71.7823 73.8627 72.4271 74.4538 73.3944 74.5344C74.3617 74.615 74.9797 74.0777 75.3827 73.2716C75.8932 72.2237 75.8932 71.149 75.3827 70.1011C75.0065 69.3219 74.3348 68.8651 73.4213 68.8651C72.5346 68.8651 71.9704 69.3756 71.6211 70.1011C71.3792 70.5847 71.2986 71.149 71.1912 71.6057Z" fill="white"/>
<path d="M98.5439 71.5788C98.5439 72.7342 98.2214 73.7283 97.3348 74.5075C95.857 75.7972 93.6806 75.4211 92.6865 73.7283C91.961 72.4655 92.1222 70.3966 93.0626 69.295C93.9493 68.2471 95.2659 67.8709 96.475 68.3008C97.7647 68.7845 98.517 69.9936 98.5439 71.5788ZM97.6841 71.74C97.6572 71.74 97.6572 71.74 97.6303 71.7132C97.6035 71.4713 97.6303 71.2295 97.5766 71.0146C97.4154 69.8323 96.5018 68.9188 95.4539 68.8651C94.4329 68.8113 93.4657 69.5636 93.2776 70.7727C93.1701 71.4982 93.197 72.2774 93.385 72.976C93.6 73.9164 94.5404 74.5613 95.4271 74.5613C96.4212 74.5344 97.0123 73.9433 97.3616 73.1103C97.5228 72.6804 97.5766 72.1968 97.6841 71.74Z" fill="white"/>
<path d="M54.1026 75.0717C53.8071 75.0717 53.5384 75.0717 53.2697 75.0717C53.2697 73.4059 53.2697 71.7669 53.2697 70.0204C52.1143 71.6057 50.959 73.1103 49.8842 74.6687C49.6424 75.0449 49.4543 75.1792 49.0244 75.0449C49.0244 72.8148 49.0244 70.6115 49.0244 68.3277C49.2931 68.3277 49.5618 68.3277 49.8842 68.3277C49.8842 69.9667 49.8842 71.6057 49.8842 73.2178C49.9111 73.2447 49.9648 73.2715 49.9917 73.2984C51.1202 71.74 52.2487 70.1548 53.3772 68.5964C53.5115 68.4083 53.7802 68.3277 54.1026 68.1396C54.1026 70.5309 54.1026 72.761 54.1026 75.0717Z" fill="white"/>
<path d="M144.49 68.3009C144.516 68.3009 144.705 68.3009 144.946 68.3009C144.946 70.5578 144.946 72.788 144.946 75.0449C144.651 75.0449 144.355 75.0449 144.06 75.0449C144.06 73.3791 144.06 71.7669 144.06 69.9936C142.851 71.6595 141.722 73.2179 140.567 74.7763C140.432 74.9643 140.137 75.0449 139.814 75.233C139.814 72.788 139.814 70.5578 139.814 68.274C140.083 68.274 140.352 68.274 140.674 68.274C140.674 69.913 140.674 71.5251 140.674 73.3253C141.964 71.6326 143.2 69.9936 144.49 68.3009Z" fill="white"/>
<path d="M24.2514 73.4328C25.4874 71.7132 26.6159 70.1279 27.7712 68.5426C27.9056 68.3546 28.2011 68.3008 28.4967 68.1127C28.4967 70.5309 28.4967 72.761 28.4967 75.018C28.228 75.018 27.9325 75.018 27.61 75.018C27.61 73.379 27.61 71.74 27.61 69.9667C26.4009 71.6325 25.2724 73.2447 24.0902 74.8031C23.9559 74.9643 23.6872 75.018 23.3647 75.1792C23.3647 72.7879 23.3647 70.5578 23.3647 68.3008C23.6334 68.3008 23.9021 68.3008 24.1977 68.3008C24.2514 69.9398 24.2514 71.5788 24.2514 73.4328Z" fill="white"/>
<path d="M60.39 75.0449C60.0944 75.0449 59.8257 75.0449 59.5301 75.0449C59.5301 74.0776 59.5301 73.1641 59.5301 72.2237C58.0524 71.9013 57.3 72.3312 56.7895 73.6746C56.7089 73.8627 56.6552 74.0776 56.5746 74.2926C56.3328 75.1255 56.3328 75.1255 55.3655 75.018C55.8491 73.8896 55.9297 72.573 57.2194 71.8744C56.3596 71.5788 55.7685 71.0952 55.7685 70.1279C55.7685 69.1875 56.1984 68.5158 57.1388 68.3814C58.1867 68.2202 59.2615 68.2471 60.39 68.1934C60.39 70.5309 60.39 72.7611 60.39 75.0449ZM59.4764 71.5251C59.4764 70.5847 59.4764 69.8324 59.4764 68.9188C58.8853 68.9188 58.3479 68.8919 57.8374 68.9188C57.3 68.9726 56.7627 69.1069 56.6821 69.8055C56.6014 70.531 56.9239 71.1221 57.6225 71.2833C58.2404 71.4445 58.8584 71.4445 59.4764 71.5251Z" fill="white"/>
<path d="M109.936 71.8744C109.936 72.9492 109.936 73.9702 109.936 75.0449C109.614 75.0449 109.345 75.0449 109.023 75.0449C109.023 72.7879 109.023 70.5578 109.023 68.3008C109.318 68.3008 109.614 68.3008 109.936 68.3008C109.936 69.2413 109.936 70.1817 109.936 71.1489C110.957 71.1489 111.951 71.1489 112.972 71.1489C112.972 70.2085 112.972 69.2681 112.972 68.3008C113.295 68.3008 113.59 68.3008 113.886 68.3008C113.886 70.5578 113.886 72.7611 113.886 75.0449C113.617 75.0449 113.322 75.0449 112.972 75.0449C112.972 73.997 112.972 72.976 112.972 71.9013C111.978 71.8744 110.984 71.8744 109.936 71.8744Z" fill="white"/>
<path d="M6.30298 68.3008C7.59268 68.3008 8.82865 68.3008 10.0915 68.3008C10.0915 68.5427 10.0915 68.7307 10.0915 69.0263C9.09734 69.0263 8.13006 69.0263 7.13591 69.0263C7.13591 69.7786 7.13591 70.4503 7.13591 71.1758C7.94198 71.1758 8.69431 71.1758 9.52724 71.1758C9.52724 71.3908 9.52724 71.6057 9.52724 71.8744C8.74804 71.8744 7.99572 71.8744 7.18965 71.8744C7.18965 72.7342 7.18965 73.5134 7.18965 74.3463C8.29127 74.3463 9.31229 74.3463 10.387 74.3463C10.387 74.5882 10.387 74.8031 10.387 75.0449C9.0436 75.0449 7.70016 75.0449 6.30298 75.0449C6.30298 72.8148 6.30298 70.5847 6.30298 68.3008Z" fill="white"/>
<path d="M44.0805 72.5461C44.0805 73.2984 44.0805 74.1582 44.0805 75.0449C43.785 75.0449 43.5163 75.0449 43.1938 75.0449C43.1938 72.8148 43.1938 70.5578 43.1938 68.274C44.1611 68.274 45.1015 68.2202 46.0419 68.3008C46.9017 68.3546 47.5197 68.9188 47.6541 69.6174C47.8153 70.4772 47.4929 71.4176 46.7137 71.7669C45.9076 72.0893 45.0209 72.2774 44.0805 72.5461ZM44.0805 71.7669C44.8597 71.6057 45.5314 71.5251 46.1763 71.3101C46.6868 71.1489 46.848 70.6922 46.8211 70.1548C46.7943 69.6711 46.6062 69.2681 46.1226 69.08C45.4508 68.8113 44.7522 68.7845 44.0805 68.9994C44.0805 69.913 44.0805 70.7459 44.0805 71.7669Z" fill="white"/>
<path d="M77.801 68.9726C77.7204 68.5964 77.9353 68.3009 78.4727 68.274C79.1444 68.2471 79.7893 68.1934 80.461 68.2471C81.1596 68.3009 81.6701 68.6233 81.8582 69.3487C82.0462 70.0742 81.8044 70.6384 81.1327 71.1221C81.0521 71.1758 80.9715 71.2296 80.8909 71.3102C82.0462 71.9013 82.4224 72.5461 82.2074 73.5403C82.0194 74.4538 81.1596 75.1793 80.1117 75.233C79.2519 75.2599 78.3921 75.1524 77.4517 75.0987C77.5323 74.6956 77.5591 74.4807 77.6129 74.2389C78.1771 74.3463 78.7145 74.4807 79.2519 74.5344C79.628 74.5613 80.0311 74.5613 80.4072 74.4807C80.9983 74.3732 81.3208 73.997 81.3745 73.3522C81.4283 72.7611 81.1327 72.3312 80.5953 72.17C79.9236 72.0088 79.225 71.9282 78.4727 71.8207C78.4996 71.6595 78.4995 71.4445 78.5264 71.2564C79.0638 71.2027 79.5743 71.2027 80.0848 71.1221C80.7565 71.0146 81.1058 70.5847 81.1058 69.9936C81.079 69.3487 80.6759 69.0532 80.1117 69.0263C79.3325 68.9188 78.607 68.9726 77.801 68.9726Z" fill="white"/>
<path d="M135.193 71.149C136.026 71.149 136.778 71.149 137.557 71.149C137.557 71.3639 137.557 71.5789 137.557 71.8475C136.778 71.8475 135.999 71.8475 135.22 71.8475C135.22 72.6805 135.22 73.4597 135.22 74.2926C136.294 74.2926 137.342 74.2926 138.417 74.2926C138.417 74.5344 138.417 74.7763 138.417 75.0181C137.074 75.0181 135.73 75.0181 134.333 75.0181C134.333 72.7611 134.333 70.531 134.333 68.274C135.596 68.274 136.832 68.274 138.148 68.274C138.148 68.4889 138.148 68.7039 138.148 68.9726C137.154 68.9726 136.187 68.9726 135.166 68.9726C135.193 69.7249 135.193 70.4235 135.193 71.149Z" fill="white"/>
<path d="M17.5879 68.2471C18.5014 68.2471 19.3344 68.2202 20.1673 68.2471C21.1614 68.274 21.86 68.7845 22.0213 69.5637C22.2362 70.531 21.8332 71.4445 20.9465 71.8744C20.5703 72.0625 20.1404 72.17 19.7374 72.2506C19.3344 72.3312 18.9313 72.3312 18.5014 72.3849C18.5014 73.2716 18.5014 74.1583 18.5014 75.0449C18.2059 75.0449 17.9372 75.0449 17.6148 75.0449C17.5879 72.8148 17.5879 70.5578 17.5879 68.2471ZM18.4208 68.9188C18.4208 69.8324 18.394 70.5578 18.4477 71.2833C18.4477 71.4176 18.6895 71.6595 18.797 71.6595C19.3344 71.6326 19.8717 71.6057 20.3823 71.4445C20.9734 71.2833 21.2689 70.7997 21.2152 70.1548C21.1883 69.5368 20.839 69.1338 20.2479 69.0532C19.6568 68.9457 19.0657 68.9457 18.4208 68.9188Z" fill="white"/>
<path d="M12.6709 72.3849C12.6709 73.2716 12.6709 74.1314 12.6709 75.045C12.4022 75.045 12.1066 75.045 11.7842 75.045C11.7842 72.8148 11.7842 70.5847 11.7842 68.3009C12.7783 68.3009 13.7993 68.2471 14.7666 68.3277C15.4921 68.3815 16.0832 68.8114 16.2175 69.5906C16.3519 70.4504 16.1907 71.2833 15.3846 71.7132C14.7666 72.0356 14.0143 72.1431 13.3157 72.3312C13.1008 72.3849 12.8858 72.3581 12.6709 72.3849ZM12.644 68.892C12.644 69.8861 12.644 70.7459 12.644 71.7401C13.3426 71.6326 14.0143 71.5789 14.6323 71.3908C15.1697 71.2296 15.4383 70.7459 15.4115 70.1817C15.3846 69.5906 15.0622 69.1338 14.4711 69.0263C13.9068 68.9189 13.2888 68.9457 12.644 68.892Z" fill="white"/>
<path d="M127.589 74.2926C127.75 74.8837 127.535 75.0986 127.025 75.1792C124.929 75.5285 123.236 74.5881 122.779 72.761C122.081 69.9667 124.445 67.6291 127.293 68.3277C127.266 68.5695 127.24 68.8113 127.186 69.08C125.896 68.8382 124.687 68.8113 123.988 70.101C123.397 71.1489 123.397 72.2505 124.069 73.2716C124.929 74.615 126.219 74.615 127.589 74.2926Z" fill="white"/>
<path d="M130.222 68.9726C129.47 68.9726 128.825 68.9726 128.126 68.9726C128.126 68.7576 128.126 68.5158 128.126 68.274C129.819 68.274 131.485 68.274 133.178 68.274C133.178 68.5158 133.178 68.7039 133.178 68.9457C132.506 68.9457 131.834 68.9457 131.136 68.9457C131.136 70.9877 131.136 72.976 131.136 75.0181C130.813 75.0181 130.545 75.0181 130.249 75.0181C130.222 73.0298 130.222 71.0415 130.222 68.9726Z" fill="white"/>
<path d="M3.05176 68.9726C3.05176 71.0415 3.05176 73.0298 3.05176 75.0449C2.75621 75.0449 2.48752 75.0449 2.16509 75.0449C2.16509 73.0298 2.16509 71.0146 2.16509 68.9726C1.43963 68.9726 0.794782 68.9726 0.0961914 68.9726C0.0961914 68.7307 0.0961914 68.5427 0.0961914 68.3008C1.78893 68.3008 3.4548 68.3008 5.20127 68.3008C5.1744 68.5427 5.1744 68.7307 5.14754 68.9726C4.44895 68.9726 3.77722 68.9726 3.05176 68.9726Z" fill="white"/>
<path d="M34.7572 68.3008C34.7572 68.5427 34.7572 68.7307 34.7572 68.9726C34.0586 68.9726 33.3869 68.9726 32.6883 68.9726C32.6883 71.0146 32.6883 73.0029 32.6883 75.0449C32.3927 75.0449 32.0972 75.0449 31.8016 75.0449C31.8016 73.0566 31.8016 71.0683 31.8016 69.0263C31.0761 69.0263 30.3776 69.0263 29.6521 69.0263C29.679 68.7576 29.679 68.5695 29.679 68.3277C31.3717 68.3008 33.0376 68.3008 34.7572 68.3008Z" fill="white"/>
<path d="M110.957 59.8372C110.151 59.8372 109.399 59.8372 108.593 59.8372C108.593 59.058 108.593 58.2788 108.593 57.4727C109.372 57.4727 110.124 57.4727 110.957 57.4727C110.957 58.225 110.957 59.0042 110.957 59.8372Z" fill="white"/>
<path d="M140.835 66.3394C141.05 66.3125 141.238 66.2857 141.48 66.2588C141.615 66.823 141.803 67.3335 142.528 67.2798C143.146 67.2529 143.281 66.7962 143.361 66.2857C143.549 66.2857 143.737 66.3125 144.06 66.3125C143.952 66.6618 143.872 66.9574 143.737 67.2261C143.442 67.7366 142.716 67.9515 141.964 67.7903C141.265 67.656 140.943 67.2798 140.835 66.3394Z" fill="white"/>
<path d="M63.5069 32.1622C64.6354 30.98 65.737 29.8246 66.8655 28.6961C67.0267 28.5349 67.3491 28.4543 67.6178 28.4275C69.7136 28.4006 71.7825 28.4275 73.8783 28.4006C74.4156 28.4006 75.0068 28.32 75.5173 28.105C76.5114 27.7289 77.0757 26.9765 77.1025 25.9018C77.1294 24.9076 76.4845 24.021 75.4635 23.6448C75.0336 23.4836 74.55 23.4567 74.0395 23.3224C74.0395 24.1553 74.0395 24.8808 74.0395 25.6331C73.2065 25.6331 72.4273 25.6331 71.5944 25.6331C71.5944 24.8808 71.5944 24.1553 71.5944 23.403C71.1645 23.403 70.8152 23.403 70.3853 23.403C70.3853 24.1284 70.3853 24.8539 70.3853 25.6331C69.5255 25.6331 68.7463 25.6331 67.9134 25.6331C67.9134 24.9076 67.9134 24.1822 67.9134 23.3761C66.6505 23.3761 65.4414 23.3761 64.2592 23.3761C63.3994 23.3761 63.3994 23.3761 63.3994 22.5163C63.3994 21.6296 63.3994 20.7698 63.3994 19.8026C64.9041 19.8026 66.355 19.8026 67.8596 19.8026C67.8596 18.083 67.8596 16.444 67.8596 15.0468C67.3491 14.6706 66.8924 14.4288 66.5699 14.1064C65.5758 13.1391 64.6354 12.1181 63.5338 10.9896C65.0653 10.9896 66.4625 10.9896 67.8596 10.9896C67.8865 10.5597 67.9134 10.2372 67.9402 9.86108C68.7463 9.86108 69.4986 9.86108 70.3047 9.86108C70.3316 10.2104 70.3584 10.5597 70.3853 10.9358C70.7615 10.9358 71.1376 10.9358 71.5407 10.9358C71.5675 10.5865 71.5675 10.2372 71.5944 9.86108C72.3736 9.86108 73.1528 9.86108 73.9857 9.86108C74.0126 10.2104 74.0395 10.5328 74.0395 10.9358C76.807 10.909 79.0908 11.8494 80.2462 14.5363C81.3209 17.1157 80.891 19.4801 79.0102 21.6296C80.0312 22.7044 80.5955 23.9941 80.7567 25.4719C81.1329 29.0454 78.5803 32.1354 75.0068 32.2428C71.2451 32.3234 67.4835 32.2697 63.7218 32.2697C63.6681 32.2697 63.6412 32.216 63.5069 32.1622ZM74.0126 14.8318C74.0126 16.4977 74.0126 18.1367 74.0126 19.8026C75.1411 19.8026 76.0546 19.507 76.6726 18.5666C77.21 17.7605 77.21 16.9007 76.6726 16.0947C76.0815 15.1274 75.1411 14.805 74.0126 14.8318ZM70.3316 14.8318C70.3316 16.5246 70.3316 18.1367 70.3316 19.7757C70.7346 19.7757 71.1108 19.7757 71.4869 19.7757C71.4869 18.1098 71.4869 16.4708 71.4869 14.8318C71.1108 14.8318 70.7615 14.8318 70.3316 14.8318Z" fill="white"/>
</svg>
